<svg width="20" height="20" viewBox="0 0 20 20" fill="none" xmlns="http://www.w3.org/2000/svg">
<path d="M10.832 2.5C12.6001 2.5 14.2958 3.20238 15.5461 4.45262C16.7963 5.70286 17.4987 7.39856 17.4987 9.16667M11.2487 5.41667C12.1328 5.41667 12.9806 5.76786 13.6057 6.39298C14.2308 7.0181 14.582 7.86594 14.582 8.75" stroke="black" stroke-width="1.5" stroke-linecap="round" stroke-linejoin="round"/>
<path d="M7.6313 4.76L7.2963 4.005C7.0763 3.51167 6.96713 3.265 6.80296 3.07583C6.59758 2.83893 6.32954 2.66476 6.02963 2.57333C5.79046 2.5 5.51963 2.5 4.97963 2.5C4.18963 2.5 3.79463 2.5 3.46296 2.65167C3.05382 2.85045 2.73712 3.19939 2.5788 3.62583C2.45963 3.97 2.4938 4.32417 2.56213 5.03333C3.28991 12.575 7.42463 16.7097 14.9663 17.4375C15.6746 17.5058 16.0296 17.54 16.3746 17.4208C16.8006 17.2625 17.1492 16.9462 17.348 16.5375C17.4996 16.205 17.4996 15.81 17.4996 15.02C17.4996 14.4792 17.4996 14.2092 17.4263 13.97C17.3349 13.6701 17.1607 13.402 16.9238 13.1967C16.7346 13.0325 16.488 12.9233 15.9946 12.7033L15.2396 12.3683C14.7046 12.1308 14.438 12.0117 14.1663 11.9858C13.9062 11.9609 13.6439 11.9974 13.4005 12.0925C13.1463 12.1917 12.9213 12.3783 12.4721 12.7533C12.0246 13.1258 11.8013 13.3117 11.528 13.4117C11.2653 13.5025 10.9852 13.5313 10.7096 13.4958C10.4221 13.4542 10.2013 13.3358 9.76046 13.1C8.3888 12.3667 7.63296 11.6108 6.89963 10.2392C6.6638 9.7975 6.5463 9.5775 6.5038 9.28917C6.4683 9.01416 6.49682 8.73467 6.58713 8.4725C6.68713 8.19833 6.8738 7.975 7.2463 7.5275C7.6213 7.0775 7.80796 6.85333 7.90713 6.59917C8.00213 6.35583 8.0388 6.09333 8.0138 5.83333C7.98796 5.5625 7.8688 5.295 7.6313 4.76Z" stroke="black" stroke-width="1.5" stroke-linecap="round"/>
</svg>
