<svg width="20" height="20" viewBox="0 0 20 20" fill="none" xmlns="http://www.w3.org/2000/svg">
<path d="M10.8327 17.5L12.4993 16.6667L14.166 17.5V11.6667H10.8327M14.166 7.5V5.83333L12.4993 6.66667L10.8327 5.83333V7.5L9.16602 8.33333L10.8327 9.16667V10.8333L12.4993 10L14.166 10.8333V9.16667L15.8327 8.33333M16.666 2.5H3.33268C2.89065 2.5 2.46673 2.67559 2.15417 2.98816C1.84161 3.30072 1.66602 3.72464 1.66602 4.16667V12.5C1.66602 12.942 1.84161 13.3659 2.15417 13.6785C2.46673 13.9911 2.89065 14.1667 3.33268 14.1667H9.16602V12.5H3.33268V4.16667H16.666V12.5H15.8327V14.1667H16.666C17.108 14.1667 17.532 13.9911 17.8445 13.6785C18.1571 13.3659 18.3327 12.942 18.3327 12.5V4.16667C18.3327 3.72464 18.1571 3.30072 17.8445 2.98816C17.532 2.67559 17.108 2.5 16.666 2.5ZM9.16602 6.66667H4.16602V5H9.16602M7.49935 9.16667H4.16602V7.5H7.49935M9.16602 11.6667H4.16602V10H9.16602V11.6667Z" fill="black"/>
</svg>
