<svg width="21" height="20" viewBox="0 0 21 20" fill="none" xmlns="http://www.w3.org/2000/svg">
<path fill-rule="evenodd" clip-rule="evenodd" d="M16.9994 8.48337C16.741 5.83337 15.1744 1.66669 10.3327 1.66669C5.49104 1.66669 3.92436 5.83337 3.66604 8.48337C2.75979 8.82731 2.16201 9.69739 2.16604 10.6667V11.8334C2.16604 13.122 3.21072 14.1667 4.49936 14.1667C5.78803 14.1667 6.83272 13.122 6.83272 11.8334V10.6667C6.8285 9.71829 6.25272 8.8661 5.37436 8.50837C5.54104 6.97501 6.35772 3.33337 10.3327 3.33337C14.3077 3.33337 15.116 6.97501 15.2827 8.50837C14.4062 8.86688 13.8333 9.71966 13.8327 10.6667V11.8334C13.8345 12.2724 13.9597 12.7021 14.194 13.0734C14.4283 13.4448 14.7622 13.7427 15.1577 13.9334C14.8077 14.5917 13.916 15.4834 11.7244 15.75C11.2863 15.0848 10.4387 14.8225 9.70139 15.1241C8.96416 15.4257 8.54334 16.2068 8.69709 16.9884C8.85084 17.7699 9.53615 18.3334 10.3327 18.3334C10.6414 18.3316 10.9435 18.2442 11.2054 18.0809C11.4673 17.9176 11.6787 17.6848 11.816 17.4084C15.391 17 16.5327 15.1584 16.891 14.075C17.8604 13.761 18.5124 12.8523 18.4994 11.8334V10.6667C18.5034 9.69739 17.9056 8.82731 16.9994 8.48337ZM5.16604 11.8334C5.16604 12.2015 4.86756 12.5 4.49936 12.5C4.13115 12.5 3.83272 12.2016 3.83272 11.8334V10.6667C3.83204 10.5787 3.84879 10.4915 3.88199 10.41C3.91519 10.3285 3.96419 10.2544 4.02616 10.192C4.08813 10.1295 4.16185 10.08 4.24307 10.0461C4.32429 10.0123 4.4114 9.9949 4.49938 9.9949C4.58735 9.9949 4.67446 10.0123 4.75568 10.0461C4.8369 10.08 4.91062 10.1295 4.97259 10.192C5.03456 10.2544 5.08356 10.3285 5.11676 10.41C5.14996 10.4915 5.16671 10.5787 5.16604 10.6667V11.8334ZM15.4994 10.6667C15.4994 10.2985 15.7978 10 16.166 10C16.5342 10 16.8327 10.2985 16.8327 10.6667V11.8334C16.8327 12.2015 16.5342 12.5 16.166 12.5C15.7978 12.5 15.4994 12.2016 15.4994 11.8334V10.6667Z" fill="black"/>
</svg>
