<svg width="21" height="20" viewBox="0 0 21 20" fill="none" xmlns="http://www.w3.org/2000/svg">
<path d="M15.4993 15C17.3403 15 18.8327 12.0152 18.8327 8.33332C18.8327 4.65142 17.3403 1.66666 15.4993 1.66666C13.6584 1.66666 12.166 4.65142 12.166 8.33332C12.166 12.0152 13.6584 15 15.4993 15Z" stroke="black" stroke-width="1.5"/>
<path d="M15.4993 1.66666C12.9135 1.66666 7.55352 3.64832 4.47518 4.87832C3.06518 5.44166 2.16602 6.81499 2.16602 8.33332C2.16602 9.85166 3.06602 11.225 4.47518 11.7883C7.55352 13.0183 12.9135 15 15.4993 15" stroke="black" stroke-width="1.5"/>
<path d="M9.66601 18.3333L8.04684 17.4417C7.18241 16.9633 6.48123 16.2367 6.03381 15.3559C5.5864 14.475 5.41329 13.4802 5.53684 12.5" stroke="black" stroke-width="1.5" stroke-linecap="round" stroke-linejoin="round"/>
</svg>
