<svg width="20" height="20" viewBox="0 0 20 20" fill="none" xmlns="http://www.w3.org/2000/svg">
<path d="M7.49935 4.16667H5.83268C4.91221 4.16667 4.16602 4.91286 4.16602 5.83333V15.8333C4.16602 16.7538 4.91221 17.5 5.83268 17.5H14.166C15.0865 17.5 15.8327 16.7538 15.8327 15.8333V5.83333C15.8327 4.91286 15.0865 4.16667 14.166 4.16667H12.4993M7.49935 4.16667C7.49935 5.08714 8.24554 5.83333 9.16602 5.83333H10.8327C11.7532 5.83333 12.4993 5.08714 12.4993 4.16667M7.49935 4.16667C7.49935 3.24619 8.24554 2.5 9.16602 2.5H10.8327C11.7532 2.5 12.4993 3.24619 12.4993 4.16667M9.99935 10H12.4993M9.99935 13.3333H12.4993M7.49935 10H7.50768M7.49935 13.3333H7.50768" stroke="#111B29" stroke-width="2" stroke-linecap="round"/>
</svg>
