<svg width="21" height="20" viewBox="0 0 21 20" fill="none" xmlns="http://www.w3.org/2000/svg">
<path d="M3.04577 9.16667H4.66667C5.58714 9.16667 6.33333 9.91286 6.33333 10.8333V11.6667C6.33333 12.5871 7.07953 13.3333 8 13.3333C8.92047 13.3333 9.66667 14.0795 9.66667 15V17.4542M7.16667 3.2796V4.58333C7.16667 5.73393 8.09941 6.66667 9.25 6.66667H9.66667C10.5871 6.66667 11.3333 7.41286 11.3333 8.33333C11.3333 9.25381 12.0795 10 13 10C13.9205 10 14.6667 9.25381 14.6667 8.33333C14.6667 7.41286 15.4129 6.66667 16.3333 6.66667L17.2204 6.66667M13 17.0732V15C13 14.0795 13.7462 13.3333 14.6667 13.3333H17.2204M18 10C18 14.1421 14.6421 17.5 10.5 17.5C6.35786 17.5 3 14.1421 3 10C3 5.85786 6.35786 2.5 10.5 2.5C14.6421 2.5 18 5.85786 18 10Z" stroke="#111B29" stroke-width="1.5" stroke-linecap="round" stroke-linejoin="round"/>
</svg>
