<svg width="20" height="20" viewBox="0 0 20 20" fill="none" xmlns="http://www.w3.org/2000/svg">
<path d="M6.16608 14.375C5.58274 14.8611 4.97524 15.0833 4.34358 15.0417C3.71191 15 3.15969 14.7847 2.68691 14.3958C2.21413 14.0069 1.89135 13.4967 1.71858 12.865C1.5458 12.2333 1.66024 11.5839 2.06191 10.9167L3.62441 8.33333C3.27719 8.02778 3.00302 7.65972 2.80191 7.22917C2.6008 6.79861 2.49996 6.33333 2.49941 5.83333C2.49941 4.91667 2.8258 4.13194 3.47858 3.47917C4.13135 2.82639 4.91608 2.5 5.83274 2.5C6.74941 2.5 7.53413 2.82639 8.18691 3.47917C8.83969 4.13194 9.16608 4.91667 9.16608 5.83333C9.16608 6.75 8.83969 7.53472 8.18691 8.1875C7.53413 8.84028 6.74941 9.16667 5.83274 9.16667C5.70774 9.16667 5.58274 9.15972 5.45774 9.14583C5.33274 9.13194 5.21469 9.11111 5.10358 9.08333L3.49941 11.7917C3.34663 12.0417 3.29802 12.2883 3.35358 12.5317C3.40913 12.775 3.52719 12.9728 3.70774 13.125C3.8883 13.2772 4.10358 13.3642 4.35358 13.3858C4.60358 13.4075 4.84663 13.3206 5.08274 13.125L13.8327 5.60417C14.4161 5.11806 15.0272 4.89917 15.6661 4.9475C16.305 4.99583 16.8605 5.21472 17.3327 5.60417C17.805 5.99361 18.1244 6.50417 18.2911 7.13583C18.4577 7.7675 18.3397 8.41667 17.9369 9.08333L16.3744 11.6667C16.7216 11.9722 16.9961 12.3403 17.1977 12.7708C17.3994 13.2014 17.5 13.6667 17.4994 14.1667C17.4994 15.0833 17.173 15.8681 16.5202 16.5208C15.8675 17.1736 15.0827 17.5 14.1661 17.5C13.2494 17.5 12.4647 17.1736 11.8119 16.5208C11.1591 15.8681 10.8327 15.0833 10.8327 14.1667C10.8327 13.25 11.1591 12.4653 11.8119 11.8125C12.4647 11.1597 13.2494 10.8333 14.1661 10.8333C14.2911 10.8333 14.4127 10.8403 14.5311 10.8542C14.6494 10.8681 14.7639 10.8889 14.8744 10.9167L16.4994 8.20833C16.6522 7.95833 16.7008 7.71167 16.6452 7.46833C16.5897 7.225 16.4716 7.02722 16.2911 6.875C16.1105 6.72278 15.8952 6.63611 15.6452 6.615C15.3952 6.59389 15.1522 6.68056 14.9161 6.875L6.16608 14.375ZM5.83274 7.5C6.29108 7.5 6.68358 7.33694 7.01024 7.01083C7.33691 6.68472 7.49996 6.29222 7.49941 5.83333C7.49885 5.37444 7.3358 4.98222 7.01024 4.65667C6.68469 4.33111 6.29219 4.16778 5.83274 4.16667C5.3733 4.16556 4.98108 4.32889 4.65608 4.65667C4.33108 4.98444 4.16774 5.37667 4.16608 5.83333C4.16441 6.29 4.32774 6.6825 4.65608 7.01083C4.98441 7.33917 5.37663 7.50222 5.83274 7.5ZM14.1661 15.8333C14.6244 15.8333 15.0169 15.6703 15.3436 15.3442C15.6702 15.0181 15.8333 14.6256 15.8327 14.1667C15.8322 13.7078 15.6691 13.3156 15.3436 12.99C15.018 12.6644 14.6255 12.5011 14.1661 12.5C13.7066 12.4989 13.3144 12.6622 12.9894 12.99C12.6644 13.3178 12.5011 13.71 12.4994 14.1667C12.4977 14.6233 12.6611 15.0158 12.9894 15.3442C13.3177 15.6725 13.71 15.8356 14.1661 15.8333Z" fill="black"/>
</svg>
