<svg width="398" height="268" viewBox="0 0 398 268" fill="none" xmlns="http://www.w3.org/2000/svg">
<g clip-path="url(#clip0_222_1757)">
<g opacity="0.6">
<rect x="-3.16602" y="-68.5" width="135" height="135" stroke="#E5E5E5"/>
<rect x="131.834" y="-68.5" width="135" height="135" stroke="#E5E5E5"/>
<rect x="266.834" y="-68.5" width="135" height="135" stroke="#E5E5E5"/>
<rect x="-3.16602" y="66.5" width="135" height="135" stroke="#E5E5E5"/>
<rect x="131.834" y="66.5" width="135" height="135" stroke="#E5E5E5"/>
<rect x="266.834" y="66.5" width="135" height="135" stroke="#E5E5E5"/>
<rect x="-3.16602" y="201.5" width="135" height="135" stroke="#E5E5E5"/>
<rect x="131.834" y="201.5" width="135" height="135" stroke="#E5E5E5"/>
<rect x="266.834" y="201.5" width="135" height="135" stroke="#E5E5E5"/>
</g>
<g filter="url(#filter0_ddddd_222_1757)">
<rect x="90" y="47" width="219" height="112" rx="16" fill="white" shape-rendering="crispEdges"/>
<rect x="90.5" y="47.5" width="218" height="111" rx="15.5" stroke="#F5F5F5" shape-rendering="crispEdges"/>
<rect x="109.5" y="66.5" width="180" height="31" rx="8.5" fill="white"/>
<rect x="109.5" y="66.5" width="180" height="31" rx="8.5" stroke="#E5E5E5"/>
<path d="M122.84 87V78.36H128.24V79.206H123.722V82.194H127.52V83.04H123.722V86.154H128.24V87H122.84ZM134.364 87V83.694C134.364 83.334 134.33 83.004 134.262 82.704C134.194 82.4 134.084 82.136 133.932 81.912C133.784 81.684 133.59 81.508 133.35 81.384C133.114 81.26 132.826 81.198 132.486 81.198C132.174 81.198 131.898 81.252 131.658 81.36C131.422 81.468 131.222 81.624 131.058 81.828C130.898 82.028 130.776 82.272 130.692 82.56C130.608 82.848 130.566 83.176 130.566 83.544L129.942 83.406C129.942 82.742 130.058 82.184 130.29 81.732C130.522 81.28 130.842 80.938 131.25 80.706C131.658 80.474 132.126 80.358 132.654 80.358C133.042 80.358 133.38 80.418 133.668 80.538C133.96 80.658 134.206 80.82 134.406 81.024C134.61 81.228 134.774 81.462 134.898 81.726C135.022 81.986 135.112 82.264 135.168 82.56C135.224 82.852 135.252 83.144 135.252 83.436V87H134.364ZM129.678 87V80.52H130.476V82.116H130.566V87H129.678ZM140.337 87C139.973 87.076 139.613 87.106 139.257 87.09C138.905 87.074 138.589 86.998 138.309 86.862C138.033 86.726 137.823 86.514 137.679 86.226C137.563 85.986 137.499 85.744 137.487 85.5C137.479 85.252 137.475 84.97 137.475 84.654V78.72H138.351V84.618C138.351 84.89 138.353 85.118 138.357 85.302C138.365 85.482 138.407 85.642 138.483 85.782C138.627 86.05 138.855 86.21 139.167 86.262C139.483 86.314 139.873 86.302 140.337 86.226V87ZM136.089 81.276V80.52H140.337V81.276H136.089ZM144.121 87.18C143.489 87.18 142.941 87.04 142.477 86.76C142.017 86.48 141.659 86.086 141.403 85.578C141.147 85.07 141.019 84.474 141.019 83.79C141.019 83.082 141.145 82.47 141.397 81.954C141.649 81.438 142.003 81.04 142.459 80.76C142.919 80.48 143.461 80.34 144.085 80.34C144.725 80.34 145.271 80.488 145.723 80.784C146.175 81.076 146.517 81.496 146.749 82.044C146.981 82.592 147.087 83.246 147.067 84.006H146.167V83.694C146.151 82.854 145.969 82.22 145.621 81.792C145.277 81.364 144.773 81.15 144.109 81.15C143.413 81.15 142.879 81.376 142.507 81.828C142.139 82.28 141.955 82.924 141.955 83.76C141.955 84.576 142.139 85.21 142.507 85.662C142.879 86.11 143.405 86.334 144.085 86.334C144.549 86.334 144.953 86.228 145.297 86.016C145.645 85.8 145.919 85.49 146.119 85.086L146.941 85.404C146.685 85.968 146.307 86.406 145.807 86.718C145.311 87.026 144.749 87.18 144.121 87.18ZM141.643 84.006V83.268H146.593V84.006H141.643ZM148.399 87V80.52H149.191V82.08L149.035 81.876C149.107 81.684 149.201 81.508 149.317 81.348C149.433 81.184 149.559 81.05 149.695 80.946C149.863 80.798 150.059 80.686 150.283 80.61C150.507 80.53 150.733 80.484 150.961 80.472C151.189 80.456 151.397 80.472 151.585 80.52V81.348C151.349 81.288 151.091 81.274 150.811 81.306C150.531 81.338 150.273 81.45 150.037 81.642C149.821 81.81 149.659 82.012 149.551 82.248C149.443 82.48 149.371 82.728 149.335 82.992C149.299 83.252 149.281 83.51 149.281 83.766V87H148.399ZM155.125 87V78.36H156.013L160.771 85.44V78.36H161.659V87H160.771L156.013 79.914V87H155.125ZM165.194 87.18C164.706 87.18 164.296 87.092 163.964 86.916C163.636 86.74 163.39 86.506 163.226 86.214C163.062 85.922 162.98 85.604 162.98 85.26C162.98 84.908 163.05 84.608 163.19 84.36C163.334 84.108 163.528 83.902 163.772 83.742C164.02 83.582 164.306 83.46 164.63 83.376C164.958 83.296 165.32 83.226 165.716 83.166C166.116 83.102 166.506 83.048 166.886 83.004C167.27 82.956 167.606 82.91 167.894 82.866L167.582 83.058C167.594 82.418 167.47 81.944 167.21 81.636C166.95 81.328 166.498 81.174 165.854 81.174C165.41 81.174 165.034 81.274 164.726 81.474C164.422 81.674 164.208 81.99 164.084 82.422L163.226 82.17C163.374 81.59 163.672 81.14 164.12 80.82C164.568 80.5 165.15 80.34 165.866 80.34C166.458 80.34 166.96 80.452 167.372 80.676C167.788 80.896 168.082 81.216 168.254 81.636C168.334 81.824 168.386 82.034 168.41 82.266C168.434 82.498 168.446 82.734 168.446 82.974V87H167.66V85.374L167.888 85.47C167.668 86.026 167.326 86.45 166.862 86.742C166.398 87.034 165.842 87.18 165.194 87.18ZM165.296 86.418C165.708 86.418 166.068 86.344 166.376 86.196C166.684 86.048 166.932 85.846 167.12 85.59C167.308 85.33 167.43 85.038 167.486 84.714C167.534 84.506 167.56 84.278 167.564 84.03C167.568 83.778 167.57 83.59 167.57 83.466L167.906 83.64C167.606 83.68 167.28 83.72 166.928 83.76C166.58 83.8 166.236 83.846 165.896 83.898C165.56 83.95 165.256 84.012 164.984 84.084C164.8 84.136 164.622 84.21 164.45 84.306C164.278 84.398 164.136 84.522 164.024 84.678C163.916 84.834 163.862 85.028 163.862 85.26C163.862 85.448 163.908 85.63 164 85.806C164.096 85.982 164.248 86.128 164.456 86.244C164.668 86.36 164.948 86.418 165.296 86.418ZM177.736 87L177.742 82.746C177.742 82.246 177.602 81.854 177.322 81.57C177.046 81.282 176.694 81.138 176.266 81.138C176.022 81.138 175.784 81.194 175.552 81.306C175.32 81.418 175.128 81.598 174.976 81.846C174.828 82.094 174.754 82.418 174.754 82.818L174.232 82.668C174.22 82.204 174.31 81.798 174.502 81.45C174.698 81.102 174.966 80.832 175.306 80.64C175.65 80.444 176.038 80.346 176.47 80.346C177.122 80.346 177.644 80.548 178.036 80.952C178.428 81.352 178.624 81.894 178.624 82.578L178.618 87H177.736ZM170.002 87V80.52H170.794V82.116H170.89V87H170.002ZM173.878 87L173.884 82.806C173.884 82.29 173.746 81.884 173.47 81.588C173.198 81.288 172.838 81.138 172.39 81.138C171.942 81.138 171.58 81.292 171.304 81.6C171.028 81.904 170.89 82.31 170.89 82.818L170.362 82.53C170.362 82.114 170.46 81.742 170.656 81.414C170.852 81.082 171.12 80.822 171.46 80.634C171.8 80.442 172.186 80.346 172.618 80.346C173.03 80.346 173.396 80.434 173.716 80.61C174.04 80.786 174.294 81.042 174.478 81.378C174.662 81.714 174.754 82.122 174.754 82.602L174.748 87H173.878ZM182.887 87.18C182.255 87.18 181.707 87.04 181.243 86.76C180.783 86.48 180.425 86.086 180.169 85.578C179.913 85.07 179.785 84.474 179.785 83.79C179.785 83.082 179.911 82.47 180.163 81.954C180.415 81.438 180.769 81.04 181.225 80.76C181.685 80.48 182.227 80.34 182.851 80.34C183.491 80.34 184.037 80.488 184.489 80.784C184.941 81.076 185.283 81.496 185.515 82.044C185.747 82.592 185.853 83.246 185.833 84.006H184.933V83.694C184.917 82.854 184.735 82.22 184.387 81.792C184.043 81.364 183.539 81.15 182.875 81.15C182.179 81.15 181.645 81.376 181.273 81.828C180.905 82.28 180.721 82.924 180.721 83.76C180.721 84.576 180.905 85.21 181.273 85.662C181.645 86.11 182.171 86.334 182.851 86.334C183.315 86.334 183.719 86.228 184.063 86.016C184.411 85.8 184.685 85.49 184.885 85.086L185.707 85.404C185.451 85.968 185.073 86.406 184.573 86.718C184.077 87.026 183.515 87.18 182.887 87.18ZM180.409 84.006V83.268H185.359V84.006H180.409Z" fill="#A3A3A3"/>
<rect x="109.5" y="108.5" width="180" height="31" rx="8.5" fill="white"/>
<rect x="109.5" y="108.5" width="180" height="31" rx="8.5" stroke="#E5E5E5"/>
<path d="M124.316 129.174C123.74 129.174 123.246 129.014 122.834 128.694C122.422 128.374 122.144 127.946 122 127.41L122.882 127.2C122.954 127.516 123.12 127.784 123.38 128.004C123.644 128.22 123.954 128.328 124.31 128.328C124.534 128.328 124.76 128.274 124.988 128.166C125.22 128.058 125.402 127.88 125.534 127.632C125.622 127.46 125.672 127.274 125.684 127.074C125.7 126.87 125.708 126.626 125.708 126.342V120.36H126.596V126.342C126.596 126.582 126.594 126.8 126.59 126.996C126.586 127.188 126.564 127.374 126.524 127.554C126.488 127.73 126.418 127.908 126.314 128.088C126.106 128.452 125.826 128.724 125.474 128.904C125.126 129.084 124.74 129.174 124.316 129.174ZM131.112 129.18C130.468 129.18 129.918 129.034 129.462 128.742C129.006 128.45 128.656 128.046 128.412 127.53C128.168 127.014 128.046 126.422 128.046 125.754C128.046 125.074 128.17 124.478 128.418 123.966C128.666 123.454 129.018 123.056 129.474 122.772C129.934 122.484 130.48 122.34 131.112 122.34C131.76 122.34 132.312 122.486 132.768 122.778C133.228 123.066 133.578 123.468 133.818 123.984C134.062 124.496 134.184 125.086 134.184 125.754C134.184 126.434 134.062 127.032 133.818 127.548C133.574 128.06 133.222 128.46 132.762 128.748C132.302 129.036 131.752 129.18 131.112 129.18ZM131.112 128.334C131.832 128.334 132.368 128.096 132.72 127.62C133.072 127.14 133.248 126.518 133.248 125.754C133.248 124.97 133.07 124.346 132.714 123.882C132.362 123.418 131.828 123.186 131.112 123.186C130.628 123.186 130.228 123.296 129.912 123.516C129.6 123.732 129.366 124.034 129.21 124.422C129.058 124.806 128.982 125.25 128.982 125.754C128.982 126.534 129.162 127.16 129.522 127.632C129.882 128.1 130.412 128.334 131.112 128.334ZM138.418 129.18C137.822 129.18 137.318 129.03 136.906 128.73C136.494 128.426 136.182 128.016 135.97 127.5C135.758 126.98 135.652 126.398 135.652 125.754C135.652 125.098 135.758 124.514 135.97 124.002C136.186 123.486 136.502 123.08 136.918 122.784C137.334 122.488 137.846 122.34 138.454 122.34C139.046 122.34 139.554 122.49 139.978 122.79C140.402 123.09 140.726 123.498 140.95 124.014C141.178 124.53 141.292 125.11 141.292 125.754C141.292 126.402 141.178 126.984 140.95 127.5C140.722 128.016 140.394 128.426 139.966 128.73C139.538 129.03 139.022 129.18 138.418 129.18ZM135.502 129V120.36H136.39V124.122H136.294V129H135.502ZM138.328 128.358C138.78 128.358 139.156 128.244 139.456 128.016C139.756 127.788 139.98 127.478 140.128 127.086C140.28 126.69 140.356 126.246 140.356 125.754C140.356 125.266 140.282 124.826 140.134 124.434C139.986 124.042 139.76 123.732 139.456 123.504C139.156 123.276 138.774 123.162 138.31 123.162C137.858 123.162 137.482 123.272 137.182 123.492C136.886 123.712 136.664 124.018 136.516 124.41C136.368 124.798 136.294 125.246 136.294 125.754C136.294 126.254 136.368 126.702 136.516 127.098C136.664 127.49 136.888 127.798 137.188 128.022C137.488 128.246 137.868 128.358 138.328 128.358ZM145.012 129V120.36H147.634C147.726 120.36 147.882 120.362 148.102 120.366C148.326 120.37 148.54 120.386 148.744 120.414C149.4 120.506 149.948 120.75 150.388 121.146C150.828 121.542 151.158 122.046 151.378 122.658C151.598 123.27 151.708 123.944 151.708 124.68C151.708 125.416 151.598 126.09 151.378 126.702C151.158 127.314 150.828 127.818 150.388 128.214C149.948 128.61 149.4 128.854 148.744 128.946C148.544 128.97 148.33 128.986 148.102 128.994C147.874 128.998 147.718 129 147.634 129H145.012ZM145.924 128.154H147.634C147.798 128.154 147.974 128.15 148.162 128.142C148.354 128.13 148.518 128.11 148.654 128.082C149.158 127.994 149.564 127.79 149.872 127.47C150.184 127.15 150.412 126.75 150.556 126.27C150.7 125.786 150.772 125.256 150.772 124.68C150.772 124.1 150.7 123.568 150.556 123.084C150.412 122.6 150.184 122.2 149.872 121.884C149.56 121.568 149.154 121.366 148.654 121.278C148.518 121.25 148.352 121.232 148.156 121.224C147.964 121.212 147.79 121.206 147.634 121.206H145.924V128.154ZM155.816 129.18C155.184 129.18 154.636 129.04 154.172 128.76C153.712 128.48 153.354 128.086 153.098 127.578C152.842 127.07 152.714 126.474 152.714 125.79C152.714 125.082 152.84 124.47 153.092 123.954C153.344 123.438 153.698 123.04 154.154 122.76C154.614 122.48 155.156 122.34 155.78 122.34C156.42 122.34 156.966 122.488 157.418 122.784C157.87 123.076 158.212 123.496 158.444 124.044C158.676 124.592 158.782 125.246 158.762 126.006H157.862V125.694C157.846 124.854 157.664 124.22 157.316 123.792C156.972 123.364 156.468 123.15 155.804 123.15C155.108 123.15 154.574 123.376 154.202 123.828C153.834 124.28 153.65 124.924 153.65 125.76C153.65 126.576 153.834 127.21 154.202 127.662C154.574 128.11 155.1 128.334 155.78 128.334C156.244 128.334 156.648 128.228 156.992 128.016C157.34 127.8 157.614 127.49 157.814 127.086L158.636 127.404C158.38 127.968 158.002 128.406 157.502 128.718C157.006 129.026 156.444 129.18 155.816 129.18ZM153.338 126.006V125.268H158.288V126.006H153.338ZM162.512 129.174C161.752 129.174 161.126 129.01 160.634 128.682C160.146 128.354 159.846 127.898 159.734 127.314L160.634 127.164C160.73 127.532 160.948 127.826 161.288 128.046C161.632 128.262 162.056 128.37 162.56 128.37C163.052 128.37 163.44 128.268 163.724 128.064C164.008 127.856 164.15 127.574 164.15 127.218C164.15 127.018 164.104 126.856 164.012 126.732C163.924 126.604 163.742 126.486 163.466 126.378C163.19 126.27 162.778 126.142 162.23 125.994C161.642 125.834 161.182 125.674 160.85 125.514C160.518 125.354 160.282 125.17 160.142 124.962C160.002 124.75 159.932 124.492 159.932 124.188C159.932 123.82 160.036 123.498 160.244 123.222C160.452 122.942 160.74 122.726 161.108 122.574C161.476 122.418 161.904 122.34 162.392 122.34C162.88 122.34 163.316 122.42 163.7 122.58C164.088 122.736 164.4 122.956 164.636 123.24C164.872 123.524 165.012 123.854 165.056 124.23L164.156 124.392C164.096 124.012 163.906 123.712 163.586 123.492C163.27 123.268 162.868 123.152 162.38 123.144C161.92 123.132 161.546 123.22 161.258 123.408C160.97 123.592 160.826 123.838 160.826 124.146C160.826 124.318 160.878 124.466 160.982 124.59C161.086 124.71 161.274 124.824 161.546 124.932C161.822 125.04 162.214 125.158 162.722 125.286C163.318 125.438 163.786 125.598 164.126 125.766C164.466 125.934 164.708 126.132 164.852 126.36C164.996 126.588 165.068 126.87 165.068 127.206C165.068 127.818 164.84 128.3 164.384 128.652C163.932 129 163.308 129.174 162.512 129.174ZM169.087 129.18C168.435 129.18 167.883 129.034 167.431 128.742C166.979 128.45 166.635 128.048 166.399 127.536C166.167 127.02 166.047 126.428 166.039 125.76C166.047 125.08 166.171 124.484 166.411 123.972C166.651 123.456 166.997 123.056 167.449 122.772C167.901 122.484 168.449 122.34 169.093 122.34C169.749 122.34 170.319 122.5 170.803 122.82C171.291 123.14 171.625 123.578 171.805 124.134L170.941 124.41C170.789 124.022 170.547 123.722 170.215 123.51C169.887 123.294 169.511 123.186 169.087 123.186C168.611 123.186 168.217 123.296 167.905 123.516C167.593 123.732 167.361 124.034 167.209 124.422C167.057 124.81 166.979 125.256 166.975 125.76C166.983 126.536 167.163 127.16 167.515 127.632C167.867 128.1 168.391 128.334 169.087 128.334C169.527 128.334 169.901 128.234 170.209 128.034C170.521 127.83 170.757 127.534 170.917 127.146L171.805 127.41C171.565 127.986 171.213 128.426 170.749 128.73C170.285 129.03 169.731 129.18 169.087 129.18ZM173.043 129V122.52H173.835V124.08L173.679 123.876C173.751 123.684 173.845 123.508 173.961 123.348C174.077 123.184 174.203 123.05 174.339 122.946C174.507 122.798 174.703 122.686 174.927 122.61C175.151 122.53 175.377 122.484 175.605 122.472C175.833 122.456 176.041 122.472 176.229 122.52V123.348C175.993 123.288 175.735 123.274 175.455 123.306C175.175 123.338 174.917 123.45 174.681 123.642C174.465 123.81 174.303 124.012 174.195 124.248C174.087 124.48 174.015 124.728 173.979 124.992C173.943 125.252 173.925 125.51 173.925 125.766V129H173.043ZM177.487 121.29V120.3H178.369V121.29H177.487ZM177.487 129V122.52H178.369V129H177.487ZM183.078 129.18C182.482 129.18 181.978 129.03 181.566 128.73C181.154 128.426 180.842 128.016 180.63 127.5C180.418 126.98 180.312 126.398 180.312 125.754C180.312 125.098 180.418 124.514 180.63 124.002C180.846 123.486 181.162 123.08 181.578 122.784C181.994 122.488 182.506 122.34 183.114 122.34C183.706 122.34 184.214 122.49 184.638 122.79C185.062 123.09 185.386 123.498 185.61 124.014C185.838 124.53 185.952 125.11 185.952 125.754C185.952 126.402 185.838 126.984 185.61 127.5C185.382 128.016 185.054 128.426 184.626 128.73C184.198 129.03 183.682 129.18 183.078 129.18ZM180.162 131.88V122.52H180.954V127.398H181.05V131.88H180.162ZM182.988 128.358C183.44 128.358 183.816 128.244 184.116 128.016C184.416 127.788 184.64 127.478 184.788 127.086C184.94 126.69 185.016 126.246 185.016 125.754C185.016 125.266 184.942 124.826 184.794 124.434C184.646 124.042 184.42 123.732 184.116 123.504C183.816 123.276 183.434 123.162 182.97 123.162C182.518 123.162 182.142 123.272 181.842 123.492C181.546 123.712 181.324 124.018 181.176 124.41C181.028 124.798 180.954 125.246 180.954 125.754C180.954 126.254 181.028 126.702 181.176 127.098C181.324 127.49 181.548 127.798 181.848 128.022C182.148 128.246 182.528 128.358 182.988 128.358ZM190.798 129C190.434 129.076 190.074 129.106 189.718 129.09C189.366 129.074 189.05 128.998 188.77 128.862C188.494 128.726 188.284 128.514 188.14 128.226C188.024 127.986 187.96 127.744 187.948 127.5C187.94 127.252 187.936 126.97 187.936 126.654V120.72H188.812V126.618C188.812 126.89 188.814 127.118 188.818 127.302C188.826 127.482 188.868 127.642 188.944 127.782C189.088 128.05 189.316 128.21 189.628 128.262C189.944 128.314 190.334 128.302 190.798 128.226V129ZM186.55 123.276V122.52H190.798V123.276H186.55ZM192.194 121.29V120.3H193.076V121.29H192.194ZM192.194 129V122.52H193.076V129H192.194ZM197.581 129.18C196.937 129.18 196.387 129.034 195.931 128.742C195.475 128.45 195.125 128.046 194.881 127.53C194.637 127.014 194.515 126.422 194.515 125.754C194.515 125.074 194.639 124.478 194.887 123.966C195.135 123.454 195.487 123.056 195.943 122.772C196.403 122.484 196.949 122.34 197.581 122.34C198.229 122.34 198.781 122.486 199.237 122.778C199.697 123.066 200.047 123.468 200.287 123.984C200.531 124.496 200.653 125.086 200.653 125.754C200.653 126.434 200.531 127.032 200.287 127.548C200.043 128.06 199.691 128.46 199.231 128.748C198.771 129.036 198.221 129.18 197.581 129.18ZM197.581 128.334C198.301 128.334 198.837 128.096 199.189 127.62C199.541 127.14 199.717 126.518 199.717 125.754C199.717 124.97 199.539 124.346 199.183 123.882C198.831 123.418 198.297 123.186 197.581 123.186C197.097 123.186 196.697 123.296 196.381 123.516C196.069 123.732 195.835 124.034 195.679 124.422C195.527 124.806 195.451 125.25 195.451 125.754C195.451 126.534 195.631 127.16 195.991 127.632C196.351 128.1 196.881 128.334 197.581 128.334ZM206.657 129V125.694C206.657 125.334 206.623 125.004 206.555 124.704C206.487 124.4 206.377 124.136 206.225 123.912C206.077 123.684 205.883 123.508 205.643 123.384C205.407 123.26 205.119 123.198 204.779 123.198C204.467 123.198 204.191 123.252 203.951 123.36C203.715 123.468 203.515 123.624 203.351 123.828C203.191 124.028 203.069 124.272 202.985 124.56C202.901 124.848 202.859 125.176 202.859 125.544L202.235 125.406C202.235 124.742 202.351 124.184 202.583 123.732C202.815 123.28 203.135 122.938 203.543 122.706C203.951 122.474 204.419 122.358 204.947 122.358C205.335 122.358 205.673 122.418 205.961 122.538C206.253 122.658 206.499 122.82 206.699 123.024C206.903 123.228 207.067 123.462 207.191 123.726C207.315 123.986 207.405 124.264 207.461 124.56C207.517 124.852 207.545 125.144 207.545 125.436V129H206.657ZM201.971 129V122.52H202.769V124.116H202.859V129H201.971Z" fill="#A3A3A3"/>
</g>
<g filter="url(#filter1_ddddd_222_1757)">
<rect x="90" y="165" width="219" height="56" rx="16" fill="#0B84FE" shape-rendering="crispEdges"/>
<rect x="90.5" y="165.5" width="218" height="55" rx="15.5" stroke="#F5F5F5" shape-rendering="crispEdges"/>
<path d="M119.667 195.333L116.083 191.75C115.778 191.444 115.389 191.292 114.917 191.292C114.444 191.292 114.056 191.444 113.75 191.75C113.444 192.056 113.292 192.444 113.292 192.917C113.292 193.389 113.444 193.778 113.75 194.083L118.5 198.833C118.833 199.167 119.222 199.333 119.667 199.333C120.111 199.333 120.5 199.167 120.833 198.833L130.25 189.417C130.556 189.111 130.708 188.722 130.708 188.25C130.708 187.778 130.556 187.389 130.25 187.083C129.944 186.778 129.556 186.625 129.083 186.625C128.611 186.625 128.222 186.778 127.917 187.083L119.667 195.333ZM110.333 208C109.417 208 108.632 207.674 107.98 207.022C107.328 206.369 107.001 205.584 107 204.667V181.333C107 180.417 107.327 179.632 107.98 178.98C108.633 178.328 109.418 178.001 110.333 178H133.667C134.583 178 135.368 178.327 136.022 178.98C136.675 179.633 137.001 180.418 137 181.333V204.667C137 205.583 136.674 206.368 136.022 207.022C135.369 207.675 134.584 208.001 133.667 208H110.333Z" fill="#FFD643"/>
<path d="M158.446 189.18C157.582 189.18 156.846 188.992 156.238 188.616C155.63 188.236 155.164 187.708 154.84 187.032C154.52 186.356 154.36 185.572 154.36 184.68C154.36 183.788 154.52 183.004 154.84 182.328C155.164 181.652 155.63 181.126 156.238 180.75C156.846 180.37 157.582 180.18 158.446 180.18C159.442 180.18 160.266 180.432 160.918 180.936C161.574 181.44 162.03 182.118 162.286 182.97L161.014 183.312C160.846 182.708 160.546 182.234 160.114 181.89C159.686 181.546 159.13 181.374 158.446 181.374C157.834 181.374 157.324 181.512 156.916 181.788C156.508 182.064 156.2 182.45 155.992 182.946C155.788 183.442 155.686 184.02 155.686 184.68C155.682 185.34 155.782 185.918 155.986 186.414C156.194 186.91 156.502 187.296 156.91 187.572C157.322 187.848 157.834 187.986 158.446 187.986C159.13 187.986 159.686 187.814 160.114 187.47C160.546 187.122 160.846 186.648 161.014 186.048L162.286 186.39C162.03 187.242 161.574 187.92 160.918 188.424C160.266 188.928 159.442 189.18 158.446 189.18ZM166.42 189.18C165.772 189.18 165.21 189.034 164.734 188.742C164.258 188.45 163.89 188.048 163.63 187.536C163.374 187.02 163.246 186.426 163.246 185.754C163.246 185.078 163.378 184.484 163.642 183.972C163.906 183.456 164.276 183.056 164.752 182.772C165.228 182.484 165.784 182.34 166.42 182.34C167.068 182.34 167.63 182.486 168.106 182.778C168.582 183.07 168.95 183.472 169.21 183.984C169.47 184.496 169.6 185.086 169.6 185.754C169.6 186.43 169.468 187.026 169.204 187.542C168.944 188.054 168.576 188.456 168.1 188.748C167.624 189.036 167.064 189.18 166.42 189.18ZM166.42 187.998C167.04 187.998 167.502 187.79 167.806 187.374C168.114 186.954 168.268 186.414 168.268 185.754C168.268 185.078 168.112 184.538 167.8 184.134C167.492 183.726 167.032 183.522 166.42 183.522C166 183.522 165.654 183.618 165.382 183.81C165.11 183.998 164.908 184.26 164.776 184.596C164.644 184.928 164.578 185.314 164.578 185.754C164.578 186.434 164.734 186.978 165.046 187.386C165.358 187.794 165.816 187.998 166.42 187.998ZM178.682 189L178.688 184.962C178.688 184.494 178.568 184.13 178.328 183.87C178.088 183.606 177.772 183.474 177.38 183.474C177.14 183.474 176.92 183.53 176.72 183.642C176.524 183.75 176.364 183.914 176.24 184.134C176.12 184.35 176.06 184.622 176.06 184.95L175.454 184.644C175.446 184.188 175.542 183.788 175.742 183.444C175.946 183.1 176.222 182.834 176.57 182.646C176.918 182.454 177.308 182.358 177.74 182.358C178.44 182.358 178.982 182.568 179.366 182.988C179.75 183.408 179.942 183.966 179.942 184.662L179.936 189H178.682ZM170.912 189V182.52H172.028V184.392H172.172V189H170.912ZM174.8 189L174.806 184.986C174.806 184.514 174.686 184.144 174.446 183.876C174.21 183.608 173.892 183.474 173.492 183.474C173.096 183.474 172.776 183.61 172.532 183.882C172.292 184.154 172.172 184.51 172.172 184.95L171.572 184.566C171.572 184.142 171.674 183.764 171.878 183.432C172.082 183.1 172.358 182.838 172.706 182.646C173.054 182.454 173.448 182.358 173.888 182.358C174.348 182.358 174.74 182.456 175.064 182.652C175.388 182.844 175.634 183.114 175.802 183.462C175.974 183.81 176.06 184.214 176.06 184.674L176.054 189H174.8ZM184.542 189.18C183.922 189.18 183.402 189.03 182.982 188.73C182.562 188.426 182.244 188.016 182.028 187.5C181.812 186.984 181.704 186.402 181.704 185.754C181.704 185.106 181.81 184.524 182.022 184.008C182.238 183.492 182.554 183.086 182.97 182.79C183.39 182.49 183.906 182.34 184.518 182.34C185.126 182.34 185.65 182.49 186.09 182.79C186.534 183.086 186.876 183.492 187.116 184.008C187.356 184.52 187.476 185.102 187.476 185.754C187.476 186.402 187.356 186.986 187.116 187.506C186.88 188.022 186.542 188.43 186.102 188.73C185.666 189.03 185.146 189.18 184.542 189.18ZM181.494 191.88V182.52H182.61V187.182H182.754V191.88H181.494ZM184.368 188.046C184.768 188.046 185.098 187.944 185.358 187.74C185.622 187.536 185.818 187.262 185.946 186.918C186.078 186.57 186.144 186.182 186.144 185.754C186.144 185.33 186.078 184.946 185.946 184.602C185.818 184.258 185.62 183.984 185.352 183.78C185.084 183.576 184.742 183.474 184.326 183.474C183.934 183.474 183.61 183.57 183.354 183.762C183.102 183.954 182.914 184.222 182.79 184.566C182.67 184.91 182.61 185.306 182.61 185.754C182.61 186.202 182.67 186.598 182.79 186.942C182.91 187.286 183.1 187.556 183.36 187.752C183.62 187.948 183.956 188.046 184.368 188.046ZM188.921 189V180.18H190.175V189H188.921ZM194.851 189.18C194.207 189.18 193.641 189.04 193.153 188.76C192.669 188.476 192.291 188.082 192.019 187.578C191.751 187.07 191.617 186.482 191.617 185.814C191.617 185.106 191.749 184.492 192.013 183.972C192.281 183.452 192.653 183.05 193.129 182.766C193.605 182.482 194.159 182.34 194.791 182.34C195.451 182.34 196.013 182.494 196.477 182.802C196.941 183.106 197.287 183.54 197.515 184.104C197.747 184.668 197.839 185.338 197.791 186.114H196.537V185.658C196.529 184.906 196.385 184.35 196.105 183.99C195.829 183.63 195.407 183.45 194.839 183.45C194.211 183.45 193.739 183.648 193.423 184.044C193.107 184.44 192.949 185.012 192.949 185.76C192.949 186.472 193.107 187.024 193.423 187.416C193.739 187.804 194.195 187.998 194.791 187.998C195.183 187.998 195.521 187.91 195.805 187.734C196.093 187.554 196.317 187.298 196.477 186.966L197.707 187.356C197.455 187.936 197.073 188.386 196.561 188.706C196.049 189.022 195.479 189.18 194.851 189.18ZM192.541 186.114V185.136H197.167V186.114H192.541ZM202.845 189C202.437 189.08 202.037 189.114 201.645 189.102C201.253 189.09 200.903 189.014 200.595 188.874C200.287 188.734 200.055 188.514 199.899 188.214C199.759 187.946 199.683 187.674 199.671 187.398C199.663 187.118 199.659 186.802 199.659 186.45V180.72H200.919V186.39C200.919 186.65 200.921 186.876 200.925 187.068C200.933 187.26 200.975 187.422 201.051 187.554C201.195 187.802 201.423 187.944 201.735 187.98C202.051 188.012 202.421 187.998 202.845 187.938V189ZM198.417 183.528V182.52H202.845V183.528H198.417ZM206.792 189.18C206.148 189.18 205.582 189.04 205.094 188.76C204.61 188.476 204.232 188.082 203.96 187.578C203.692 187.07 203.558 186.482 203.558 185.814C203.558 185.106 203.69 184.492 203.954 183.972C204.222 183.452 204.594 183.05 205.07 182.766C205.546 182.482 206.1 182.34 206.732 182.34C207.392 182.34 207.954 182.494 208.418 182.802C208.882 183.106 209.228 183.54 209.456 184.104C209.688 184.668 209.78 185.338 209.732 186.114H208.478V185.658C208.47 184.906 208.326 184.35 208.046 183.99C207.77 183.63 207.348 183.45 206.78 183.45C206.152 183.45 205.68 183.648 205.364 184.044C205.048 184.44 204.89 185.012 204.89 185.76C204.89 186.472 205.048 187.024 205.364 187.416C205.68 187.804 206.136 187.998 206.732 187.998C207.124 187.998 207.462 187.91 207.746 187.734C208.034 187.554 208.258 187.298 208.418 186.966L209.648 187.356C209.396 187.936 209.014 188.386 208.502 188.706C207.99 189.022 207.42 189.18 206.792 189.18ZM204.482 186.114V185.136H209.108V186.114H204.482ZM213.481 189V180.36H216.187C216.267 180.36 216.415 180.362 216.631 180.366C216.851 180.37 217.061 180.386 217.261 180.414C217.937 180.498 218.505 180.74 218.965 181.14C219.429 181.54 219.779 182.048 220.015 182.664C220.251 183.276 220.369 183.948 220.369 184.68C220.369 185.416 220.251 186.092 220.015 186.708C219.779 187.32 219.429 187.826 218.965 188.226C218.505 188.622 217.937 188.862 217.261 188.946C217.061 188.974 216.851 188.99 216.631 188.994C216.415 188.998 216.267 189 216.187 189H213.481ZM214.765 187.806H216.187C216.323 187.806 216.485 187.802 216.673 187.794C216.861 187.786 217.027 187.77 217.171 187.746C217.611 187.662 217.967 187.472 218.239 187.176C218.515 186.876 218.717 186.508 218.845 186.072C218.973 185.636 219.037 185.172 219.037 184.68C219.037 184.172 218.971 183.702 218.839 183.27C218.707 182.834 218.503 182.47 218.227 182.178C217.955 181.882 217.603 181.694 217.171 181.614C217.027 181.586 216.859 181.57 216.667 181.566C216.479 181.558 216.319 181.554 216.187 181.554H214.765V187.806ZM224.64 189.18C223.996 189.18 223.43 189.04 222.942 188.76C222.458 188.476 222.08 188.082 221.808 187.578C221.54 187.07 221.406 186.482 221.406 185.814C221.406 185.106 221.538 184.492 221.802 183.972C222.07 183.452 222.442 183.05 222.918 182.766C223.394 182.482 223.948 182.34 224.58 182.34C225.24 182.34 225.802 182.494 226.266 182.802C226.73 183.106 227.076 183.54 227.304 184.104C227.536 184.668 227.628 185.338 227.58 186.114H226.326V185.658C226.318 184.906 226.174 184.35 225.894 183.99C225.618 183.63 225.196 183.45 224.628 183.45C224 183.45 223.528 183.648 223.212 184.044C222.896 184.44 222.738 185.012 222.738 185.76C222.738 186.472 222.896 187.024 223.212 187.416C223.528 187.804 223.984 187.998 224.58 187.998C224.972 187.998 225.31 187.91 225.594 187.734C225.882 187.554 226.106 187.298 226.266 186.966L227.496 187.356C227.244 187.936 226.862 188.386 226.35 188.706C225.838 189.022 225.268 189.18 224.64 189.18ZM222.33 186.114V185.136H226.956V186.114H222.33ZM232.634 189C232.226 189.08 231.826 189.114 231.434 189.102C231.042 189.09 230.692 189.014 230.384 188.874C230.076 188.734 229.844 188.514 229.688 188.214C229.548 187.946 229.472 187.674 229.46 187.398C229.452 187.118 229.448 186.802 229.448 186.45V180.72H230.708V186.39C230.708 186.65 230.71 186.876 230.714 187.068C230.722 187.26 230.764 187.422 230.84 187.554C230.984 187.802 231.212 187.944 231.524 187.98C231.84 188.012 232.21 187.998 232.634 187.938V189ZM228.206 183.528V182.52H232.634V183.528H228.206ZM235.83 189.18C235.35 189.18 234.948 189.092 234.624 188.916C234.3 188.736 234.054 188.5 233.886 188.208C233.722 187.912 233.64 187.588 233.64 187.236C233.64 186.908 233.698 186.62 233.814 186.372C233.93 186.124 234.102 185.914 234.33 185.742C234.558 185.566 234.838 185.424 235.17 185.316C235.458 185.232 235.784 185.158 236.148 185.094C236.512 185.03 236.894 184.97 237.294 184.914C237.698 184.858 238.098 184.802 238.494 184.746L238.038 184.998C238.046 184.49 237.938 184.114 237.714 183.87C237.494 183.622 237.114 183.498 236.574 183.498C236.234 183.498 235.922 183.578 235.638 183.738C235.354 183.894 235.156 184.154 235.044 184.518L233.874 184.158C234.034 183.602 234.338 183.16 234.786 182.832C235.238 182.504 235.838 182.34 236.586 182.34C237.166 182.34 237.67 182.44 238.098 182.64C238.53 182.836 238.846 183.148 239.046 183.576C239.15 183.788 239.214 184.012 239.238 184.248C239.262 184.484 239.274 184.738 239.274 185.01V189H238.164V187.518L238.38 187.71C238.112 188.206 237.77 188.576 237.354 188.82C236.942 189.06 236.434 189.18 235.83 189.18ZM236.052 188.154C236.408 188.154 236.714 188.092 236.97 187.968C237.226 187.84 237.432 187.678 237.588 187.482C237.744 187.286 237.846 187.082 237.894 186.87C237.962 186.678 238 186.462 238.008 186.222C238.02 185.982 238.026 185.79 238.026 185.646L238.434 185.796C238.038 185.856 237.678 185.91 237.354 185.958C237.03 186.006 236.736 186.054 236.472 186.102C236.212 186.146 235.98 186.2 235.776 186.264C235.604 186.324 235.45 186.396 235.314 186.48C235.182 186.564 235.076 186.666 234.996 186.786C234.92 186.906 234.882 187.052 234.882 187.224C234.882 187.392 234.924 187.548 235.008 187.692C235.092 187.832 235.22 187.944 235.392 188.028C235.564 188.112 235.784 188.154 236.052 188.154ZM240.952 181.458V180.24H242.206V181.458H240.952ZM240.952 189V182.52H242.206V189H240.952ZM244.128 189V180.18H245.382V189H244.128ZM249.662 189.174C248.874 189.174 248.232 189 247.736 188.652C247.24 188.304 246.936 187.814 246.824 187.182L248.108 186.984C248.188 187.32 248.372 187.586 248.66 187.782C248.952 187.974 249.314 188.07 249.746 188.07C250.138 188.07 250.444 187.99 250.664 187.83C250.888 187.67 251 187.45 251 187.17C251 187.006 250.96 186.874 250.88 186.774C250.804 186.67 250.642 186.572 250.394 186.48C250.146 186.388 249.768 186.274 249.26 186.138C248.704 185.994 248.262 185.84 247.934 185.676C247.61 185.508 247.378 185.314 247.238 185.094C247.102 184.87 247.034 184.6 247.034 184.284C247.034 183.892 247.138 183.55 247.346 183.258C247.554 182.966 247.846 182.74 248.222 182.58C248.602 182.42 249.046 182.34 249.554 182.34C250.05 182.34 250.492 182.418 250.88 182.574C251.268 182.73 251.582 182.952 251.822 183.24C252.062 183.524 252.206 183.858 252.254 184.242L250.97 184.476C250.926 184.164 250.78 183.918 250.532 183.738C250.284 183.558 249.962 183.46 249.566 183.444C249.186 183.428 248.878 183.492 248.642 183.636C248.406 183.776 248.288 183.97 248.288 184.218C248.288 184.362 248.332 184.484 248.42 184.584C248.512 184.684 248.688 184.78 248.948 184.872C249.208 184.964 249.592 185.074 250.1 185.202C250.644 185.342 251.076 185.498 251.396 185.67C251.716 185.838 251.944 186.04 252.08 186.276C252.22 186.508 252.29 186.79 252.29 187.122C252.29 187.762 252.056 188.264 251.588 188.628C251.124 188.992 250.482 189.174 249.662 189.174Z" fill="#FAFAFA"/>
<path opacity="0.6" d="M157.84 207.18C157.236 207.18 156.692 207.08 156.208 206.88C155.728 206.676 155.33 206.388 155.014 206.016C154.702 205.644 154.498 205.202 154.402 204.69L155.302 204.54C155.446 205.1 155.75 205.54 156.214 205.86C156.678 206.176 157.232 206.334 157.876 206.334C158.3 206.334 158.68 206.268 159.016 206.136C159.352 206 159.616 205.808 159.808 205.56C160 205.312 160.096 205.018 160.096 204.678C160.096 204.454 160.056 204.264 159.976 204.108C159.896 203.948 159.79 203.816 159.658 203.712C159.526 203.608 159.382 203.522 159.226 203.454C159.07 203.382 158.918 203.324 158.77 203.28L156.58 202.626C156.316 202.55 156.072 202.454 155.848 202.338C155.624 202.218 155.428 202.076 155.26 201.912C155.096 201.744 154.968 201.548 154.876 201.324C154.784 201.1 154.738 200.844 154.738 200.556C154.738 200.068 154.866 199.646 155.122 199.29C155.378 198.934 155.728 198.66 156.172 198.468C156.616 198.276 157.122 198.182 157.69 198.186C158.266 198.186 158.78 198.288 159.232 198.492C159.688 198.696 160.064 198.988 160.36 199.368C160.656 199.744 160.852 200.19 160.948 200.706L160.024 200.874C159.964 200.498 159.826 200.172 159.61 199.896C159.394 199.62 159.118 199.408 158.782 199.26C158.45 199.108 158.084 199.03 157.684 199.026C157.296 199.026 156.95 199.092 156.646 199.224C156.346 199.352 156.108 199.528 155.932 199.752C155.756 199.976 155.668 200.232 155.668 200.52C155.668 200.812 155.748 201.046 155.908 201.222C156.072 201.398 156.272 201.536 156.508 201.636C156.748 201.736 156.98 201.818 157.204 201.882L158.896 202.38C159.072 202.428 159.278 202.498 159.514 202.59C159.754 202.678 159.986 202.806 160.21 202.974C160.438 203.138 160.626 203.354 160.774 203.622C160.922 203.89 160.996 204.23 160.996 204.642C160.996 205.042 160.916 205.4 160.756 205.716C160.6 206.032 160.378 206.298 160.09 206.514C159.806 206.73 159.472 206.894 159.088 207.006C158.708 207.122 158.292 207.18 157.84 207.18ZM164.713 207.162C164.325 207.162 163.985 207.102 163.693 206.982C163.405 206.862 163.159 206.7 162.955 206.496C162.755 206.292 162.593 206.06 162.469 205.8C162.345 205.536 162.255 205.258 162.199 204.966C162.143 204.67 162.115 204.376 162.115 204.084V200.52H163.003V203.826C163.003 204.182 163.037 204.512 163.105 204.816C163.173 205.12 163.281 205.386 163.429 205.614C163.581 205.838 163.775 206.012 164.011 206.136C164.251 206.26 164.541 206.322 164.881 206.322C165.193 206.322 165.467 206.268 165.703 206.16C165.943 206.052 166.143 205.898 166.303 205.698C166.467 205.494 166.591 205.248 166.675 204.96C166.759 204.668 166.801 204.34 166.801 203.976L167.425 204.114C167.425 204.778 167.309 205.336 167.077 205.788C166.845 206.24 166.525 206.582 166.117 206.814C165.709 207.046 165.241 207.162 164.713 207.162ZM166.891 207V205.404H166.801V200.52H167.683V207H166.891ZM172.27 207.18C171.674 207.18 171.17 207.03 170.758 206.73C170.346 206.426 170.034 206.016 169.822 205.5C169.61 204.98 169.504 204.398 169.504 203.754C169.504 203.098 169.61 202.514 169.822 202.002C170.038 201.486 170.354 201.08 170.77 200.784C171.186 200.488 171.698 200.34 172.306 200.34C172.898 200.34 173.406 200.49 173.83 200.79C174.254 201.09 174.578 201.498 174.802 202.014C175.03 202.53 175.144 203.11 175.144 203.754C175.144 204.402 175.03 204.984 174.802 205.5C174.574 206.016 174.246 206.426 173.818 206.73C173.39 207.03 172.874 207.18 172.27 207.18ZM169.354 207V198.36H170.242V202.122H170.146V207H169.354ZM172.18 206.358C172.632 206.358 173.008 206.244 173.308 206.016C173.608 205.788 173.832 205.478 173.98 205.086C174.132 204.69 174.208 204.246 174.208 203.754C174.208 203.266 174.134 202.826 173.986 202.434C173.838 202.042 173.612 201.732 173.308 201.504C173.008 201.276 172.626 201.162 172.162 201.162C171.71 201.162 171.334 201.272 171.034 201.492C170.738 201.712 170.516 202.018 170.368 202.41C170.22 202.798 170.146 203.246 170.146 203.754C170.146 204.254 170.22 204.702 170.368 205.098C170.516 205.49 170.74 205.798 171.04 206.022C171.34 206.246 171.72 206.358 172.18 206.358ZM184.189 207L184.195 202.746C184.195 202.246 184.055 201.854 183.775 201.57C183.499 201.282 183.147 201.138 182.719 201.138C182.475 201.138 182.237 201.194 182.005 201.306C181.773 201.418 181.581 201.598 181.429 201.846C181.281 202.094 181.207 202.418 181.207 202.818L180.685 202.668C180.673 202.204 180.763 201.798 180.955 201.45C181.151 201.102 181.419 200.832 181.759 200.64C182.103 200.444 182.491 200.346 182.923 200.346C183.575 200.346 184.097 200.548 184.489 200.952C184.881 201.352 185.077 201.894 185.077 202.578L185.071 207H184.189ZM176.455 207V200.52H177.247V202.116H177.343V207H176.455ZM180.331 207L180.337 202.806C180.337 202.29 180.199 201.884 179.923 201.588C179.651 201.288 179.291 201.138 178.843 201.138C178.395 201.138 178.033 201.292 177.757 201.6C177.481 201.904 177.343 202.31 177.343 202.818L176.815 202.53C176.815 202.114 176.913 201.742 177.109 201.414C177.305 201.082 177.573 200.822 177.913 200.634C178.253 200.442 178.639 200.346 179.071 200.346C179.483 200.346 179.849 200.434 180.169 200.61C180.493 200.786 180.747 201.042 180.931 201.378C181.115 201.714 181.207 202.122 181.207 202.602L181.201 207H180.331ZM186.753 199.29V198.3H187.635V199.29H186.753ZM186.753 207V200.52H187.635V207H186.753ZM192.962 207C192.598 207.076 192.238 207.106 191.882 207.09C191.53 207.074 191.214 206.998 190.934 206.862C190.658 206.726 190.448 206.514 190.304 206.226C190.188 205.986 190.124 205.744 190.112 205.5C190.104 205.252 190.1 204.97 190.1 204.654V198.72H190.976V204.618C190.976 204.89 190.978 205.118 190.982 205.302C190.99 205.482 191.032 205.642 191.108 205.782C191.252 206.05 191.48 206.21 191.792 206.262C192.108 206.314 192.498 206.302 192.962 206.226V207ZM188.714 201.276V200.52H192.962V201.276H188.714ZM197.048 207C196.684 207.076 196.324 207.106 195.968 207.09C195.616 207.074 195.3 206.998 195.02 206.862C194.744 206.726 194.534 206.514 194.39 206.226C194.274 205.986 194.21 205.744 194.198 205.5C194.19 205.252 194.186 204.97 194.186 204.654V198.72H195.062V204.618C195.062 204.89 195.064 205.118 195.068 205.302C195.076 205.482 195.118 205.642 195.194 205.782C195.338 206.05 195.566 206.21 195.878 206.262C196.194 206.314 196.584 206.302 197.048 206.226V207ZM192.8 201.276V200.52H197.048V201.276H192.8ZM201.07 207.18C200.438 207.18 199.89 207.04 199.426 206.76C198.966 206.48 198.608 206.086 198.352 205.578C198.096 205.07 197.968 204.474 197.968 203.79C197.968 203.082 198.094 202.47 198.346 201.954C198.598 201.438 198.952 201.04 199.408 200.76C199.868 200.48 200.41 200.34 201.034 200.34C201.674 200.34 202.22 200.488 202.672 200.784C203.124 201.076 203.466 201.496 203.698 202.044C203.93 202.592 204.036 203.246 204.016 204.006H203.116V203.694C203.1 202.854 202.918 202.22 202.57 201.792C202.226 201.364 201.722 201.15 201.058 201.15C200.362 201.15 199.828 201.376 199.456 201.828C199.088 202.28 198.904 202.924 198.904 203.76C198.904 204.576 199.088 205.21 199.456 205.662C199.828 206.11 200.354 206.334 201.034 206.334C201.498 206.334 201.902 206.228 202.246 206.016C202.594 205.8 202.868 205.49 203.068 205.086L203.89 205.404C203.634 205.968 203.256 206.406 202.756 206.718C202.26 207.026 201.698 207.18 201.07 207.18ZM198.592 204.006V203.268H203.542V204.006H198.592ZM207.862 207.18C207.258 207.18 206.742 207.03 206.314 206.73C205.886 206.426 205.558 206.016 205.33 205.5C205.102 204.984 204.988 204.402 204.988 203.754C204.988 203.11 205.1 202.53 205.324 202.014C205.552 201.498 205.878 201.09 206.302 200.79C206.726 200.49 207.234 200.34 207.826 200.34C208.434 200.34 208.946 200.488 209.362 200.784C209.778 201.08 210.092 201.486 210.304 202.002C210.52 202.514 210.628 203.098 210.628 203.754C210.628 204.398 210.522 204.98 210.31 205.5C210.098 206.016 209.786 206.426 209.374 206.73C208.962 207.03 208.458 207.18 207.862 207.18ZM207.952 206.358C208.412 206.358 208.792 206.246 209.092 206.022C209.392 205.798 209.616 205.49 209.764 205.098C209.912 204.702 209.986 204.254 209.986 203.754C209.986 203.246 209.912 202.798 209.764 202.41C209.616 202.018 209.392 201.712 209.092 201.492C208.796 201.272 208.422 201.162 207.97 201.162C207.506 201.162 207.122 201.276 206.818 201.504C206.514 201.732 206.288 202.042 206.14 202.434C205.996 202.826 205.924 203.266 205.924 203.754C205.924 204.246 205.998 204.69 206.146 205.086C206.298 205.478 206.524 205.788 206.824 206.016C207.124 206.244 207.5 206.358 207.952 206.358ZM209.986 207V202.122H209.89V198.36H210.778V207H209.986Z" fill="#FAFAFA"/>
</g>
</g>
<defs>
<filter id="filter0_ddddd_222_1757" x="82" y="39" width="235" height="128" filterUnits="userSpaceOnUse" color-interpolation-filters="sRGB">
<feFlood flood-opacity="0" result="BackgroundImageFix"/>
<feColorMatrix in="SourceAlpha" type="matrix" values="0 0 0 0 0 0 0 0 0 0 0 0 0 0 0 0 0 0 127 0" result="hardAlpha"/>
<feMorphology radius="8" operator="erode" in="SourceAlpha" result="effect1_dropShadow_222_1757"/>
<feOffset/>
<feGaussianBlur stdDeviation="8"/>
<feComposite in2="hardAlpha" operator="out"/>
<feColorMatrix type="matrix" values="0 0 0 0 0.164706 0 0 0 0 0.2 0 0 0 0 0.27451 0 0 0 0.04 0"/>
<feBlend mode="normal" in2="BackgroundImageFix" result="effect1_dropShadow_222_1757"/>
<feColorMatrix in="SourceAlpha" type="matrix" values="0 0 0 0 0 0 0 0 0 0 0 0 0 0 0 0 0 0 127 0" result="hardAlpha"/>
<feMorphology radius="2.5" operator="erode" in="SourceAlpha" result="effect2_dropShadow_222_1757"/>
<feOffset dy="2"/>
<feGaussianBlur stdDeviation="2.5"/>
<feComposite in2="hardAlpha" operator="out"/>
<feColorMatrix type="matrix" values="0 0 0 0 0.164706 0 0 0 0 0.2 0 0 0 0 0.27451 0 0 0 0.02 0"/>
<feBlend mode="normal" in2="effect1_dropShadow_222_1757" result="effect2_dropShadow_222_1757"/>
<feColorMatrix in="SourceAlpha" type="matrix" values="0 0 0 0 0 0 0 0 0 0 0 0 0 0 0 0 0 0 127 0" result="hardAlpha"/>
<feMorphology radius="1.5" operator="erode" in="SourceAlpha" result="effect3_dropShadow_222_1757"/>
<feOffset dy="3"/>
<feGaussianBlur stdDeviation="1.5"/>
<feComposite in2="hardAlpha" operator="out"/>
<feColorMatrix type="matrix" values="0 0 0 0 0.164706 0 0 0 0 0.2 0 0 0 0 0.27451 0 0 0 0.05 0"/>
<feBlend mode="normal" in2="effect2_dropShadow_222_1757" result="effect3_dropShadow_222_1757"/>
<feColorMatrix in="SourceAlpha" type="matrix" values="0 0 0 0 0 0 0 0 0 0 0 0 0 0 0 0 0 0 127 0" result="hardAlpha"/>
<feMorphology radius="0.5" operator="erode" in="SourceAlpha" result="effect4_dropShadow_222_1757"/>
<feOffset dy="1"/>
<feGaussianBlur stdDeviation="0.5"/>
<feComposite in2="hardAlpha" operator="out"/>
<feColorMatrix type="matrix" values="0 0 0 0 0.164706 0 0 0 0 0.2 0 0 0 0 0.27451 0 0 0 0.03 0"/>
<feBlend mode="normal" in2="effect3_dropShadow_222_1757" result="effect4_dropShadow_222_1757"/>
<feColorMatrix in="SourceAlpha" type="matrix" values="0 0 0 0 0 0 0 0 0 0 0 0 0 0 0 0 0 0 127 0" result="hardAlpha"/>
<feMorphology radius="1" operator="dilate" in="SourceAlpha" result="effect5_dropShadow_222_1757"/>
<feOffset/>
<feComposite in2="hardAlpha" operator="out"/>
<feColorMatrix type="matrix" values="0 0 0 0 0.054902 0 0 0 0 0.247059 0 0 0 0 0.494118 0 0 0 0.06 0"/>
<feBlend mode="normal" in2="effect4_dropShadow_222_1757" result="effect5_dropShadow_222_1757"/>
<feBlend mode="normal" in="SourceGraphic" in2="effect5_dropShadow_222_1757" result="shape"/>
</filter>
<filter id="filter1_ddddd_222_1757" x="82" y="157" width="235" height="72" filterUnits="userSpaceOnUse" color-interpolation-filters="sRGB">
<feFlood flood-opacity="0" result="BackgroundImageFix"/>
<feColorMatrix in="SourceAlpha" type="matrix" values="0 0 0 0 0 0 0 0 0 0 0 0 0 0 0 0 0 0 127 0" result="hardAlpha"/>
<feMorphology radius="8" operator="erode" in="SourceAlpha" result="effect1_dropShadow_222_1757"/>
<feOffset/>
<feGaussianBlur stdDeviation="8"/>
<feComposite in2="hardAlpha" operator="out"/>
<feColorMatrix type="matrix" values="0 0 0 0 0.164706 0 0 0 0 0.2 0 0 0 0 0.27451 0 0 0 0.04 0"/>
<feBlend mode="normal" in2="BackgroundImageFix" result="effect1_dropShadow_222_1757"/>
<feColorMatrix in="SourceAlpha" type="matrix" values="0 0 0 0 0 0 0 0 0 0 0 0 0 0 0 0 0 0 127 0" result="hardAlpha"/>
<feMorphology radius="2.5" operator="erode" in="SourceAlpha" result="effect2_dropShadow_222_1757"/>
<feOffset dy="2"/>
<feGaussianBlur stdDeviation="2.5"/>
<feComposite in2="hardAlpha" operator="out"/>
<feColorMatrix type="matrix" values="0 0 0 0 0.164706 0 0 0 0 0.2 0 0 0 0 0.27451 0 0 0 0.02 0"/>
<feBlend mode="normal" in2="effect1_dropShadow_222_1757" result="effect2_dropShadow_222_1757"/>
<feColorMatrix in="SourceAlpha" type="matrix" values="0 0 0 0 0 0 0 0 0 0 0 0 0 0 0 0 0 0 127 0" result="hardAlpha"/>
<feMorphology radius="1.5" operator="erode" in="SourceAlpha" result="effect3_dropShadow_222_1757"/>
<feOffset dy="3"/>
<feGaussianBlur stdDeviation="1.5"/>
<feComposite in2="hardAlpha" operator="out"/>
<feColorMatrix type="matrix" values="0 0 0 0 0.164706 0 0 0 0 0.2 0 0 0 0 0.27451 0 0 0 0.05 0"/>
<feBlend mode="normal" in2="effect2_dropShadow_222_1757" result="effect3_dropShadow_222_1757"/>
<feColorMatrix in="SourceAlpha" type="matrix" values="0 0 0 0 0 0 0 0 0 0 0 0 0 0 0 0 0 0 127 0" result="hardAlpha"/>
<feMorphology radius="0.5" operator="erode" in="SourceAlpha" result="effect4_dropShadow_222_1757"/>
<feOffset dy="1"/>
<feGaussianBlur stdDeviation="0.5"/>
<feComposite in2="hardAlpha" operator="out"/>
<feColorMatrix type="matrix" values="0 0 0 0 0.164706 0 0 0 0 0.2 0 0 0 0 0.27451 0 0 0 0.03 0"/>
<feBlend mode="normal" in2="effect3_dropShadow_222_1757" result="effect4_dropShadow_222_1757"/>
<feColorMatrix in="SourceAlpha" type="matrix" values="0 0 0 0 0 0 0 0 0 0 0 0 0 0 0 0 0 0 127 0" result="hardAlpha"/>
<feMorphology radius="1" operator="dilate" in="SourceAlpha" result="effect5_dropShadow_222_1757"/>
<feOffset/>
<feComposite in2="hardAlpha" operator="out"/>
<feColorMatrix type="matrix" values="0 0 0 0 0.054902 0 0 0 0 0.247059 0 0 0 0 0.494118 0 0 0 0.06 0"/>
<feBlend mode="normal" in2="effect4_dropShadow_222_1757" result="effect5_dropShadow_222_1757"/>
<feBlend mode="normal" in="SourceGraphic" in2="effect5_dropShadow_222_1757" result="shape"/>
</filter>
<clipPath id="clip0_222_1757">
<rect width="397.333" height="268" fill="white"/>
</clipPath>
</defs>
</svg>
