<svg width="398" height="268" viewBox="0 0 398 268" fill="none" xmlns="http://www.w3.org/2000/svg">
<g clip-path="url(#clip0_222_1793)">
<g opacity="0.6">
<rect x="-2.83203" y="-68.5" width="135" height="135" stroke="#E5E5E5"/>
<rect x="132.168" y="-68.5" width="135" height="135" stroke="#E5E5E5"/>
<rect x="267.168" y="-68.5" width="135" height="135" stroke="#E5E5E5"/>
<rect x="-2.83203" y="66.5" width="135" height="135" stroke="#E5E5E5"/>
<rect x="132.168" y="66.5" width="135" height="135" stroke="#E5E5E5"/>
<rect x="267.168" y="66.5" width="135" height="135" stroke="#E5E5E5"/>
<rect x="-2.83203" y="201.5" width="135" height="135" stroke="#E5E5E5"/>
<rect x="132.168" y="201.5" width="135" height="135" stroke="#E5E5E5"/>
<rect x="267.168" y="201.5" width="135" height="135" stroke="#E5E5E5"/>
</g>
<path d="M199.668 153L199.668 216" stroke="#E5E5E5"/>
<path d="M196.335 166C196.335 164.527 195.141 163.333 193.668 163.333C192.195 163.333 191.001 164.527 191.001 166C191.001 167.473 192.195 168.667 193.668 168.667C195.141 168.667 196.335 167.473 196.335 166ZM193.668 211L194.168 211L194.168 166L193.668 166L193.168 166L193.168 211L193.668 211Z" fill="url(#paint0_linear_222_1793)"/>
<g clip-path="url(#clip1_222_1793)">
<rect x="83" y="30" width="233" height="224.107" rx="10.6718" fill="#F2F2F2" fill-opacity="0.06"/>
<g filter="url(#filter0_dddddd_222_1793)">
<rect x="275.092" y="160.729" width="35.5725" height="35.5725" rx="17.7863" fill="white" shape-rendering="crispEdges"/>
<path d="M301.549 182.017H300.715V173.846C300.715 173.36 300.522 172.893 300.178 172.549C299.834 172.205 299.367 172.012 298.881 172.012H286.875C286.389 172.012 285.922 172.205 285.578 172.549C285.234 172.893 285.041 173.36 285.041 173.846V182.017H284.207C284.075 182.017 283.947 182.07 283.854 182.163C283.76 182.257 283.707 182.385 283.707 182.517V183.851C283.707 184.338 283.9 184.804 284.244 185.148C284.588 185.492 285.055 185.685 285.541 185.685H300.215C300.701 185.685 301.168 185.492 301.512 185.148C301.856 184.804 302.049 184.338 302.049 183.851V182.517C302.049 182.385 301.996 182.257 301.903 182.163C301.809 182.07 301.682 182.017 301.549 182.017ZM286.041 173.846C286.041 173.625 286.129 173.413 286.286 173.257C286.442 173.101 286.654 173.013 286.875 173.013H298.881C299.102 173.013 299.314 173.101 299.47 173.257C299.627 173.413 299.715 173.625 299.715 173.846V182.017H286.041V173.846ZM301.049 183.851C301.049 184.072 300.961 184.284 300.804 184.441C300.648 184.597 300.436 184.685 300.215 184.685H285.541C285.32 184.685 285.108 184.597 284.952 184.441C284.795 184.284 284.708 184.072 284.708 183.851V183.017H301.049V183.851ZM294.712 175.18C294.712 175.313 294.66 175.44 294.566 175.534C294.472 175.628 294.345 175.681 294.212 175.681H291.544C291.411 175.681 291.284 175.628 291.19 175.534C291.097 175.44 291.044 175.313 291.044 175.18C291.044 175.048 291.097 174.92 291.19 174.827C291.284 174.733 291.411 174.68 291.544 174.68H294.212C294.345 174.68 294.472 174.733 294.566 174.827C294.66 174.92 294.712 175.048 294.712 175.18Z" fill="#1A1A1A"/>
</g>
<g filter="url(#filter1_dddddd_222_1793)">
<rect x="243.965" y="30.8892" width="35.5725" height="35.5725" rx="17.7863" fill="white" shape-rendering="crispEdges"/>
<path d="M268.775 44.987L264.107 40.3181C264.013 40.2243 263.886 40.1715 263.753 40.1714H255.749C255.44 40.1714 255.143 40.2944 254.924 40.5133C254.705 40.7322 254.582 41.029 254.582 41.3386V56.0123C254.582 56.3218 254.705 56.6187 254.924 56.8376C255.143 57.0565 255.44 57.1795 255.749 57.1795H267.755C268.065 57.1795 268.361 57.0565 268.58 56.8376C268.799 56.6187 268.922 56.3218 268.922 56.0123V45.3405C268.922 45.2079 268.869 45.0807 268.775 44.987ZM264.253 41.8789L267.215 44.8403H264.253V41.8789ZM267.755 56.179H255.749C255.705 56.179 255.663 56.1615 255.631 56.1302C255.6 56.0989 255.583 56.0565 255.583 56.0123V41.3386C255.583 41.2944 255.6 41.252 255.631 41.2207C255.663 41.1894 255.705 41.1719 255.749 41.1719H263.253V45.3405C263.253 45.4732 263.306 45.6004 263.399 45.6942C263.493 45.7881 263.62 45.8408 263.753 45.8408H267.922V56.0123C267.922 56.0565 267.904 56.0989 267.873 56.1302C267.842 56.1615 267.799 56.179 267.755 56.179ZM264.92 49.3424C264.92 49.4751 264.868 49.6023 264.774 49.6961C264.68 49.79 264.553 49.8427 264.42 49.8427H259.084C258.952 49.8427 258.824 49.79 258.73 49.6961C258.637 49.6023 258.584 49.4751 258.584 49.3424C258.584 49.2098 258.637 49.0825 258.73 48.9887C258.824 48.8949 258.952 48.8422 259.084 48.8422H264.42C264.553 48.8422 264.68 48.8949 264.774 48.9887C264.868 49.0825 264.92 49.2098 264.92 49.3424ZM264.92 52.0104C264.92 52.143 264.868 52.2703 264.774 52.3641C264.68 52.4579 264.553 52.5106 264.42 52.5106H259.084C258.952 52.5106 258.824 52.4579 258.73 52.3641C258.637 52.2703 258.584 52.143 258.584 52.0104C258.584 51.8777 258.637 51.7505 258.73 51.6566C258.824 51.5628 258.952 51.5101 259.084 51.5101H264.42C264.553 51.5101 264.68 51.5628 264.774 51.6566C264.868 51.7505 264.92 51.8777 264.92 52.0104Z" fill="#1A1A1A"/>
</g>
<path d="M290.505 160.729C290.505 162.039 291.567 163.101 292.877 163.101C294.187 163.101 295.248 162.039 295.248 160.729C295.248 159.419 294.187 158.358 292.877 158.358C291.567 158.358 290.505 159.419 290.505 160.729ZM234.627 113.595V114.04H282.205V113.595V113.151H234.627V113.595ZM292.877 124.267H292.432V160.729H292.877H293.322V124.267H292.877ZM282.205 113.595V114.04C287.853 114.04 292.432 118.619 292.432 124.267H292.877H293.322C293.322 118.128 288.345 113.151 282.205 113.151V113.595Z" fill="url(#paint1_linear_222_1793)"/>
<path d="M243.966 51.047C245.275 51.047 246.337 49.9852 246.337 48.6755C246.337 47.3658 245.275 46.304 243.966 46.304C242.656 46.304 241.594 47.3658 241.594 48.6755C241.594 49.9852 242.656 51.047 243.966 51.047ZM196.832 95.8091L197.277 95.8091L197.277 59.3473L196.832 59.3473L196.387 59.3473L196.387 95.8091L196.832 95.8091ZM207.504 48.6755L207.504 49.1202L243.966 49.1202L243.966 48.6755L243.966 48.2308L207.504 48.2308L207.504 48.6755ZM196.832 59.3473L197.277 59.3473C197.277 53.699 201.856 49.1202 207.504 49.1202L207.504 48.6755L207.504 48.2308C201.364 48.2308 196.387 53.2078 196.387 59.3473L196.832 59.3473Z" fill="url(#paint2_linear_222_1793)"/>
<g filter="url(#filter2_dddddd_222_1793)">
<rect x="153.256" y="95.8091" width="92.4885" height="92.4885" rx="46.2443" fill="#1F77D6" shape-rendering="crispEdges"/>
<rect x="153.701" y="96.2537" width="91.5992" height="91.5992" rx="45.7996" stroke="#1F77D6" stroke-width="0.889313" shape-rendering="crispEdges"/>
<path d="M220.397 122.489V130.492C220.397 130.846 220.257 131.185 220.007 131.436C219.756 131.686 219.417 131.826 219.063 131.826C218.71 131.826 218.37 131.686 218.12 131.436C217.87 131.185 217.729 130.846 217.729 130.492V123.822H211.06C210.706 123.822 210.366 123.682 210.116 123.432C209.866 123.182 209.726 122.842 209.726 122.489C209.726 122.135 209.866 121.795 210.116 121.545C210.366 121.295 210.706 121.155 211.06 121.155H219.063C219.417 121.155 219.756 121.295 220.007 121.545C220.257 121.795 220.397 122.135 220.397 122.489ZM219.063 152.28C218.71 152.28 218.37 152.421 218.12 152.671C217.87 152.921 217.729 153.261 217.729 153.614V160.284H211.06C210.706 160.284 210.366 160.425 210.116 160.675C209.866 160.925 209.726 161.264 209.726 161.618C209.726 161.972 209.866 162.311 210.116 162.562C210.366 162.812 210.706 162.952 211.06 162.952H219.063C219.417 162.952 219.756 162.812 220.007 162.562C220.257 162.311 220.397 161.972 220.397 161.618V153.614C220.397 153.261 220.257 152.921 220.007 152.671C219.756 152.421 219.417 152.28 219.063 152.28ZM187.937 160.284H181.268V153.614C181.268 153.261 181.127 152.921 180.877 152.671C180.627 152.421 180.287 152.28 179.934 152.28C179.58 152.28 179.24 152.421 178.99 152.671C178.74 152.921 178.6 153.261 178.6 153.614V161.618C178.6 161.972 178.74 162.311 178.99 162.562C179.24 162.812 179.58 162.952 179.934 162.952H187.937C188.291 162.952 188.63 162.812 188.881 162.562C189.131 162.311 189.271 161.972 189.271 161.618C189.271 161.264 189.131 160.925 188.881 160.675C188.63 160.425 188.291 160.284 187.937 160.284ZM179.934 131.826C180.287 131.826 180.627 131.686 180.877 131.436C181.127 131.185 181.268 130.846 181.268 130.492V123.822H187.937C188.291 123.822 188.63 123.682 188.881 123.432C189.131 123.182 189.271 122.842 189.271 122.489C189.271 122.135 189.131 121.795 188.881 121.545C188.63 121.295 188.291 121.155 187.937 121.155H179.934C179.58 121.155 179.24 121.295 178.99 121.545C178.74 121.795 178.6 122.135 178.6 122.489V130.492C178.6 130.846 178.74 131.185 178.99 131.436C179.24 131.686 179.58 131.826 179.934 131.826ZM210.17 152.28C209.963 152.28 209.759 152.232 209.574 152.14C209.388 152.047 209.227 151.913 209.103 151.747C207.985 150.256 206.535 149.046 204.868 148.212C203.201 147.379 201.362 146.945 199.498 146.945C197.635 146.945 195.796 147.379 194.129 148.212C192.462 149.046 191.012 150.256 189.894 151.747C189.789 151.887 189.657 152.005 189.506 152.094C189.356 152.184 189.189 152.242 189.015 152.267C188.842 152.292 188.665 152.282 188.496 152.239C188.326 152.195 188.166 152.119 188.026 152.014C187.886 151.909 187.768 151.777 187.679 151.626C187.59 151.475 187.531 151.309 187.506 151.135C187.481 150.962 187.491 150.785 187.534 150.615C187.578 150.446 187.654 150.286 187.76 150.146C189.438 147.896 191.73 146.178 194.36 145.197C192.959 144.123 191.929 142.637 191.415 140.948C190.902 139.258 190.93 137.45 191.497 135.778C192.064 134.106 193.141 132.653 194.576 131.624C196.011 130.595 197.733 130.042 199.498 130.042C201.264 130.042 202.986 130.595 204.421 131.624C205.856 132.653 206.933 134.106 207.5 135.778C208.067 137.45 208.095 139.258 207.582 140.948C207.068 142.637 206.038 144.123 204.636 145.197C207.267 146.178 209.559 147.896 211.237 150.146C211.386 150.344 211.477 150.58 211.499 150.827C211.521 151.073 211.474 151.322 211.363 151.543C211.253 151.765 211.082 151.951 210.872 152.081C210.661 152.212 210.418 152.28 210.17 152.28ZM199.498 144.277C200.642 144.277 201.759 143.938 202.71 143.302C203.661 142.667 204.401 141.765 204.839 140.708C205.276 139.652 205.391 138.49 205.168 137.368C204.945 136.247 204.394 135.217 203.586 134.409C202.777 133.6 201.748 133.05 200.626 132.827C199.505 132.604 198.343 132.718 197.286 133.156C196.23 133.593 195.327 134.334 194.692 135.285C194.057 136.235 193.718 137.353 193.718 138.496C193.718 140.029 194.327 141.5 195.411 142.584C196.495 143.668 197.965 144.277 199.498 144.277Z" fill="#FFD643"/>
</g>
<g filter="url(#filter3_dddddd_222_1793)">
<rect x="88.3359" y="60.2366" width="35.5725" height="35.5725" rx="17.7863" fill="white" shape-rendering="crispEdges"/>
<path d="M106.122 74.1878C105.364 74.1878 104.622 74.4127 103.992 74.8341C103.361 75.2555 102.869 75.8545 102.579 76.5553C102.289 77.2561 102.213 78.0272 102.361 78.7711C102.509 79.5151 102.874 80.1984 103.411 80.7348C103.947 81.2711 104.63 81.6364 105.374 81.7844C106.118 81.9324 106.889 81.8564 107.59 81.5662C108.291 81.2759 108.89 80.7843 109.311 80.1536C109.733 79.5229 109.958 78.7814 109.958 78.0229C109.956 77.0062 109.552 76.0315 108.833 75.3125C108.114 74.5936 107.139 74.1891 106.122 74.1878ZM106.122 80.8576C105.562 80.8576 105.014 80.6914 104.548 80.3799C104.081 80.0684 103.718 79.6257 103.504 79.1077C103.289 78.5897 103.233 78.0198 103.342 77.4699C103.452 76.92 103.722 76.4149 104.118 76.0185C104.514 75.6221 105.02 75.3521 105.569 75.2427C106.119 75.1333 106.689 75.1895 107.207 75.404C107.725 75.6186 108.168 75.9819 108.479 76.4481C108.791 76.9142 108.957 77.4623 108.957 78.0229C108.957 78.7747 108.658 79.4957 108.127 80.0273C107.595 80.559 106.874 80.8576 106.122 80.8576ZM115.127 76.3221C115.112 76.2524 115.083 76.1866 115.041 76.1291C114.999 76.0716 114.945 76.0237 114.883 75.9886L112.345 74.5396L112.31 74.4804L112.3 71.6199C112.3 71.5476 112.285 71.4762 112.254 71.4106C112.224 71.345 112.18 71.2867 112.125 71.2397C111.239 70.4902 110.218 69.9156 109.118 69.5464C109.052 69.5241 108.982 69.516 108.912 69.5224C108.843 69.5289 108.775 69.5498 108.714 69.5839L106.161 71.0079H106.077L103.53 69.5822C103.469 69.5481 103.401 69.5272 103.332 69.5208C103.262 69.5145 103.191 69.5229 103.125 69.5455C102.025 69.9159 101.005 70.4919 100.12 71.243C100.064 71.2897 100.02 71.3478 99.9896 71.4133C99.9591 71.4788 99.9431 71.5501 99.9428 71.6224L99.9295 74.4854C99.9178 74.5046 99.9061 74.5246 99.8953 74.5446L97.3607 75.9861C97.2985 76.0217 97.2446 76.0703 97.2027 76.1285C97.1608 76.1868 97.132 76.2534 97.1181 76.3238C96.8955 77.4462 96.8955 78.6013 97.1181 79.7237C97.1326 79.7934 97.1619 79.8593 97.2038 79.9168C97.2458 79.9743 97.2996 80.0222 97.3616 80.0572L99.8978 81.5021L99.9328 81.5613L99.9428 84.4218C99.9424 84.4949 99.958 84.5672 99.9886 84.6336C100.019 84.7 100.064 84.7589 100.12 84.8062C101.006 85.5556 102.026 86.1302 103.127 86.4995C103.193 86.5217 103.263 86.5299 103.333 86.5234C103.402 86.5169 103.469 86.496 103.53 86.4619L106.082 85.0379H106.166L108.714 86.4636C108.788 86.5048 108.872 86.5266 108.957 86.527C109.012 86.5272 109.066 86.5182 109.118 86.5003C110.217 86.1295 111.235 85.5535 112.119 84.8028C112.175 84.7561 112.219 84.698 112.249 84.6325C112.28 84.567 112.296 84.4957 112.296 84.4235L112.31 81.5604C112.321 81.5413 112.333 81.5213 112.344 81.5012L114.88 80.0597C114.942 80.0242 114.996 79.9757 115.038 79.9174C115.08 79.8592 115.109 79.7925 115.123 79.7221C115.347 78.5999 115.348 77.4447 115.127 76.3221ZM114.189 79.306L111.735 80.6992C111.656 80.7447 111.59 80.811 111.545 80.891C111.496 80.9743 111.444 81.0669 111.39 81.1527C111.341 81.2318 111.314 81.323 111.314 81.4162L111.301 84.185C110.611 84.7377 109.836 85.175 109.006 85.4798L106.539 84.0992C106.465 84.0572 106.381 84.0351 106.295 84.035H106.283C106.18 84.035 106.075 84.035 105.972 84.035C105.882 84.0328 105.794 84.0547 105.716 84.0983L103.242 85.479C102.411 85.1757 101.635 84.7395 100.944 84.1875L100.934 81.422C100.934 81.3289 100.908 81.2376 100.858 81.1586C100.805 81.0752 100.752 80.9852 100.703 80.8968C100.659 80.8168 100.593 80.7504 100.514 80.705L98.0602 79.3069C97.9176 78.4571 97.9176 77.5896 98.0602 76.7398L100.51 75.3466C100.591 75.3016 100.657 75.2353 100.703 75.1549C100.752 75.0715 100.804 74.979 100.858 74.8931C100.908 74.8141 100.934 74.7228 100.934 74.6296L100.947 71.8608C101.636 71.3084 102.41 70.8712 103.239 70.566L105.706 71.9467C105.783 71.9911 105.872 72.013 105.962 72.0101C106.065 72.0101 106.17 72.0101 106.273 72.0101C106.363 72.0122 106.451 71.9903 106.529 71.9467L109.001 70.566C109.832 70.8693 110.608 71.3055 111.299 71.8575L111.309 74.623C111.309 74.7161 111.336 74.8074 111.385 74.8864C111.438 74.9698 111.491 75.0598 111.54 75.1482C111.584 75.2282 111.65 75.2946 111.729 75.34L114.185 76.739C114.328 77.5886 114.329 78.4562 114.187 79.306H114.189Z" fill="#1A1A1A"/>
</g>
<path d="M108.494 95.809C108.494 94.4993 107.432 93.4375 106.122 93.4375C104.813 93.4375 103.751 94.4993 103.751 95.809C103.751 97.1188 104.813 98.1805 106.122 98.1805C107.432 98.1805 108.494 97.1188 108.494 95.809ZM153.256 142.943V142.498H116.794V142.943V143.387H153.256V142.943ZM106.122 132.271H106.567V95.809H106.122H105.678V132.271H106.122ZM116.794 142.943V142.498C111.146 142.498 106.567 137.919 106.567 132.271H106.122H105.678C105.678 138.41 110.655 143.387 116.794 143.387V142.943Z" fill="url(#paint3_linear_222_1793)"/>
<g filter="url(#filter4_ddddd_222_1793)">
<rect x="130.213" y="213.206" width="138.573" height="23.1145" rx="11.5573" fill="white" shape-rendering="crispEdges"/>
<rect x="130.658" y="213.651" width="137.683" height="22.2252" rx="11.1126" stroke="#E5E5E5" stroke-width="0.889313" shape-rendering="crispEdges"/>
<path d="M151.445 224.016C151.661 223.52 151.738 222.975 151.669 222.438C151.6 221.901 151.387 221.393 151.053 220.967C150.719 220.542 150.275 220.214 149.77 220.02C149.265 219.825 148.717 219.771 148.184 219.863C147.862 219.429 147.428 219.09 146.929 218.882C146.43 218.674 145.884 218.604 145.349 218.681C144.814 218.758 144.309 218.977 143.888 219.317C143.468 219.657 143.147 220.104 142.959 220.611C142.422 220.673 141.912 220.879 141.482 221.207C141.052 221.536 140.719 221.974 140.518 222.476C140.317 222.978 140.255 223.525 140.339 224.059C140.423 224.593 140.65 225.094 140.996 225.51C140.824 225.906 140.739 226.334 140.748 226.766C140.757 227.197 140.859 227.621 141.046 228.01C141.234 228.398 141.503 228.742 141.835 229.017C142.168 229.292 142.555 229.492 142.972 229.604C143.226 229.673 143.488 229.709 143.752 229.71C143.921 229.71 144.089 229.696 144.255 229.667C144.578 230.101 145.011 230.44 145.51 230.648C146.009 230.856 146.555 230.925 147.091 230.849C147.626 230.772 148.13 230.552 148.551 230.212C148.972 229.873 149.293 229.426 149.48 228.919C150.018 228.857 150.529 228.651 150.959 228.323C151.389 227.994 151.723 227.556 151.924 227.053C152.126 226.551 152.187 226.003 152.103 225.469C152.019 224.934 151.791 224.432 151.445 224.016ZM149.298 220.567C149.602 220.648 149.887 220.79 150.134 220.985C150.382 221.179 150.588 221.421 150.74 221.697C150.891 221.973 150.986 222.277 151.017 222.59C151.048 222.904 151.016 223.22 150.921 223.521C150.831 223.454 150.736 223.392 150.639 223.335L148.166 221.908C148.115 221.878 148.057 221.863 147.999 221.863C147.94 221.863 147.883 221.878 147.832 221.908L145.22 223.415V222.132L147.526 220.798C147.792 220.644 148.085 220.545 148.389 220.505C148.693 220.465 149.002 220.486 149.298 220.567ZM147.221 225.341L146.22 225.918L145.22 225.341V224.186L146.22 223.608L147.221 224.186V225.341ZM143.441 221.651C143.441 221.181 143.583 220.721 143.848 220.333C144.113 219.945 144.49 219.646 144.928 219.475C145.366 219.305 145.845 219.27 146.303 219.376C146.761 219.482 147.176 219.724 147.494 220.071C147.391 220.116 147.291 220.167 147.193 220.223L144.72 221.651C144.669 221.68 144.627 221.722 144.598 221.773C144.568 221.823 144.553 221.881 144.553 221.939V224.956L143.441 224.314V221.651ZM141.281 222.425C141.441 222.145 141.659 221.901 141.92 221.709C142.18 221.518 142.478 221.383 142.794 221.313C142.781 221.425 142.774 221.538 142.774 221.651V224.507C142.774 224.565 142.79 224.623 142.819 224.673C142.848 224.724 142.89 224.766 142.941 224.796L145.553 226.304L144.442 226.945L142.135 225.612C141.599 225.302 141.209 224.792 141.049 224.195C140.888 223.598 140.972 222.961 141.281 222.425ZM143.143 228.96C142.839 228.878 142.554 228.736 142.306 228.542C142.058 228.348 141.852 228.105 141.701 227.829C141.549 227.553 141.455 227.25 141.424 226.936C141.392 226.623 141.425 226.307 141.519 226.006C141.61 226.073 141.704 226.135 141.801 226.191L144.275 227.619C144.326 227.648 144.383 227.664 144.442 227.664C144.5 227.664 144.558 227.648 144.608 227.619L147.221 226.111V227.395L144.914 228.729C144.649 228.882 144.356 228.982 144.052 229.022C143.747 229.061 143.439 229.04 143.143 228.96ZM148.999 227.876C148.999 228.346 148.858 228.805 148.592 229.193C148.327 229.581 147.951 229.88 147.513 230.051C147.075 230.222 146.596 230.257 146.138 230.15C145.68 230.044 145.264 229.802 144.946 229.456C145.049 229.411 145.15 229.36 145.248 229.304L147.721 227.876C147.772 227.847 147.814 227.805 147.843 227.754C147.872 227.703 147.888 227.646 147.888 227.587V224.571L148.999 225.212V227.876ZM151.16 227.102C150.999 227.382 150.781 227.626 150.521 227.817C150.26 228.009 149.963 228.144 149.647 228.213C149.66 228.101 149.666 227.989 149.666 227.876V225.02C149.666 224.962 149.651 224.904 149.622 224.853C149.592 224.803 149.55 224.76 149.5 224.731L146.887 223.223L147.999 222.581L150.306 223.915C150.841 224.225 151.232 224.734 151.392 225.332C151.552 225.929 151.469 226.566 151.16 227.102Z" fill="#1A1A1A"/>
<path d="M157.356 228.763L159.928 221.08H161.251L163.823 228.763H162.836L160.429 221.635H160.728L158.343 228.763H157.356ZM158.594 226.965V226.074H162.585V226.965H158.594ZM164.778 228.763V223.001H165.626V224.393L165.488 224.212C165.555 224.034 165.642 223.87 165.749 223.721C165.859 223.572 165.982 223.449 166.117 223.353C166.267 223.232 166.436 223.139 166.624 223.075C166.813 223.011 167.005 222.974 167.2 222.963C167.396 222.949 167.579 222.962 167.75 223.001V223.892C167.551 223.838 167.332 223.824 167.094 223.849C166.855 223.874 166.635 223.961 166.432 224.111C166.247 224.242 166.103 224.402 166 224.591C165.9 224.779 165.831 224.984 165.792 225.204C165.753 225.421 165.733 225.644 165.733 225.871V228.763H164.778ZM171.977 228.763C171.635 228.831 171.297 228.858 170.963 228.843C170.632 228.833 170.337 228.767 170.077 228.646C169.817 228.522 169.62 228.329 169.485 228.07C169.371 227.842 169.309 227.613 169.298 227.381C169.291 227.147 169.287 226.882 169.287 226.586V221.4H170.237V226.544C170.237 226.778 170.239 226.979 170.242 227.147C170.25 227.314 170.287 227.458 170.354 227.579C170.483 227.807 170.685 227.94 170.963 227.979C171.244 228.018 171.582 228.008 171.977 227.947V228.763ZM168.119 223.785V223.001H171.977V223.785H168.119ZM173.253 221.982V221H174.203V221.982H173.253ZM173.253 228.763V223.001H174.203V228.763H173.253ZM176.354 228.763V222.686C176.354 222.536 176.361 222.385 176.375 222.232C176.389 222.076 176.421 221.925 176.471 221.779C176.521 221.629 176.603 221.492 176.716 221.368C176.848 221.222 176.992 221.119 177.149 221.058C177.305 220.994 177.464 220.955 177.624 220.941C177.787 220.927 177.942 220.92 178.088 220.92H178.819V221.709H178.141C177.86 221.709 177.65 221.779 177.512 221.917C177.373 222.053 177.303 222.259 177.303 222.536V228.763H176.354ZM175.377 223.785V223.001H178.819V223.785H175.377ZM179.939 221.982V221H180.889V221.982H179.939ZM179.939 228.763V223.001H180.889V228.763H179.939ZM184.923 228.924C184.339 228.924 183.843 228.794 183.434 228.534C183.028 228.271 182.719 227.91 182.505 227.451C182.292 226.992 182.182 226.469 182.175 225.882C182.182 225.281 182.294 224.753 182.511 224.297C182.731 223.838 183.046 223.481 183.455 223.225C183.864 222.969 184.357 222.841 184.933 222.841C185.542 222.841 186.064 222.99 186.502 223.289C186.943 223.588 187.238 223.997 187.388 224.516L186.449 224.799C186.328 224.464 186.13 224.205 185.856 224.02C185.586 223.835 185.275 223.742 184.923 223.742C184.528 223.742 184.202 223.835 183.946 224.02C183.69 224.201 183.5 224.454 183.375 224.778C183.251 225.098 183.187 225.466 183.183 225.882C183.19 226.522 183.338 227.04 183.626 227.435C183.918 227.826 184.35 228.022 184.923 228.022C185.3 228.022 185.613 227.936 185.862 227.766C186.111 227.591 186.299 227.341 186.427 227.013L187.388 227.264C187.189 227.801 186.877 228.212 186.454 228.497C186.031 228.781 185.52 228.924 184.923 228.924ZM188.427 221.982V221H189.377V221.982H188.427ZM188.427 228.763V223.001H189.377V228.763H188.427ZM192.616 228.924C192.186 228.924 191.825 228.845 191.533 228.689C191.245 228.529 191.026 228.319 190.877 228.059C190.731 227.799 190.658 227.515 190.658 227.205C190.658 226.903 190.715 226.642 190.829 226.421C190.946 226.197 191.11 226.012 191.319 225.866C191.529 225.717 191.78 225.599 192.072 225.514C192.346 225.439 192.652 225.375 192.99 225.322C193.331 225.265 193.676 225.213 194.025 225.167C194.373 225.121 194.699 225.076 195.001 225.034L194.66 225.231C194.67 224.719 194.567 224.34 194.35 224.095C194.137 223.849 193.767 223.726 193.24 223.726C192.892 223.726 192.586 223.806 192.323 223.966C192.063 224.123 191.88 224.379 191.773 224.735L190.871 224.463C191.01 223.958 191.279 223.561 191.677 223.273C192.075 222.985 192.6 222.841 193.251 222.841C193.774 222.841 194.222 222.935 194.596 223.123C194.973 223.308 195.243 223.589 195.407 223.966C195.489 224.144 195.54 224.338 195.561 224.548C195.583 224.754 195.593 224.971 195.593 225.199V228.763H194.75V227.381L194.948 227.509C194.731 227.975 194.427 228.328 194.035 228.566C193.648 228.804 193.175 228.924 192.616 228.924ZM192.76 228.128C193.102 228.128 193.397 228.068 193.646 227.947C193.898 227.823 194.101 227.661 194.254 227.461C194.407 227.259 194.507 227.038 194.553 226.8C194.606 226.622 194.635 226.425 194.638 226.208C194.645 225.987 194.649 225.818 194.649 225.701L194.98 225.845C194.67 225.887 194.366 225.928 194.067 225.967C193.769 226.007 193.486 226.049 193.219 226.095C192.952 226.138 192.712 226.19 192.499 226.25C192.342 226.3 192.195 226.364 192.056 226.442C191.921 226.521 191.81 226.622 191.725 226.746C191.643 226.867 191.602 227.019 191.602 227.2C191.602 227.357 191.641 227.506 191.72 227.648C191.801 227.791 191.926 227.906 192.093 227.995C192.264 228.084 192.486 228.128 192.76 228.128ZM197.088 228.763V220.92H198.037V228.763H197.088ZM201.881 228.763V221.08H202.831V228.763H201.881ZM208.536 228.763V225.877C208.536 225.603 208.511 225.34 208.461 225.087C208.415 224.834 208.331 224.609 208.21 224.409C208.093 224.207 207.933 224.047 207.73 223.929C207.531 223.812 207.278 223.753 206.972 223.753C206.734 223.753 206.517 223.794 206.321 223.876C206.129 223.954 205.964 224.075 205.825 224.239C205.686 224.402 205.578 224.609 205.499 224.858C205.425 225.103 205.387 225.393 205.387 225.727L204.763 225.535C204.763 224.977 204.863 224.498 205.062 224.1C205.265 223.698 205.547 223.39 205.91 223.177C206.277 222.96 206.707 222.851 207.202 222.851C207.575 222.851 207.893 222.91 208.157 223.027C208.42 223.145 208.639 223.301 208.813 223.497C208.987 223.689 209.124 223.906 209.224 224.148C209.324 224.386 209.393 224.63 209.432 224.879C209.475 225.124 209.496 225.357 209.496 225.578V228.763H208.536ZM204.427 228.763V223.001H205.281V224.543H205.387V228.763H204.427ZM214.101 228.763C213.759 228.831 213.421 228.858 213.087 228.843C212.756 228.833 212.461 228.767 212.201 228.646C211.942 228.522 211.744 228.329 211.609 228.07C211.495 227.842 211.433 227.613 211.422 227.381C211.415 227.147 211.412 226.882 211.412 226.586V221.4H212.361V226.544C212.361 226.778 212.363 226.979 212.367 227.147C212.374 227.314 212.411 227.458 212.479 227.579C212.607 227.807 212.81 227.94 213.087 227.979C213.368 228.018 213.706 228.008 214.101 227.947V228.763ZM210.243 223.785V223.001H214.101V223.785H210.243ZM217.528 228.924C216.963 228.924 216.468 228.799 216.045 228.55C215.625 228.297 215.298 227.947 215.063 227.499C214.828 227.047 214.711 226.521 214.711 225.919C214.711 225.29 214.827 224.746 215.058 224.287C215.289 223.824 215.611 223.468 216.024 223.219C216.44 222.967 216.927 222.841 217.486 222.841C218.065 222.841 218.558 222.974 218.964 223.241C219.373 223.508 219.679 223.888 219.881 224.383C220.088 224.877 220.177 225.466 220.148 226.149H219.188V225.807C219.177 225.099 219.033 224.571 218.756 224.223C218.478 223.87 218.065 223.694 217.518 223.694C216.931 223.694 216.484 223.883 216.178 224.26C215.872 224.637 215.719 225.178 215.719 225.882C215.719 226.561 215.872 227.088 216.178 227.461C216.484 227.835 216.92 228.022 217.486 228.022C217.866 228.022 218.197 227.935 218.478 227.76C218.759 227.586 218.98 227.335 219.14 227.008L220.052 227.323C219.828 227.831 219.49 228.226 219.038 228.507C218.59 228.785 218.087 228.924 217.528 228.924ZM215.399 226.149V225.386H219.657V226.149H215.399ZM221.443 228.763V220.92H222.393V228.763H221.443ZM224.1 228.763V220.92H225.05V228.763H224.1ZM226.758 221.982V221H227.708V221.982H226.758ZM226.758 228.763V223.001H227.708V228.763H226.758ZM231.641 231.485C231.338 231.485 231.043 231.438 230.755 231.346C230.467 231.254 230.202 231.113 229.96 230.924C229.721 230.739 229.522 230.505 229.362 230.22L230.232 229.761C230.374 230.042 230.575 230.247 230.835 230.375C231.098 230.503 231.368 230.567 231.646 230.567C232.012 230.567 232.316 230.499 232.558 230.364C232.8 230.233 232.978 230.035 233.092 229.772C233.209 229.509 233.266 229.181 233.263 228.79V227.216H233.375V223.001H234.218V228.801C234.218 228.957 234.212 229.108 234.202 229.254C234.195 229.4 234.177 229.544 234.148 229.687C234.074 230.096 233.926 230.432 233.705 230.695C233.485 230.962 233.2 231.159 232.852 231.287C232.503 231.419 232.099 231.485 231.641 231.485ZM231.571 228.924C231.034 228.924 230.573 228.79 230.189 228.523C229.805 228.253 229.508 227.888 229.298 227.429C229.092 226.971 228.989 226.453 228.989 225.877C228.989 225.3 229.092 224.783 229.298 224.324C229.508 223.865 229.805 223.504 230.189 223.241C230.573 222.974 231.032 222.841 231.566 222.841C232.11 222.841 232.567 222.972 232.937 223.235C233.307 223.499 233.586 223.86 233.775 224.319C233.967 224.778 234.063 225.297 234.063 225.877C234.063 226.449 233.967 226.967 233.775 227.429C233.586 227.888 233.307 228.253 232.937 228.523C232.567 228.79 232.112 228.924 231.571 228.924ZM231.689 228.054C232.076 228.054 232.395 227.961 232.644 227.776C232.893 227.588 233.076 227.33 233.193 227.003C233.314 226.672 233.375 226.296 233.375 225.877C233.375 225.45 233.314 225.075 233.193 224.751C233.076 224.424 232.894 224.169 232.649 223.988C232.404 223.803 232.092 223.71 231.715 223.71C231.324 223.71 231 223.806 230.744 223.998C230.492 224.191 230.303 224.45 230.178 224.778C230.058 225.105 229.997 225.471 229.997 225.877C229.997 226.286 230.059 226.656 230.184 226.987C230.308 227.314 230.495 227.574 230.744 227.766C230.997 227.958 231.311 228.054 231.689 228.054ZM238.205 228.924C237.639 228.924 237.145 228.799 236.721 228.55C236.302 228.297 235.974 227.947 235.74 227.499C235.505 227.047 235.387 226.521 235.387 225.919C235.387 225.29 235.503 224.746 235.734 224.287C235.966 223.824 236.287 223.468 236.7 223.219C237.116 222.967 237.604 222.841 238.162 222.841C238.742 222.841 239.235 222.974 239.64 223.241C240.049 223.508 240.355 223.888 240.558 224.383C240.764 224.877 240.853 225.466 240.825 226.149H239.864V225.807C239.854 225.099 239.71 224.571 239.432 224.223C239.155 223.87 238.742 223.694 238.194 223.694C237.607 223.694 237.161 223.883 236.855 224.26C236.549 224.637 236.396 225.178 236.396 225.882C236.396 226.561 236.549 227.088 236.855 227.461C237.161 227.835 237.597 228.022 238.162 228.022C238.543 228.022 238.874 227.935 239.155 227.76C239.436 227.586 239.656 227.335 239.816 227.008L240.729 227.323C240.505 227.831 240.167 228.226 239.715 228.507C239.267 228.785 238.763 228.924 238.205 228.924ZM236.076 226.149V225.386H240.334V226.149H236.076ZM245.96 228.763V225.877C245.96 225.603 245.935 225.34 245.885 225.087C245.839 224.834 245.755 224.609 245.634 224.409C245.517 224.207 245.357 224.047 245.154 223.929C244.955 223.812 244.702 223.753 244.396 223.753C244.158 223.753 243.941 223.794 243.745 223.876C243.553 223.954 243.388 224.075 243.249 224.239C243.11 224.402 243.002 224.609 242.924 224.858C242.849 225.103 242.811 225.393 242.811 225.727L242.187 225.535C242.187 224.977 242.287 224.498 242.486 224.1C242.689 223.698 242.972 223.39 243.334 223.177C243.701 222.96 244.131 222.851 244.626 222.851C244.999 222.851 245.318 222.91 245.581 223.027C245.844 223.145 246.063 223.301 246.237 223.497C246.411 223.689 246.548 223.906 246.648 224.148C246.748 224.386 246.817 224.63 246.856 224.879C246.899 225.124 246.92 225.357 246.92 225.578V228.763H245.96ZM241.851 228.763V223.001H242.705V224.543H242.811V228.763H241.851ZM250.683 228.924C250.1 228.924 249.603 228.794 249.194 228.534C248.789 228.271 248.479 227.91 248.266 227.451C248.052 226.992 247.942 226.469 247.935 225.882C247.942 225.281 248.054 224.753 248.271 224.297C248.492 223.838 248.807 223.481 249.216 223.225C249.625 222.969 250.117 222.841 250.694 222.841C251.302 222.841 251.825 222.99 252.263 223.289C252.704 223.588 252.999 223.997 253.148 224.516L252.209 224.799C252.088 224.464 251.891 224.205 251.617 224.02C251.347 223.835 251.035 223.742 250.683 223.742C250.288 223.742 249.963 223.835 249.707 224.02C249.45 224.201 249.26 224.454 249.136 224.778C249.011 225.098 248.947 225.466 248.944 225.882C248.951 226.522 249.098 227.04 249.386 227.435C249.678 227.826 250.11 228.022 250.683 228.022C251.06 228.022 251.373 227.936 251.622 227.766C251.871 227.591 252.06 227.341 252.188 227.013L253.148 227.264C252.949 227.801 252.638 228.212 252.214 228.497C251.791 228.781 251.281 228.924 250.683 228.924ZM256.578 228.924C256.013 228.924 255.518 228.799 255.095 228.55C254.675 228.297 254.348 227.947 254.113 227.499C253.878 227.047 253.761 226.521 253.761 225.919C253.761 225.29 253.876 224.746 254.108 224.287C254.339 223.824 254.661 223.468 255.073 223.219C255.49 222.967 255.977 222.841 256.535 222.841C257.115 222.841 257.608 222.974 258.013 223.241C258.423 223.508 258.729 223.888 258.931 224.383C259.138 224.877 259.227 225.466 259.198 226.149H258.238V225.807C258.227 225.099 258.083 224.571 257.805 224.223C257.528 223.87 257.115 223.694 256.567 223.694C255.981 223.694 255.534 223.883 255.228 224.26C254.922 224.637 254.769 225.178 254.769 225.882C254.769 226.561 254.922 227.088 255.228 227.461C255.534 227.835 255.97 228.022 256.535 228.022C256.916 228.022 257.247 227.935 257.528 227.76C257.809 227.586 258.03 227.335 258.19 227.008L259.102 227.323C258.878 227.831 258.54 228.226 258.088 228.507C257.64 228.785 257.137 228.924 256.578 228.924ZM254.449 226.149V225.386H258.707V226.149H254.449Z" fill="#525252"/>
</g>
</g>
</g>
<defs>
<filter id="filter0_dddddd_222_1793" x="260.863" y="150.057" width="64.0303" height="67.5878" filterUnits="userSpaceOnUse" color-interpolation-filters="sRGB">
<feFlood flood-opacity="0" result="BackgroundImageFix"/>
<feColorMatrix in="SourceAlpha" type="matrix" values="0 0 0 0 0 0 0 0 0 0 0 0 0 0 0 0 0 0 127 0" result="hardAlpha"/>
<feOffset dy="3.55725"/>
<feGaussianBlur stdDeviation="7.1145"/>
<feComposite in2="hardAlpha" operator="out"/>
<feColorMatrix type="matrix" values="0 0 0 0 0.0901961 0 0 0 0 0.0901961 0 0 0 0 0.0901961 0 0 0 0.04 0"/>
<feBlend mode="normal" in2="BackgroundImageFix" result="effect1_dropShadow_222_1793"/>
<feColorMatrix in="SourceAlpha" type="matrix" values="0 0 0 0 0 0 0 0 0 0 0 0 0 0 0 0 0 0 127 0" result="hardAlpha"/>
<feMorphology radius="7.1145" operator="erode" in="SourceAlpha" result="effect2_dropShadow_222_1793"/>
<feOffset dy="14.229"/>
<feGaussianBlur stdDeviation="7.1145"/>
<feComposite in2="hardAlpha" operator="out"/>
<feColorMatrix type="matrix" values="0 0 0 0 0.164706 0 0 0 0 0.2 0 0 0 0 0.27451 0 0 0 0.04 0"/>
<feBlend mode="normal" in2="effect1_dropShadow_222_1793" result="effect2_dropShadow_222_1793"/>
<feColorMatrix in="SourceAlpha" type="matrix" values="0 0 0 0 0 0 0 0 0 0 0 0 0 0 0 0 0 0 127 0" result="hardAlpha"/>
<feMorphology radius="2.22328" operator="erode" in="SourceAlpha" result="effect3_dropShadow_222_1793"/>
<feOffset dy="4.44656"/>
<feGaussianBlur stdDeviation="2.22328"/>
<feComposite in2="hardAlpha" operator="out"/>
<feColorMatrix type="matrix" values="0 0 0 0 0.164706 0 0 0 0 0.2 0 0 0 0 0.27451 0 0 0 0.03 0"/>
<feBlend mode="normal" in2="effect2_dropShadow_222_1793" result="effect3_dropShadow_222_1793"/>
<feColorMatrix in="SourceAlpha" type="matrix" values="0 0 0 0 0 0 0 0 0 0 0 0 0 0 0 0 0 0 127 0" result="hardAlpha"/>
<feMorphology radius="1.33397" operator="erode" in="SourceAlpha" result="effect4_dropShadow_222_1793"/>
<feOffset dy="2.66794"/>
<feGaussianBlur stdDeviation="1.33397"/>
<feComposite in2="hardAlpha" operator="out"/>
<feColorMatrix type="matrix" values="0 0 0 0 0.164706 0 0 0 0 0.2 0 0 0 0 0.27451 0 0 0 0.05 0"/>
<feBlend mode="normal" in2="effect3_dropShadow_222_1793" result="effect4_dropShadow_222_1793"/>
<feColorMatrix in="SourceAlpha" type="matrix" values="0 0 0 0 0 0 0 0 0 0 0 0 0 0 0 0 0 0 127 0" result="hardAlpha"/>
<feMorphology radius="0.444656" operator="erode" in="SourceAlpha" result="effect5_dropShadow_222_1793"/>
<feOffset dy="0.889313"/>
<feGaussianBlur stdDeviation="0.444656"/>
<feComposite in2="hardAlpha" operator="out"/>
<feColorMatrix type="matrix" values="0 0 0 0 0.164706 0 0 0 0 0.2 0 0 0 0 0.27451 0 0 0 0.03 0"/>
<feBlend mode="normal" in2="effect4_dropShadow_222_1793" result="effect5_dropShadow_222_1793"/>
<feColorMatrix in="SourceAlpha" type="matrix" values="0 0 0 0 0 0 0 0 0 0 0 0 0 0 0 0 0 0 127 0" result="hardAlpha"/>
<feMorphology radius="0.889313" operator="dilate" in="SourceAlpha" result="effect6_dropShadow_222_1793"/>
<feOffset/>
<feComposite in2="hardAlpha" operator="out"/>
<feColorMatrix type="matrix" values="0 0 0 0 0.054902 0 0 0 0 0.247059 0 0 0 0 0.494118 0 0 0 0.06 0"/>
<feBlend mode="normal" in2="effect5_dropShadow_222_1793" result="effect6_dropShadow_222_1793"/>
<feBlend mode="normal" in="SourceGraphic" in2="effect6_dropShadow_222_1793" result="shape"/>
</filter>
<filter id="filter1_dddddd_222_1793" x="229.736" y="20.2174" width="64.0303" height="67.5878" filterUnits="userSpaceOnUse" color-interpolation-filters="sRGB">
<feFlood flood-opacity="0" result="BackgroundImageFix"/>
<feColorMatrix in="SourceAlpha" type="matrix" values="0 0 0 0 0 0 0 0 0 0 0 0 0 0 0 0 0 0 127 0" result="hardAlpha"/>
<feOffset dy="3.55725"/>
<feGaussianBlur stdDeviation="7.1145"/>
<feComposite in2="hardAlpha" operator="out"/>
<feColorMatrix type="matrix" values="0 0 0 0 0.0901961 0 0 0 0 0.0901961 0 0 0 0 0.0901961 0 0 0 0.04 0"/>
<feBlend mode="normal" in2="BackgroundImageFix" result="effect1_dropShadow_222_1793"/>
<feColorMatrix in="SourceAlpha" type="matrix" values="0 0 0 0 0 0 0 0 0 0 0 0 0 0 0 0 0 0 127 0" result="hardAlpha"/>
<feMorphology radius="7.1145" operator="erode" in="SourceAlpha" result="effect2_dropShadow_222_1793"/>
<feOffset dy="14.229"/>
<feGaussianBlur stdDeviation="7.1145"/>
<feComposite in2="hardAlpha" operator="out"/>
<feColorMatrix type="matrix" values="0 0 0 0 0.164706 0 0 0 0 0.2 0 0 0 0 0.27451 0 0 0 0.04 0"/>
<feBlend mode="normal" in2="effect1_dropShadow_222_1793" result="effect2_dropShadow_222_1793"/>
<feColorMatrix in="SourceAlpha" type="matrix" values="0 0 0 0 0 0 0 0 0 0 0 0 0 0 0 0 0 0 127 0" result="hardAlpha"/>
<feMorphology radius="2.22328" operator="erode" in="SourceAlpha" result="effect3_dropShadow_222_1793"/>
<feOffset dy="4.44656"/>
<feGaussianBlur stdDeviation="2.22328"/>
<feComposite in2="hardAlpha" operator="out"/>
<feColorMatrix type="matrix" values="0 0 0 0 0.164706 0 0 0 0 0.2 0 0 0 0 0.27451 0 0 0 0.03 0"/>
<feBlend mode="normal" in2="effect2_dropShadow_222_1793" result="effect3_dropShadow_222_1793"/>
<feColorMatrix in="SourceAlpha" type="matrix" values="0 0 0 0 0 0 0 0 0 0 0 0 0 0 0 0 0 0 127 0" result="hardAlpha"/>
<feMorphology radius="1.33397" operator="erode" in="SourceAlpha" result="effect4_dropShadow_222_1793"/>
<feOffset dy="2.66794"/>
<feGaussianBlur stdDeviation="1.33397"/>
<feComposite in2="hardAlpha" operator="out"/>
<feColorMatrix type="matrix" values="0 0 0 0 0.164706 0 0 0 0 0.2 0 0 0 0 0.27451 0 0 0 0.05 0"/>
<feBlend mode="normal" in2="effect3_dropShadow_222_1793" result="effect4_dropShadow_222_1793"/>
<feColorMatrix in="SourceAlpha" type="matrix" values="0 0 0 0 0 0 0 0 0 0 0 0 0 0 0 0 0 0 127 0" result="hardAlpha"/>
<feMorphology radius="0.444656" operator="erode" in="SourceAlpha" result="effect5_dropShadow_222_1793"/>
<feOffset dy="0.889313"/>
<feGaussianBlur stdDeviation="0.444656"/>
<feComposite in2="hardAlpha" operator="out"/>
<feColorMatrix type="matrix" values="0 0 0 0 0.164706 0 0 0 0 0.2 0 0 0 0 0.27451 0 0 0 0.03 0"/>
<feBlend mode="normal" in2="effect4_dropShadow_222_1793" result="effect5_dropShadow_222_1793"/>
<feColorMatrix in="SourceAlpha" type="matrix" values="0 0 0 0 0 0 0 0 0 0 0 0 0 0 0 0 0 0 127 0" result="hardAlpha"/>
<feMorphology radius="0.889313" operator="dilate" in="SourceAlpha" result="effect6_dropShadow_222_1793"/>
<feOffset/>
<feComposite in2="hardAlpha" operator="out"/>
<feColorMatrix type="matrix" values="0 0 0 0 0.054902 0 0 0 0 0.247059 0 0 0 0 0.494118 0 0 0 0.06 0"/>
<feBlend mode="normal" in2="effect5_dropShadow_222_1793" result="effect6_dropShadow_222_1793"/>
<feBlend mode="normal" in="SourceGraphic" in2="effect6_dropShadow_222_1793" result="shape"/>
</filter>
<filter id="filter2_dddddd_222_1793" x="139.027" y="85.1373" width="120.946" height="124.504" filterUnits="userSpaceOnUse" color-interpolation-filters="sRGB">
<feFlood flood-opacity="0" result="BackgroundImageFix"/>
<feColorMatrix in="SourceAlpha" type="matrix" values="0 0 0 0 0 0 0 0 0 0 0 0 0 0 0 0 0 0 127 0" result="hardAlpha"/>
<feOffset dy="3.55725"/>
<feGaussianBlur stdDeviation="7.1145"/>
<feComposite in2="hardAlpha" operator="out"/>
<feColorMatrix type="matrix" values="0 0 0 0 0.0901961 0 0 0 0 0.0901961 0 0 0 0 0.0901961 0 0 0 0.04 0"/>
<feBlend mode="normal" in2="BackgroundImageFix" result="effect1_dropShadow_222_1793"/>
<feColorMatrix in="SourceAlpha" type="matrix" values="0 0 0 0 0 0 0 0 0 0 0 0 0 0 0 0 0 0 127 0" result="hardAlpha"/>
<feMorphology radius="7.1145" operator="erode" in="SourceAlpha" result="effect2_dropShadow_222_1793"/>
<feOffset dy="14.229"/>
<feGaussianBlur stdDeviation="7.1145"/>
<feComposite in2="hardAlpha" operator="out"/>
<feColorMatrix type="matrix" values="0 0 0 0 0.164706 0 0 0 0 0.2 0 0 0 0 0.27451 0 0 0 0.04 0"/>
<feBlend mode="normal" in2="effect1_dropShadow_222_1793" result="effect2_dropShadow_222_1793"/>
<feColorMatrix in="SourceAlpha" type="matrix" values="0 0 0 0 0 0 0 0 0 0 0 0 0 0 0 0 0 0 127 0" result="hardAlpha"/>
<feMorphology radius="2.22328" operator="erode" in="SourceAlpha" result="effect3_dropShadow_222_1793"/>
<feOffset dy="4.44656"/>
<feGaussianBlur stdDeviation="2.22328"/>
<feComposite in2="hardAlpha" operator="out"/>
<feColorMatrix type="matrix" values="0 0 0 0 0.164706 0 0 0 0 0.2 0 0 0 0 0.27451 0 0 0 0.03 0"/>
<feBlend mode="normal" in2="effect2_dropShadow_222_1793" result="effect3_dropShadow_222_1793"/>
<feColorMatrix in="SourceAlpha" type="matrix" values="0 0 0 0 0 0 0 0 0 0 0 0 0 0 0 0 0 0 127 0" result="hardAlpha"/>
<feMorphology radius="1.33397" operator="erode" in="SourceAlpha" result="effect4_dropShadow_222_1793"/>
<feOffset dy="2.66794"/>
<feGaussianBlur stdDeviation="1.33397"/>
<feComposite in2="hardAlpha" operator="out"/>
<feColorMatrix type="matrix" values="0 0 0 0 0.164706 0 0 0 0 0.2 0 0 0 0 0.27451 0 0 0 0.05 0"/>
<feBlend mode="normal" in2="effect3_dropShadow_222_1793" result="effect4_dropShadow_222_1793"/>
<feColorMatrix in="SourceAlpha" type="matrix" values="0 0 0 0 0 0 0 0 0 0 0 0 0 0 0 0 0 0 127 0" result="hardAlpha"/>
<feMorphology radius="0.444656" operator="erode" in="SourceAlpha" result="effect5_dropShadow_222_1793"/>
<feOffset dy="0.889313"/>
<feGaussianBlur stdDeviation="0.444656"/>
<feComposite in2="hardAlpha" operator="out"/>
<feColorMatrix type="matrix" values="0 0 0 0 0.164706 0 0 0 0 0.2 0 0 0 0 0.27451 0 0 0 0.03 0"/>
<feBlend mode="normal" in2="effect4_dropShadow_222_1793" result="effect5_dropShadow_222_1793"/>
<feColorMatrix in="SourceAlpha" type="matrix" values="0 0 0 0 0 0 0 0 0 0 0 0 0 0 0 0 0 0 127 0" result="hardAlpha"/>
<feMorphology radius="0.889313" operator="dilate" in="SourceAlpha" result="effect6_dropShadow_222_1793"/>
<feOffset/>
<feComposite in2="hardAlpha" operator="out"/>
<feColorMatrix type="matrix" values="0 0 0 0 0.054902 0 0 0 0 0.247059 0 0 0 0 0.494118 0 0 0 0.06 0"/>
<feBlend mode="normal" in2="effect5_dropShadow_222_1793" result="effect6_dropShadow_222_1793"/>
<feBlend mode="normal" in="SourceGraphic" in2="effect6_dropShadow_222_1793" result="shape"/>
</filter>
<filter id="filter3_dddddd_222_1793" x="74.1069" y="49.5648" width="64.0303" height="67.5878" filterUnits="userSpaceOnUse" color-interpolation-filters="sRGB">
<feFlood flood-opacity="0" result="BackgroundImageFix"/>
<feColorMatrix in="SourceAlpha" type="matrix" values="0 0 0 0 0 0 0 0 0 0 0 0 0 0 0 0 0 0 127 0" result="hardAlpha"/>
<feOffset dy="3.55725"/>
<feGaussianBlur stdDeviation="7.1145"/>
<feComposite in2="hardAlpha" operator="out"/>
<feColorMatrix type="matrix" values="0 0 0 0 0.0901961 0 0 0 0 0.0901961 0 0 0 0 0.0901961 0 0 0 0.04 0"/>
<feBlend mode="normal" in2="BackgroundImageFix" result="effect1_dropShadow_222_1793"/>
<feColorMatrix in="SourceAlpha" type="matrix" values="0 0 0 0 0 0 0 0 0 0 0 0 0 0 0 0 0 0 127 0" result="hardAlpha"/>
<feMorphology radius="7.1145" operator="erode" in="SourceAlpha" result="effect2_dropShadow_222_1793"/>
<feOffset dy="14.229"/>
<feGaussianBlur stdDeviation="7.1145"/>
<feComposite in2="hardAlpha" operator="out"/>
<feColorMatrix type="matrix" values="0 0 0 0 0.164706 0 0 0 0 0.2 0 0 0 0 0.27451 0 0 0 0.04 0"/>
<feBlend mode="normal" in2="effect1_dropShadow_222_1793" result="effect2_dropShadow_222_1793"/>
<feColorMatrix in="SourceAlpha" type="matrix" values="0 0 0 0 0 0 0 0 0 0 0 0 0 0 0 0 0 0 127 0" result="hardAlpha"/>
<feMorphology radius="2.22328" operator="erode" in="SourceAlpha" result="effect3_dropShadow_222_1793"/>
<feOffset dy="4.44656"/>
<feGaussianBlur stdDeviation="2.22328"/>
<feComposite in2="hardAlpha" operator="out"/>
<feColorMatrix type="matrix" values="0 0 0 0 0.164706 0 0 0 0 0.2 0 0 0 0 0.27451 0 0 0 0.03 0"/>
<feBlend mode="normal" in2="effect2_dropShadow_222_1793" result="effect3_dropShadow_222_1793"/>
<feColorMatrix in="SourceAlpha" type="matrix" values="0 0 0 0 0 0 0 0 0 0 0 0 0 0 0 0 0 0 127 0" result="hardAlpha"/>
<feMorphology radius="1.33397" operator="erode" in="SourceAlpha" result="effect4_dropShadow_222_1793"/>
<feOffset dy="2.66794"/>
<feGaussianBlur stdDeviation="1.33397"/>
<feComposite in2="hardAlpha" operator="out"/>
<feColorMatrix type="matrix" values="0 0 0 0 0.164706 0 0 0 0 0.2 0 0 0 0 0.27451 0 0 0 0.05 0"/>
<feBlend mode="normal" in2="effect3_dropShadow_222_1793" result="effect4_dropShadow_222_1793"/>
<feColorMatrix in="SourceAlpha" type="matrix" values="0 0 0 0 0 0 0 0 0 0 0 0 0 0 0 0 0 0 127 0" result="hardAlpha"/>
<feMorphology radius="0.444656" operator="erode" in="SourceAlpha" result="effect5_dropShadow_222_1793"/>
<feOffset dy="0.889313"/>
<feGaussianBlur stdDeviation="0.444656"/>
<feComposite in2="hardAlpha" operator="out"/>
<feColorMatrix type="matrix" values="0 0 0 0 0.164706 0 0 0 0 0.2 0 0 0 0 0.27451 0 0 0 0.03 0"/>
<feBlend mode="normal" in2="effect4_dropShadow_222_1793" result="effect5_dropShadow_222_1793"/>
<feColorMatrix in="SourceAlpha" type="matrix" values="0 0 0 0 0 0 0 0 0 0 0 0 0 0 0 0 0 0 127 0" result="hardAlpha"/>
<feMorphology radius="0.889313" operator="dilate" in="SourceAlpha" result="effect6_dropShadow_222_1793"/>
<feOffset/>
<feComposite in2="hardAlpha" operator="out"/>
<feColorMatrix type="matrix" values="0 0 0 0 0.054902 0 0 0 0 0.247059 0 0 0 0 0.494118 0 0 0 0.06 0"/>
<feBlend mode="normal" in2="effect5_dropShadow_222_1793" result="effect6_dropShadow_222_1793"/>
<feBlend mode="normal" in="SourceGraphic" in2="effect6_dropShadow_222_1793" result="shape"/>
</filter>
<filter id="filter4_ddddd_222_1793" x="123.098" y="206.092" width="152.801" height="37.3435" filterUnits="userSpaceOnUse" color-interpolation-filters="sRGB">
<feFlood flood-opacity="0" result="BackgroundImageFix"/>
<feColorMatrix in="SourceAlpha" type="matrix" values="0 0 0 0 0 0 0 0 0 0 0 0 0 0 0 0 0 0 127 0" result="hardAlpha"/>
<feMorphology radius="7.1145" operator="erode" in="SourceAlpha" result="effect1_dropShadow_222_1793"/>
<feOffset/>
<feGaussianBlur stdDeviation="7.1145"/>
<feComposite in2="hardAlpha" operator="out"/>
<feColorMatrix type="matrix" values="0 0 0 0 0.164706 0 0 0 0 0.2 0 0 0 0 0.27451 0 0 0 0.04 0"/>
<feBlend mode="normal" in2="BackgroundImageFix" result="effect1_dropShadow_222_1793"/>
<feColorMatrix in="SourceAlpha" type="matrix" values="0 0 0 0 0 0 0 0 0 0 0 0 0 0 0 0 0 0 127 0" result="hardAlpha"/>
<feMorphology radius="2.22328" operator="erode" in="SourceAlpha" result="effect2_dropShadow_222_1793"/>
<feOffset dy="1.77863"/>
<feGaussianBlur stdDeviation="2.22328"/>
<feComposite in2="hardAlpha" operator="out"/>
<feColorMatrix type="matrix" values="0 0 0 0 0.164706 0 0 0 0 0.2 0 0 0 0 0.27451 0 0 0 0.02 0"/>
<feBlend mode="normal" in2="effect1_dropShadow_222_1793" result="effect2_dropShadow_222_1793"/>
<feColorMatrix in="SourceAlpha" type="matrix" values="0 0 0 0 0 0 0 0 0 0 0 0 0 0 0 0 0 0 127 0" result="hardAlpha"/>
<feMorphology radius="1.33397" operator="erode" in="SourceAlpha" result="effect3_dropShadow_222_1793"/>
<feOffset dy="2.66794"/>
<feGaussianBlur stdDeviation="1.33397"/>
<feComposite in2="hardAlpha" operator="out"/>
<feColorMatrix type="matrix" values="0 0 0 0 0.164706 0 0 0 0 0.2 0 0 0 0 0.27451 0 0 0 0.05 0"/>
<feBlend mode="normal" in2="effect2_dropShadow_222_1793" result="effect3_dropShadow_222_1793"/>
<feColorMatrix in="SourceAlpha" type="matrix" values="0 0 0 0 0 0 0 0 0 0 0 0 0 0 0 0 0 0 127 0" result="hardAlpha"/>
<feMorphology radius="0.444656" operator="erode" in="SourceAlpha" result="effect4_dropShadow_222_1793"/>
<feOffset dy="0.889313"/>
<feGaussianBlur stdDeviation="0.444656"/>
<feComposite in2="hardAlpha" operator="out"/>
<feColorMatrix type="matrix" values="0 0 0 0 0.164706 0 0 0 0 0.2 0 0 0 0 0.27451 0 0 0 0.03 0"/>
<feBlend mode="normal" in2="effect3_dropShadow_222_1793" result="effect4_dropShadow_222_1793"/>
<feColorMatrix in="SourceAlpha" type="matrix" values="0 0 0 0 0 0 0 0 0 0 0 0 0 0 0 0 0 0 127 0" result="hardAlpha"/>
<feMorphology radius="0.889313" operator="dilate" in="SourceAlpha" result="effect5_dropShadow_222_1793"/>
<feOffset/>
<feComposite in2="hardAlpha" operator="out"/>
<feColorMatrix type="matrix" values="0 0 0 0 0.054902 0 0 0 0 0.247059 0 0 0 0 0.494118 0 0 0 0.06 0"/>
<feBlend mode="normal" in2="effect4_dropShadow_222_1793" result="effect5_dropShadow_222_1793"/>
<feBlend mode="normal" in="SourceGraphic" in2="effect5_dropShadow_222_1793" result="shape"/>
</filter>
<linearGradient id="paint0_linear_222_1793" x1="191.168" y1="166.971" x2="175.154" y2="204.091" gradientUnits="userSpaceOnUse">
<stop stop-color="#0B84FE"/>
<stop offset="1" stop-color="#E5E5E5"/>
</linearGradient>
<linearGradient id="paint1_linear_222_1793" x1="294.314" y1="159.712" x2="236.683" y2="122.806" gradientUnits="userSpaceOnUse">
<stop stop-color="#1F77D6"/>
<stop offset="1" stop-color="#E5E5E5"/>
</linearGradient>
<linearGradient id="paint2_linear_222_1793" x1="242.948" y1="47.5128" x2="216.088" y2="99.35" gradientUnits="userSpaceOnUse">
<stop stop-color="#1F77D6"/>
<stop offset="1" stop-color="#E5E5E5"/>
</linearGradient>
<linearGradient id="paint3_linear_222_1793" x1="104.685" y1="96.8263" x2="162.316" y2="133.732" gradientUnits="userSpaceOnUse">
<stop stop-color="#1F77D6"/>
<stop offset="1" stop-color="#E5E5E5"/>
</linearGradient>
<clipPath id="clip0_222_1793">
<rect width="397.333" height="268" fill="white" transform="translate(0.333984)"/>
</clipPath>
<clipPath id="clip1_222_1793">
<rect x="83" y="30" width="233" height="224.107" rx="10.6718" fill="white"/>
</clipPath>
</defs>
</svg>
