<svg width="397" height="268" viewBox="0 0 397 268" fill="none" xmlns="http://www.w3.org/2000/svg">
<g clip-path="url(#clip0_70_773)">
<circle opacity="0.6" cx="198.332" cy="134" r="76.5" stroke="#E5E5E5"/>
<circle opacity="0.4" cx="198.332" cy="134" r="112.5" stroke="#E5E5E5"/>
<circle opacity="0.3" cx="198.332" cy="134" r="150.5" stroke="#E5E5E5"/>
<circle cx="198.332" cy="134" r="48" stroke="#F5F5F5" stroke-width="8"/>
<g filter="url(#filter0_dddddd_70_773)">
<circle cx="198.332" cy="134" r="44" fill="#0B84FE"/>
<circle cx="198.332" cy="134" r="43.5" stroke="#0175EA"/>
</g>
<circle cx="198.668" cy="134" r="32" stroke="white" stroke-width="8"/>
<mask id="path-8-inside-1_70_773" fill="white">
<path d="M175.992 111.324C174.457 109.789 171.948 109.777 170.59 111.47C166.236 116.896 163.529 123.492 162.841 130.471C162.025 138.76 164.108 147.075 168.735 154.001C173.362 160.926 180.248 166.032 188.218 168.45C196.188 170.868 204.75 170.447 212.445 167.26C220.139 164.072 226.491 158.316 230.417 150.97C234.343 143.625 235.601 135.146 233.976 126.977C232.351 118.808 227.944 111.455 221.506 106.172C216.085 101.723 209.506 98.9723 202.591 98.2143C200.433 97.9778 198.668 99.7598 198.668 101.931C198.668 104.102 200.436 105.833 202.586 106.135C207.679 106.852 212.505 108.954 216.519 112.249C221.551 116.378 224.996 122.125 226.266 128.51C227.536 134.895 226.553 141.523 223.484 147.264C220.415 153.006 215.451 157.505 209.436 159.997C203.422 162.488 196.729 162.817 190.5 160.927C184.27 159.037 178.888 155.046 175.272 149.633C171.655 144.22 170.027 137.721 170.665 131.242C171.174 126.074 173.1 121.175 176.194 117.067C177.501 115.333 177.527 112.859 175.992 111.324Z"/>
</mask>
<path d="M175.992 111.324C174.457 109.789 171.948 109.777 170.59 111.47C166.236 116.896 163.529 123.492 162.841 130.471C162.025 138.76 164.108 147.075 168.735 154.001C173.362 160.926 180.248 166.032 188.218 168.45C196.188 170.868 204.75 170.447 212.445 167.26C220.139 164.072 226.491 158.316 230.417 150.97C234.343 143.625 235.601 135.146 233.976 126.977C232.351 118.808 227.944 111.455 221.506 106.172C216.085 101.723 209.506 98.9723 202.591 98.2143C200.433 97.9778 198.668 99.7598 198.668 101.931C198.668 104.102 200.436 105.833 202.586 106.135C207.679 106.852 212.505 108.954 216.519 112.249C221.551 116.378 224.996 122.125 226.266 128.51C227.536 134.895 226.553 141.523 223.484 147.264C220.415 153.006 215.451 157.505 209.436 159.997C203.422 162.488 196.729 162.817 190.5 160.927C184.27 159.037 178.888 155.046 175.272 149.633C171.655 144.22 170.027 137.721 170.665 131.242C171.174 126.074 173.1 121.175 176.194 117.067C177.501 115.333 177.527 112.859 175.992 111.324Z" stroke="#FFD643" stroke-width="20" mask="url(#path-8-inside-1_70_773)"/>
<path d="M185.476 140.24C184.724 140.24 184.057 140.091 183.476 139.792C182.9 139.488 182.447 139.067 182.116 138.528C181.791 137.989 181.628 137.365 181.628 136.656C181.628 135.995 181.783 135.389 182.092 134.84C182.401 134.291 182.863 133.859 183.476 133.544L183.444 134.12C182.953 133.816 182.575 133.437 182.308 132.984C182.047 132.525 181.916 132.013 181.916 131.448C181.916 130.792 182.068 130.224 182.372 129.744C182.676 129.264 183.095 128.893 183.628 128.632C184.167 128.371 184.783 128.24 185.476 128.24C186.169 128.24 186.783 128.371 187.316 128.632C187.849 128.893 188.268 129.264 188.572 129.744C188.876 130.224 189.028 130.792 189.028 131.448C189.028 132.013 188.903 132.523 188.652 132.976C188.401 133.429 188.017 133.811 187.5 134.12L187.476 133.56C188.084 133.859 188.545 134.285 188.86 134.84C189.175 135.389 189.332 135.995 189.332 136.656C189.332 137.365 189.167 137.989 188.836 138.528C188.505 139.067 188.049 139.488 187.468 139.792C186.887 140.091 186.223 140.24 185.476 140.24ZM185.476 138.648C186.095 138.648 186.596 138.48 186.98 138.144C187.364 137.803 187.556 137.307 187.556 136.656C187.556 136.005 187.364 135.509 186.98 135.168C186.601 134.821 186.1 134.648 185.476 134.648C184.852 134.648 184.348 134.821 183.964 135.168C183.585 135.509 183.396 136.005 183.396 136.656C183.396 137.307 183.588 137.803 183.972 138.144C184.356 138.48 184.857 138.648 185.476 138.648ZM185.476 133.048C186.004 133.048 186.431 132.917 186.756 132.656C187.087 132.389 187.252 131.987 187.252 131.448C187.252 130.909 187.087 130.507 186.756 130.24C186.431 129.968 186.004 129.832 185.476 129.832C184.948 129.832 184.519 129.968 184.188 130.24C183.857 130.507 183.692 130.909 183.692 131.448C183.692 131.987 183.857 132.389 184.188 132.656C184.519 132.917 184.948 133.048 185.476 133.048ZM195.429 140.24C194.645 140.24 193.952 140.069 193.349 139.728C192.746 139.381 192.272 138.907 191.925 138.304C191.584 137.701 191.413 137.008 191.413 136.224V132.256C191.413 131.472 191.584 130.779 191.925 130.176C192.272 129.573 192.746 129.101 193.349 128.76C193.952 128.413 194.645 128.24 195.429 128.24C196.213 128.24 196.906 128.413 197.509 128.76C198.112 129.101 198.584 129.573 198.925 130.176C199.272 130.779 199.445 131.472 199.445 132.256V136.224C199.445 137.008 199.272 137.701 198.925 138.304C198.584 138.907 198.112 139.381 197.509 139.728C196.906 140.069 196.213 140.24 195.429 140.24ZM195.429 138.64C195.856 138.64 196.242 138.539 196.589 138.336C196.941 138.128 197.221 137.851 197.429 137.504C197.637 137.152 197.741 136.76 197.741 136.328V132.136C197.741 131.709 197.637 131.323 197.429 130.976C197.221 130.624 196.941 130.347 196.589 130.144C196.242 129.936 195.856 129.832 195.429 129.832C195.002 129.832 194.613 129.936 194.261 130.144C193.914 130.347 193.637 130.624 193.429 130.976C193.221 131.323 193.117 131.709 193.117 132.136V136.328C193.117 136.76 193.221 137.152 193.429 137.504C193.637 137.851 193.914 138.128 194.261 138.336C194.613 138.539 195.002 138.64 195.429 138.64ZM203.119 140L201.999 138.88L212.407 128.48L213.527 129.608L203.119 140ZM211.127 140.24C210.599 140.24 210.116 140.112 209.679 139.856C209.247 139.595 208.9 139.248 208.639 138.816C208.377 138.379 208.247 137.893 208.247 137.36C208.247 136.837 208.38 136.357 208.647 135.92C208.913 135.483 209.265 135.133 209.703 134.872C210.14 134.611 210.615 134.48 211.127 134.48C211.655 134.48 212.137 134.611 212.575 134.872C213.012 135.128 213.359 135.475 213.615 135.912C213.876 136.344 214.007 136.827 214.007 137.36C214.007 137.893 213.876 138.379 213.615 138.816C213.359 139.248 213.012 139.595 212.575 139.856C212.137 140.112 211.655 140.24 211.127 140.24ZM211.127 138.792C211.388 138.792 211.625 138.728 211.839 138.6C212.057 138.467 212.231 138.291 212.359 138.072C212.492 137.853 212.559 137.616 212.559 137.36C212.559 137.104 212.492 136.867 212.359 136.648C212.231 136.429 212.057 136.256 211.839 136.128C211.625 135.995 211.388 135.928 211.127 135.928C210.871 135.928 210.633 135.995 210.415 136.128C210.201 136.256 210.028 136.429 209.895 136.648C209.767 136.867 209.703 137.104 209.703 137.36C209.703 137.616 209.767 137.853 209.895 138.072C210.028 138.291 210.201 138.467 210.415 138.6C210.633 138.728 210.871 138.792 211.127 138.792ZM204.399 134C203.871 134 203.388 133.872 202.951 133.616C202.513 133.355 202.164 133.008 201.903 132.576C201.647 132.139 201.519 131.653 201.519 131.12C201.519 130.597 201.652 130.117 201.919 129.68C202.185 129.243 202.537 128.893 202.975 128.632C203.412 128.371 203.887 128.24 204.399 128.24C204.927 128.24 205.407 128.371 205.839 128.632C206.276 128.888 206.625 129.235 206.887 129.672C207.148 130.104 207.279 130.587 207.279 131.12C207.279 131.653 207.148 132.139 206.887 132.576C206.625 133.008 206.276 133.355 205.839 133.616C205.407 133.872 204.927 134 204.399 134ZM204.399 132.552C204.655 132.552 204.892 132.488 205.111 132.36C205.329 132.227 205.503 132.051 205.631 131.832C205.764 131.613 205.831 131.376 205.831 131.12C205.831 130.864 205.764 130.627 205.631 130.408C205.503 130.189 205.329 130.016 205.111 129.888C204.892 129.755 204.655 129.688 204.399 129.688C204.143 129.688 203.905 129.755 203.687 129.888C203.473 130.016 203.3 130.189 203.167 130.408C203.033 130.627 202.967 130.864 202.967 131.12C202.967 131.376 203.033 131.613 203.167 131.832C203.3 132.051 203.473 132.227 203.687 132.36C203.9 132.488 204.137 132.552 204.399 132.552Z" fill="white"/>
<g filter="url(#filter1_ddddd_70_773)">
<rect x="153" y="200" width="92" height="36" rx="18" fill="white" shape-rendering="crispEdges"/>
<rect x="153.5" y="200.5" width="91" height="35" rx="17.5" stroke="#E5E5E5" shape-rendering="crispEdges"/>
<path d="M171 211.5C169.714 211.5 168.458 211.881 167.389 212.595C166.32 213.31 165.487 214.325 164.995 215.513C164.503 216.7 164.374 218.007 164.625 219.268C164.876 220.529 165.495 221.687 166.404 222.596C167.313 223.505 168.471 224.124 169.732 224.375C170.993 224.626 172.3 224.497 173.487 224.005C174.675 223.513 175.69 222.68 176.405 221.611C177.119 220.542 177.5 219.286 177.5 218C177.498 216.277 176.813 214.624 175.594 213.406C174.376 212.187 172.723 211.502 171 211.5ZM173.854 216.854L170.354 220.354C170.307 220.4 170.252 220.437 170.191 220.462C170.131 220.487 170.066 220.5 170 220.5C169.934 220.5 169.869 220.487 169.809 220.462C169.748 220.437 169.693 220.4 169.646 220.354L168.146 218.854C168.052 218.76 168 218.633 168 218.5C168 218.367 168.052 218.24 168.146 218.146C168.24 218.052 168.367 218 168.5 218C168.633 218 168.76 218.052 168.854 218.146L170 219.293L173.146 216.146C173.193 216.1 173.248 216.063 173.309 216.038C173.369 216.013 173.434 216 173.5 216C173.566 216 173.631 216.013 173.691 216.038C173.752 216.063 173.807 216.1 173.854 216.146C173.9 216.193 173.937 216.248 173.962 216.309C173.987 216.369 174 216.434 174 216.5C174 216.566 173.987 216.631 173.962 216.691C173.937 216.752 173.9 216.807 173.854 216.854Z" fill="#0B84FE"/>
<path d="M185.678 224V222.424H186.094C186.419 222.424 186.694 222.307 186.918 222.072C187.147 221.832 187.262 221.555 187.262 221.24V215.296C187.262 214.709 187.403 214.187 187.686 213.728C187.968 213.264 188.35 212.901 188.83 212.64C189.315 212.373 189.854 212.24 190.446 212.24C190.984 212.24 191.456 212.36 191.862 212.6C192.267 212.84 192.614 213.179 192.902 213.616C193.195 214.048 193.443 214.552 193.646 215.128L192.126 215.624C191.95 215.048 191.728 214.605 191.462 214.296C191.2 213.987 190.862 213.832 190.446 213.832C190.003 213.832 189.646 213.976 189.374 214.264C189.107 214.547 188.974 214.915 188.974 215.368L188.958 222.424H192.998V224H185.678ZM185.678 218.992V217.4H191.55V218.992H185.678ZM197.362 224V214.32L195.194 215.64V213.776L197.362 212.48H199.066V224H197.362ZM201.304 225.912L201.408 225.168C201.637 225.184 201.816 225.141 201.944 225.04C202.072 224.939 202.157 224.797 202.2 224.616C202.242 224.435 202.25 224.229 202.224 224H201.304V222.072H203.072V224.16C203.072 224.789 202.92 225.264 202.616 225.584C202.317 225.904 201.88 226.013 201.304 225.912ZM205.784 223.992L205.792 222.504L210.808 218.008C211.214 217.651 211.488 217.309 211.632 216.984C211.782 216.659 211.856 216.333 211.856 216.008C211.856 215.597 211.766 215.229 211.584 214.904C211.403 214.573 211.152 214.312 210.832 214.12C210.512 213.928 210.144 213.832 209.728 213.832C209.302 213.832 208.92 213.933 208.584 214.136C208.254 214.333 207.995 214.597 207.808 214.928C207.622 215.259 207.531 215.616 207.536 216H205.824C205.824 215.253 205.992 214.6 206.328 214.04C206.67 213.475 207.136 213.035 207.728 212.72C208.32 212.4 208.998 212.24 209.76 212.24C210.486 212.24 211.136 212.405 211.712 212.736C212.288 213.061 212.742 213.509 213.072 214.08C213.408 214.651 213.576 215.301 213.576 216.032C213.576 216.56 213.507 217.008 213.368 217.376C213.23 217.744 213.022 218.085 212.744 218.4C212.467 218.715 212.12 219.056 211.704 219.424L207.832 222.88L207.648 222.4H213.576V223.992H205.784ZM219.511 224.24C218.727 224.24 218.034 224.069 217.431 223.728C216.828 223.381 216.354 222.907 216.007 222.304C215.666 221.701 215.495 221.008 215.495 220.224V216.256C215.495 215.472 215.666 214.779 216.007 214.176C216.354 213.573 216.828 213.101 217.431 212.76C218.034 212.413 218.727 212.24 219.511 212.24C220.295 212.24 220.988 212.413 221.591 212.76C222.194 213.101 222.666 213.573 223.007 214.176C223.354 214.779 223.527 215.472 223.527 216.256V220.224C223.527 221.008 223.354 221.701 223.007 222.304C222.666 222.907 222.194 223.381 221.591 223.728C220.988 224.069 220.295 224.24 219.511 224.24ZM219.511 222.64C219.938 222.64 220.324 222.539 220.671 222.336C221.023 222.128 221.303 221.851 221.511 221.504C221.719 221.152 221.823 220.76 221.823 220.328V216.136C221.823 215.709 221.719 215.323 221.511 214.976C221.303 214.624 221.023 214.347 220.671 214.144C220.324 213.936 219.938 213.832 219.511 213.832C219.084 213.832 218.695 213.936 218.343 214.144C217.996 214.347 217.719 214.624 217.511 214.976C217.303 215.323 217.199 215.709 217.199 216.136V220.328C217.199 220.76 217.303 221.152 217.511 221.504C217.719 221.851 217.996 222.128 218.343 222.336C218.695 222.539 219.084 222.64 219.511 222.64ZM229.777 224.24C228.993 224.24 228.299 224.069 227.697 223.728C227.094 223.381 226.619 222.907 226.273 222.304C225.931 221.701 225.761 221.008 225.761 220.224V216.256C225.761 215.472 225.931 214.779 226.273 214.176C226.619 213.573 227.094 213.101 227.697 212.76C228.299 212.413 228.993 212.24 229.777 212.24C230.561 212.24 231.254 212.413 231.857 212.76C232.459 213.101 232.931 213.573 233.273 214.176C233.619 214.779 233.793 215.472 233.793 216.256V220.224C233.793 221.008 233.619 221.701 233.273 222.304C232.931 222.907 232.459 223.381 231.857 223.728C231.254 224.069 230.561 224.24 229.777 224.24ZM229.777 222.64C230.203 222.64 230.59 222.539 230.937 222.336C231.289 222.128 231.569 221.851 231.777 221.504C231.985 221.152 232.089 220.76 232.089 220.328V216.136C232.089 215.709 231.985 215.323 231.777 214.976C231.569 214.624 231.289 214.347 230.937 214.144C230.59 213.936 230.203 213.832 229.777 213.832C229.35 213.832 228.961 213.936 228.609 214.144C228.262 214.347 227.985 214.624 227.777 214.976C227.569 215.323 227.465 215.709 227.465 216.136V220.328C227.465 220.76 227.569 221.152 227.777 221.504C227.985 221.851 228.262 222.128 228.609 222.336C228.961 222.539 229.35 222.64 229.777 222.64Z" fill="#525252"/>
</g>
</g>
<defs>
<filter id="filter0_dddddd_70_773" x="138.332" y="78" width="120" height="124" filterUnits="userSpaceOnUse" color-interpolation-filters="sRGB">
<feFlood flood-opacity="0" result="BackgroundImageFix"/>
<feColorMatrix in="SourceAlpha" type="matrix" values="0 0 0 0 0 0 0 0 0 0 0 0 0 0 0 0 0 0 127 0" result="hardAlpha"/>
<feOffset dy="4"/>
<feGaussianBlur stdDeviation="8"/>
<feComposite in2="hardAlpha" operator="out"/>
<feColorMatrix type="matrix" values="0 0 0 0 0.0901961 0 0 0 0 0.0901961 0 0 0 0 0.0901961 0 0 0 0.04 0"/>
<feBlend mode="normal" in2="BackgroundImageFix" result="effect1_dropShadow_70_773"/>
<feColorMatrix in="SourceAlpha" type="matrix" values="0 0 0 0 0 0 0 0 0 0 0 0 0 0 0 0 0 0 127 0" result="hardAlpha"/>
<feMorphology radius="8" operator="erode" in="SourceAlpha" result="effect2_dropShadow_70_773"/>
<feOffset dy="16"/>
<feGaussianBlur stdDeviation="8"/>
<feComposite in2="hardAlpha" operator="out"/>
<feColorMatrix type="matrix" values="0 0 0 0 0.164706 0 0 0 0 0.2 0 0 0 0 0.27451 0 0 0 0.04 0"/>
<feBlend mode="normal" in2="effect1_dropShadow_70_773" result="effect2_dropShadow_70_773"/>
<feColorMatrix in="SourceAlpha" type="matrix" values="0 0 0 0 0 0 0 0 0 0 0 0 0 0 0 0 0 0 127 0" result="hardAlpha"/>
<feMorphology radius="2.5" operator="erode" in="SourceAlpha" result="effect3_dropShadow_70_773"/>
<feOffset dy="5"/>
<feGaussianBlur stdDeviation="2.5"/>
<feComposite in2="hardAlpha" operator="out"/>
<feColorMatrix type="matrix" values="0 0 0 0 0.164706 0 0 0 0 0.2 0 0 0 0 0.27451 0 0 0 0.03 0"/>
<feBlend mode="normal" in2="effect2_dropShadow_70_773" result="effect3_dropShadow_70_773"/>
<feColorMatrix in="SourceAlpha" type="matrix" values="0 0 0 0 0 0 0 0 0 0 0 0 0 0 0 0 0 0 127 0" result="hardAlpha"/>
<feMorphology radius="1.5" operator="erode" in="SourceAlpha" result="effect4_dropShadow_70_773"/>
<feOffset dy="3"/>
<feGaussianBlur stdDeviation="1.5"/>
<feComposite in2="hardAlpha" operator="out"/>
<feColorMatrix type="matrix" values="0 0 0 0 0.164706 0 0 0 0 0.2 0 0 0 0 0.27451 0 0 0 0.05 0"/>
<feBlend mode="normal" in2="effect3_dropShadow_70_773" result="effect4_dropShadow_70_773"/>
<feColorMatrix in="SourceAlpha" type="matrix" values="0 0 0 0 0 0 0 0 0 0 0 0 0 0 0 0 0 0 127 0" result="hardAlpha"/>
<feMorphology radius="0.5" operator="erode" in="SourceAlpha" result="effect5_dropShadow_70_773"/>
<feOffset dy="1"/>
<feGaussianBlur stdDeviation="0.5"/>
<feComposite in2="hardAlpha" operator="out"/>
<feColorMatrix type="matrix" values="0 0 0 0 0.164706 0 0 0 0 0.2 0 0 0 0 0.27451 0 0 0 0.03 0"/>
<feBlend mode="normal" in2="effect4_dropShadow_70_773" result="effect5_dropShadow_70_773"/>
<feColorMatrix in="SourceAlpha" type="matrix" values="0 0 0 0 0 0 0 0 0 0 0 0 0 0 0 0 0 0 127 0" result="hardAlpha"/>
<feMorphology radius="1" operator="dilate" in="SourceAlpha" result="effect6_dropShadow_70_773"/>
<feOffset/>
<feComposite in2="hardAlpha" operator="out"/>
<feColorMatrix type="matrix" values="0 0 0 0 0.054902 0 0 0 0 0.247059 0 0 0 0 0.494118 0 0 0 0.06 0"/>
<feBlend mode="normal" in2="effect5_dropShadow_70_773" result="effect6_dropShadow_70_773"/>
<feBlend mode="normal" in="SourceGraphic" in2="effect6_dropShadow_70_773" result="shape"/>
</filter>
<filter id="filter1_ddddd_70_773" x="145" y="192" width="108" height="52" filterUnits="userSpaceOnUse" color-interpolation-filters="sRGB">
<feFlood flood-opacity="0" result="BackgroundImageFix"/>
<feColorMatrix in="SourceAlpha" type="matrix" values="0 0 0 0 0 0 0 0 0 0 0 0 0 0 0 0 0 0 127 0" result="hardAlpha"/>
<feMorphology radius="8" operator="erode" in="SourceAlpha" result="effect1_dropShadow_70_773"/>
<feOffset/>
<feGaussianBlur stdDeviation="8"/>
<feComposite in2="hardAlpha" operator="out"/>
<feColorMatrix type="matrix" values="0 0 0 0 0.164706 0 0 0 0 0.2 0 0 0 0 0.27451 0 0 0 0.04 0"/>
<feBlend mode="normal" in2="BackgroundImageFix" result="effect1_dropShadow_70_773"/>
<feColorMatrix in="SourceAlpha" type="matrix" values="0 0 0 0 0 0 0 0 0 0 0 0 0 0 0 0 0 0 127 0" result="hardAlpha"/>
<feMorphology radius="2.5" operator="erode" in="SourceAlpha" result="effect2_dropShadow_70_773"/>
<feOffset dy="2"/>
<feGaussianBlur stdDeviation="2.5"/>
<feComposite in2="hardAlpha" operator="out"/>
<feColorMatrix type="matrix" values="0 0 0 0 0.164706 0 0 0 0 0.2 0 0 0 0 0.27451 0 0 0 0.02 0"/>
<feBlend mode="normal" in2="effect1_dropShadow_70_773" result="effect2_dropShadow_70_773"/>
<feColorMatrix in="SourceAlpha" type="matrix" values="0 0 0 0 0 0 0 0 0 0 0 0 0 0 0 0 0 0 127 0" result="hardAlpha"/>
<feMorphology radius="1.5" operator="erode" in="SourceAlpha" result="effect3_dropShadow_70_773"/>
<feOffset dy="3"/>
<feGaussianBlur stdDeviation="1.5"/>
<feComposite in2="hardAlpha" operator="out"/>
<feColorMatrix type="matrix" values="0 0 0 0 0.164706 0 0 0 0 0.2 0 0 0 0 0.27451 0 0 0 0.05 0"/>
<feBlend mode="normal" in2="effect2_dropShadow_70_773" result="effect3_dropShadow_70_773"/>
<feColorMatrix in="SourceAlpha" type="matrix" values="0 0 0 0 0 0 0 0 0 0 0 0 0 0 0 0 0 0 127 0" result="hardAlpha"/>
<feMorphology radius="0.5" operator="erode" in="SourceAlpha" result="effect4_dropShadow_70_773"/>
<feOffset dy="1"/>
<feGaussianBlur stdDeviation="0.5"/>
<feComposite in2="hardAlpha" operator="out"/>
<feColorMatrix type="matrix" values="0 0 0 0 0.164706 0 0 0 0 0.2 0 0 0 0 0.27451 0 0 0 0.03 0"/>
<feBlend mode="normal" in2="effect3_dropShadow_70_773" result="effect4_dropShadow_70_773"/>
<feColorMatrix in="SourceAlpha" type="matrix" values="0 0 0 0 0 0 0 0 0 0 0 0 0 0 0 0 0 0 127 0" result="hardAlpha"/>
<feMorphology radius="1" operator="dilate" in="SourceAlpha" result="effect5_dropShadow_70_773"/>
<feOffset/>
<feComposite in2="hardAlpha" operator="out"/>
<feColorMatrix type="matrix" values="0 0 0 0 0.054902 0 0 0 0 0.247059 0 0 0 0 0.494118 0 0 0 0.06 0"/>
<feBlend mode="normal" in2="effect4_dropShadow_70_773" result="effect5_dropShadow_70_773"/>
<feBlend mode="normal" in="SourceGraphic" in2="effect5_dropShadow_70_773" result="shape"/>
</filter>
<clipPath id="clip0_70_773">
<rect width="396.667" height="268" fill="white" transform="translate(0.332031)"/>
</clipPath>
</defs>
</svg>
