<svg width="398" height="268" viewBox="0 0 398 268" fill="none" xmlns="http://www.w3.org/2000/svg">
<g clip-path="url(#clip0_222_1840)">
<circle opacity="0.6" cx="199.666" cy="134" r="76.5" stroke="#E5E5E5"/>
<circle opacity="0.4" cx="199.666" cy="134" r="112.5" stroke="#E5E5E5"/>
<circle opacity="0.3" cx="199.666" cy="134" r="150.5" stroke="#E5E5E5"/>
<circle cx="199.666" cy="134" r="48" stroke="#F5F5F5" stroke-width="8"/>
<g filter="url(#filter0_dddddd_222_1840)">
<circle cx="199.666" cy="134" r="44" fill="#0B84FE"/>
<circle cx="199.666" cy="134" r="43.5" stroke="#0175EA"/>
</g>
<circle cx="200" cy="134" r="32" stroke="white" stroke-width="8"/>
<mask id="path-8-inside-1_222_1840" fill="white">
<path d="M177.324 111.324C175.789 109.789 173.28 109.777 171.922 111.47C167.568 116.896 164.861 123.492 164.173 130.471C163.357 138.76 165.44 147.075 170.067 154.001C174.694 160.926 181.58 166.032 189.55 168.45C197.52 170.868 206.082 170.447 213.777 167.26C221.471 164.072 227.823 158.316 231.749 150.97C235.675 143.625 236.933 135.146 235.308 126.977C233.683 118.808 229.276 111.455 222.838 106.172C217.417 101.723 210.838 98.9723 203.923 98.2143C201.765 97.9778 200 99.7598 200 101.931V101.931C200 104.102 201.768 105.833 203.918 106.135C209.011 106.852 213.837 108.954 217.851 112.249C222.883 116.378 226.328 122.125 227.598 128.51C228.868 134.895 227.885 141.523 224.816 147.264C221.747 153.006 216.783 157.505 210.768 159.997C204.754 162.488 198.061 162.817 191.832 160.927C185.602 159.037 180.22 155.046 176.604 149.633C172.987 144.22 171.359 137.721 171.997 131.242C172.506 126.074 174.432 121.175 177.526 117.067C178.833 115.333 178.859 112.859 177.324 111.324V111.324Z"/>
</mask>
<path d="M177.324 111.324C175.789 109.789 173.28 109.777 171.922 111.47C167.568 116.896 164.861 123.492 164.173 130.471C163.357 138.76 165.44 147.075 170.067 154.001C174.694 160.926 181.58 166.032 189.55 168.45C197.52 170.868 206.082 170.447 213.777 167.26C221.471 164.072 227.823 158.316 231.749 150.97C235.675 143.625 236.933 135.146 235.308 126.977C233.683 118.808 229.276 111.455 222.838 106.172C217.417 101.723 210.838 98.9723 203.923 98.2143C201.765 97.9778 200 99.7598 200 101.931V101.931C200 104.102 201.768 105.833 203.918 106.135C209.011 106.852 213.837 108.954 217.851 112.249C222.883 116.378 226.328 122.125 227.598 128.51C228.868 134.895 227.885 141.523 224.816 147.264C221.747 153.006 216.783 157.505 210.768 159.997C204.754 162.488 198.061 162.817 191.832 160.927C185.602 159.037 180.22 155.046 176.604 149.633C172.987 144.22 171.359 137.721 171.997 131.242C172.506 126.074 174.432 121.175 177.526 117.067C178.833 115.333 178.859 112.859 177.324 111.324V111.324Z" stroke="#FFD643" stroke-width="20" mask="url(#path-8-inside-1_222_1840)"/>
<path d="M186.808 140.24C186.056 140.24 185.389 140.091 184.808 139.792C184.232 139.488 183.779 139.067 183.448 138.528C183.123 137.989 182.96 137.365 182.96 136.656C182.96 135.995 183.115 135.389 183.424 134.84C183.733 134.291 184.195 133.859 184.808 133.544L184.776 134.12C184.285 133.816 183.907 133.437 183.64 132.984C183.379 132.525 183.248 132.013 183.248 131.448C183.248 130.792 183.4 130.224 183.704 129.744C184.008 129.264 184.427 128.893 184.96 128.632C185.499 128.371 186.115 128.24 186.808 128.24C187.501 128.24 188.115 128.371 188.648 128.632C189.181 128.893 189.6 129.264 189.904 129.744C190.208 130.224 190.36 130.792 190.36 131.448C190.36 132.013 190.235 132.523 189.984 132.976C189.733 133.429 189.349 133.811 188.832 134.12L188.808 133.56C189.416 133.859 189.877 134.285 190.192 134.84C190.507 135.389 190.664 135.995 190.664 136.656C190.664 137.365 190.499 137.989 190.168 138.528C189.837 139.067 189.381 139.488 188.8 139.792C188.219 140.091 187.555 140.24 186.808 140.24ZM186.808 138.648C187.427 138.648 187.928 138.48 188.312 138.144C188.696 137.803 188.888 137.307 188.888 136.656C188.888 136.005 188.696 135.509 188.312 135.168C187.933 134.821 187.432 134.648 186.808 134.648C186.184 134.648 185.68 134.821 185.296 135.168C184.917 135.509 184.728 136.005 184.728 136.656C184.728 137.307 184.92 137.803 185.304 138.144C185.688 138.48 186.189 138.648 186.808 138.648ZM186.808 133.048C187.336 133.048 187.763 132.917 188.088 132.656C188.419 132.389 188.584 131.987 188.584 131.448C188.584 130.909 188.419 130.507 188.088 130.24C187.763 129.968 187.336 129.832 186.808 129.832C186.28 129.832 185.851 129.968 185.52 130.24C185.189 130.507 185.024 130.909 185.024 131.448C185.024 131.987 185.189 132.389 185.52 132.656C185.851 132.917 186.28 133.048 186.808 133.048ZM196.761 140.24C195.977 140.24 195.284 140.069 194.681 139.728C194.078 139.381 193.604 138.907 193.257 138.304C192.916 137.701 192.745 137.008 192.745 136.224V132.256C192.745 131.472 192.916 130.779 193.257 130.176C193.604 129.573 194.078 129.101 194.681 128.76C195.284 128.413 195.977 128.24 196.761 128.24C197.545 128.24 198.238 128.413 198.841 128.76C199.444 129.101 199.916 129.573 200.257 130.176C200.604 130.779 200.777 131.472 200.777 132.256V136.224C200.777 137.008 200.604 137.701 200.257 138.304C199.916 138.907 199.444 139.381 198.841 139.728C198.238 140.069 197.545 140.24 196.761 140.24ZM196.761 138.64C197.188 138.64 197.574 138.539 197.921 138.336C198.273 138.128 198.553 137.851 198.761 137.504C198.969 137.152 199.073 136.76 199.073 136.328V132.136C199.073 131.709 198.969 131.323 198.761 130.976C198.553 130.624 198.273 130.347 197.921 130.144C197.574 129.936 197.188 129.832 196.761 129.832C196.334 129.832 195.945 129.936 195.593 130.144C195.246 130.347 194.969 130.624 194.761 130.976C194.553 131.323 194.449 131.709 194.449 132.136V136.328C194.449 136.76 194.553 137.152 194.761 137.504C194.969 137.851 195.246 138.128 195.593 138.336C195.945 138.539 196.334 138.64 196.761 138.64ZM204.451 140L203.331 138.88L213.739 128.48L214.859 129.608L204.451 140ZM212.459 140.24C211.931 140.24 211.448 140.112 211.011 139.856C210.579 139.595 210.232 139.248 209.971 138.816C209.709 138.379 209.579 137.893 209.579 137.36C209.579 136.837 209.712 136.357 209.979 135.92C210.245 135.483 210.597 135.133 211.035 134.872C211.472 134.611 211.947 134.48 212.459 134.48C212.987 134.48 213.469 134.611 213.907 134.872C214.344 135.128 214.691 135.475 214.947 135.912C215.208 136.344 215.339 136.827 215.339 137.36C215.339 137.893 215.208 138.379 214.947 138.816C214.691 139.248 214.344 139.595 213.907 139.856C213.469 140.112 212.987 140.24 212.459 140.24ZM212.459 138.792C212.72 138.792 212.957 138.728 213.171 138.6C213.389 138.467 213.563 138.291 213.691 138.072C213.824 137.853 213.891 137.616 213.891 137.36C213.891 137.104 213.824 136.867 213.691 136.648C213.563 136.429 213.389 136.256 213.171 136.128C212.957 135.995 212.72 135.928 212.459 135.928C212.203 135.928 211.965 135.995 211.747 136.128C211.533 136.256 211.36 136.429 211.227 136.648C211.099 136.867 211.035 137.104 211.035 137.36C211.035 137.616 211.099 137.853 211.227 138.072C211.36 138.291 211.533 138.467 211.747 138.6C211.965 138.728 212.203 138.792 212.459 138.792ZM205.731 134C205.203 134 204.72 133.872 204.283 133.616C203.845 133.355 203.496 133.008 203.235 132.576C202.979 132.139 202.851 131.653 202.851 131.12C202.851 130.597 202.984 130.117 203.251 129.68C203.517 129.243 203.869 128.893 204.307 128.632C204.744 128.371 205.219 128.24 205.731 128.24C206.259 128.24 206.739 128.371 207.171 128.632C207.608 128.888 207.957 129.235 208.219 129.672C208.48 130.104 208.611 130.587 208.611 131.12C208.611 131.653 208.48 132.139 208.219 132.576C207.957 133.008 207.608 133.355 207.171 133.616C206.739 133.872 206.259 134 205.731 134ZM205.731 132.552C205.987 132.552 206.224 132.488 206.443 132.36C206.661 132.227 206.835 132.051 206.963 131.832C207.096 131.613 207.163 131.376 207.163 131.12C207.163 130.864 207.096 130.627 206.963 130.408C206.835 130.189 206.661 130.016 206.443 129.888C206.224 129.755 205.987 129.688 205.731 129.688C205.475 129.688 205.237 129.755 205.019 129.888C204.805 130.016 204.632 130.189 204.499 130.408C204.365 130.627 204.299 130.864 204.299 131.12C204.299 131.376 204.365 131.613 204.499 131.832C204.632 132.051 204.805 132.227 205.019 132.36C205.232 132.488 205.469 132.552 205.731 132.552Z" fill="white"/>
<g filter="url(#filter1_ddddd_222_1840)">
<rect x="153.832" y="200" width="93" height="36" rx="18" fill="white" shape-rendering="crispEdges"/>
<rect x="154.332" y="200.5" width="92" height="35" rx="17.5" stroke="#E5E5E5" shape-rendering="crispEdges"/>
<path d="M171.832 211.5C170.546 211.5 169.29 211.881 168.221 212.595C167.152 213.31 166.319 214.325 165.827 215.513C165.335 216.7 165.206 218.007 165.457 219.268C165.708 220.529 166.327 221.687 167.236 222.596C168.145 223.505 169.303 224.124 170.564 224.375C171.825 224.626 173.132 224.497 174.319 224.005C175.507 223.513 176.522 222.68 177.237 221.611C177.951 220.542 178.332 219.286 178.332 218C178.33 216.277 177.645 214.624 176.426 213.406C175.208 212.187 173.555 211.502 171.832 211.5ZM174.686 216.854L171.186 220.354C171.139 220.4 171.084 220.437 171.024 220.462C170.963 220.487 170.898 220.5 170.832 220.5C170.766 220.5 170.701 220.487 170.641 220.462C170.58 220.437 170.525 220.4 170.478 220.354L168.978 218.854C168.884 218.76 168.832 218.633 168.832 218.5C168.832 218.367 168.884 218.24 168.978 218.146C169.072 218.052 169.199 218 169.332 218C169.465 218 169.592 218.052 169.686 218.146L170.832 219.293L173.978 216.146C174.025 216.1 174.08 216.063 174.141 216.038C174.201 216.013 174.266 216 174.332 216C174.398 216 174.463 216.013 174.523 216.038C174.584 216.063 174.639 216.1 174.686 216.146C174.732 216.193 174.769 216.248 174.794 216.309C174.819 216.369 174.832 216.434 174.832 216.5C174.832 216.566 174.819 216.631 174.794 216.691C174.769 216.752 174.732 216.807 174.686 216.854Z" fill="#0B84FE"/>
<path d="M190.218 225.592V223.72H191.89V225.592H190.218ZM190.218 212.768V210.888H191.89V212.768H190.218ZM191.138 224.24C190.338 224.24 189.624 224.096 188.994 223.808C188.365 223.52 187.848 223.112 187.442 222.584C187.042 222.051 186.781 221.421 186.658 220.696L188.314 220.432C188.474 221.115 188.816 221.659 189.338 222.064C189.861 222.464 190.488 222.664 191.218 222.664C191.944 222.664 192.533 222.491 192.986 222.144C193.445 221.797 193.674 221.355 193.674 220.816C193.674 220.432 193.557 220.12 193.322 219.88C193.093 219.64 192.717 219.437 192.194 219.272L189.49 218.44C187.89 217.944 187.09 216.984 187.09 215.56C187.09 214.888 187.25 214.304 187.57 213.808C187.896 213.312 188.352 212.928 188.938 212.656C189.525 212.384 190.21 212.248 190.994 212.248C191.746 212.259 192.413 212.397 192.994 212.664C193.581 212.931 194.066 213.315 194.45 213.816C194.84 214.317 195.109 214.92 195.258 215.624L193.554 215.928C193.48 215.517 193.322 215.155 193.082 214.84C192.848 214.525 192.549 214.28 192.186 214.104C191.829 213.928 191.426 213.837 190.978 213.832C190.557 213.821 190.178 213.888 189.842 214.032C189.512 214.171 189.248 214.368 189.05 214.624C188.858 214.875 188.762 215.16 188.762 215.48C188.762 215.832 188.898 216.131 189.17 216.376C189.442 216.621 189.872 216.832 190.458 217.008L192.578 217.624C193.549 217.912 194.25 218.299 194.682 218.784C195.114 219.269 195.33 219.915 195.33 220.72C195.33 221.424 195.154 222.04 194.802 222.568C194.456 223.091 193.968 223.501 193.338 223.8C192.709 224.093 191.976 224.24 191.138 224.24ZM199.046 224V214.32L196.878 215.64V213.776L199.046 212.48H200.75V224H199.046ZM202.987 225.912L203.091 225.168C203.321 225.184 203.499 225.141 203.627 225.04C203.755 224.939 203.841 224.797 203.883 224.616C203.926 224.435 203.934 224.229 203.907 224H202.987V222.072H204.755V224.16C204.755 224.789 204.603 225.264 204.299 225.584C204.001 225.904 203.563 226.013 202.987 225.912ZM207.468 223.992L207.476 222.504L212.492 218.008C212.897 217.651 213.172 217.309 213.316 216.984C213.465 216.659 213.54 216.333 213.54 216.008C213.54 215.597 213.449 215.229 213.268 214.904C213.087 214.573 212.836 214.312 212.516 214.12C212.196 213.928 211.828 213.832 211.412 213.832C210.985 213.832 210.604 213.933 210.268 214.136C209.937 214.333 209.679 214.597 209.492 214.928C209.305 215.259 209.215 215.616 209.22 216H207.508C207.508 215.253 207.676 214.6 208.012 214.04C208.353 213.475 208.82 213.035 209.412 212.72C210.004 212.4 210.681 212.24 211.444 212.24C212.169 212.24 212.82 212.405 213.396 212.736C213.972 213.061 214.425 213.509 214.756 214.08C215.092 214.651 215.26 215.301 215.26 216.032C215.26 216.56 215.191 217.008 215.052 217.376C214.913 217.744 214.705 218.085 214.428 218.4C214.151 218.715 213.804 219.056 213.388 219.424L209.516 222.88L209.332 222.4H215.26V223.992H207.468ZM221.195 224.24C220.411 224.24 219.717 224.069 219.115 223.728C218.512 223.381 218.037 222.907 217.691 222.304C217.349 221.701 217.179 221.008 217.179 220.224V216.256C217.179 215.472 217.349 214.779 217.691 214.176C218.037 213.573 218.512 213.101 219.115 212.76C219.717 212.413 220.411 212.24 221.195 212.24C221.979 212.24 222.672 212.413 223.275 212.76C223.877 213.101 224.349 213.573 224.691 214.176C225.037 214.779 225.211 215.472 225.211 216.256V220.224C225.211 221.008 225.037 221.701 224.691 222.304C224.349 222.907 223.877 223.381 223.275 223.728C222.672 224.069 221.979 224.24 221.195 224.24ZM221.195 222.64C221.621 222.64 222.008 222.539 222.355 222.336C222.707 222.128 222.987 221.851 223.195 221.504C223.403 221.152 223.507 220.76 223.507 220.328V216.136C223.507 215.709 223.403 215.323 223.195 214.976C222.987 214.624 222.707 214.347 222.355 214.144C222.008 213.936 221.621 213.832 221.195 213.832C220.768 213.832 220.379 213.936 220.027 214.144C219.68 214.347 219.403 214.624 219.195 214.976C218.987 215.323 218.883 215.709 218.883 216.136V220.328C218.883 220.76 218.987 221.152 219.195 221.504C219.403 221.851 219.68 222.128 220.027 222.336C220.379 222.539 220.768 222.64 221.195 222.64ZM231.46 224.24C230.676 224.24 229.983 224.069 229.38 223.728C228.778 223.381 228.303 222.907 227.956 222.304C227.615 221.701 227.444 221.008 227.444 220.224V216.256C227.444 215.472 227.615 214.779 227.956 214.176C228.303 213.573 228.778 213.101 229.38 212.76C229.983 212.413 230.676 212.24 231.46 212.24C232.244 212.24 232.938 212.413 233.54 212.76C234.143 213.101 234.615 213.573 234.956 214.176C235.303 214.779 235.476 215.472 235.476 216.256V220.224C235.476 221.008 235.303 221.701 234.956 222.304C234.615 222.907 234.143 223.381 233.54 223.728C232.938 224.069 232.244 224.24 231.46 224.24ZM231.46 222.64C231.887 222.64 232.274 222.539 232.62 222.336C232.972 222.128 233.252 221.851 233.46 221.504C233.668 221.152 233.772 220.76 233.772 220.328V216.136C233.772 215.709 233.668 215.323 233.46 214.976C233.252 214.624 232.972 214.347 232.62 214.144C232.274 213.936 231.887 213.832 231.46 213.832C231.034 213.832 230.644 213.936 230.292 214.144C229.946 214.347 229.668 214.624 229.46 214.976C229.252 215.323 229.148 215.709 229.148 216.136V220.328C229.148 220.76 229.252 221.152 229.46 221.504C229.668 221.851 229.946 222.128 230.292 222.336C230.644 222.539 231.034 222.64 231.46 222.64Z" fill="#525252"/>
</g>
</g>
<defs>
<filter id="filter0_dddddd_222_1840" x="139.666" y="78" width="120" height="124" filterUnits="userSpaceOnUse" color-interpolation-filters="sRGB">
<feFlood flood-opacity="0" result="BackgroundImageFix"/>
<feColorMatrix in="SourceAlpha" type="matrix" values="0 0 0 0 0 0 0 0 0 0 0 0 0 0 0 0 0 0 127 0" result="hardAlpha"/>
<feOffset dy="4"/>
<feGaussianBlur stdDeviation="8"/>
<feComposite in2="hardAlpha" operator="out"/>
<feColorMatrix type="matrix" values="0 0 0 0 0.0901961 0 0 0 0 0.0901961 0 0 0 0 0.0901961 0 0 0 0.04 0"/>
<feBlend mode="normal" in2="BackgroundImageFix" result="effect1_dropShadow_222_1840"/>
<feColorMatrix in="SourceAlpha" type="matrix" values="0 0 0 0 0 0 0 0 0 0 0 0 0 0 0 0 0 0 127 0" result="hardAlpha"/>
<feMorphology radius="8" operator="erode" in="SourceAlpha" result="effect2_dropShadow_222_1840"/>
<feOffset dy="16"/>
<feGaussianBlur stdDeviation="8"/>
<feComposite in2="hardAlpha" operator="out"/>
<feColorMatrix type="matrix" values="0 0 0 0 0.164706 0 0 0 0 0.2 0 0 0 0 0.27451 0 0 0 0.04 0"/>
<feBlend mode="normal" in2="effect1_dropShadow_222_1840" result="effect2_dropShadow_222_1840"/>
<feColorMatrix in="SourceAlpha" type="matrix" values="0 0 0 0 0 0 0 0 0 0 0 0 0 0 0 0 0 0 127 0" result="hardAlpha"/>
<feMorphology radius="2.5" operator="erode" in="SourceAlpha" result="effect3_dropShadow_222_1840"/>
<feOffset dy="5"/>
<feGaussianBlur stdDeviation="2.5"/>
<feComposite in2="hardAlpha" operator="out"/>
<feColorMatrix type="matrix" values="0 0 0 0 0.164706 0 0 0 0 0.2 0 0 0 0 0.27451 0 0 0 0.03 0"/>
<feBlend mode="normal" in2="effect2_dropShadow_222_1840" result="effect3_dropShadow_222_1840"/>
<feColorMatrix in="SourceAlpha" type="matrix" values="0 0 0 0 0 0 0 0 0 0 0 0 0 0 0 0 0 0 127 0" result="hardAlpha"/>
<feMorphology radius="1.5" operator="erode" in="SourceAlpha" result="effect4_dropShadow_222_1840"/>
<feOffset dy="3"/>
<feGaussianBlur stdDeviation="1.5"/>
<feComposite in2="hardAlpha" operator="out"/>
<feColorMatrix type="matrix" values="0 0 0 0 0.164706 0 0 0 0 0.2 0 0 0 0 0.27451 0 0 0 0.05 0"/>
<feBlend mode="normal" in2="effect3_dropShadow_222_1840" result="effect4_dropShadow_222_1840"/>
<feColorMatrix in="SourceAlpha" type="matrix" values="0 0 0 0 0 0 0 0 0 0 0 0 0 0 0 0 0 0 127 0" result="hardAlpha"/>
<feMorphology radius="0.5" operator="erode" in="SourceAlpha" result="effect5_dropShadow_222_1840"/>
<feOffset dy="1"/>
<feGaussianBlur stdDeviation="0.5"/>
<feComposite in2="hardAlpha" operator="out"/>
<feColorMatrix type="matrix" values="0 0 0 0 0.164706 0 0 0 0 0.2 0 0 0 0 0.27451 0 0 0 0.03 0"/>
<feBlend mode="normal" in2="effect4_dropShadow_222_1840" result="effect5_dropShadow_222_1840"/>
<feColorMatrix in="SourceAlpha" type="matrix" values="0 0 0 0 0 0 0 0 0 0 0 0 0 0 0 0 0 0 127 0" result="hardAlpha"/>
<feMorphology radius="1" operator="dilate" in="SourceAlpha" result="effect6_dropShadow_222_1840"/>
<feOffset/>
<feComposite in2="hardAlpha" operator="out"/>
<feColorMatrix type="matrix" values="0 0 0 0 0.054902 0 0 0 0 0.247059 0 0 0 0 0.494118 0 0 0 0.06 0"/>
<feBlend mode="normal" in2="effect5_dropShadow_222_1840" result="effect6_dropShadow_222_1840"/>
<feBlend mode="normal" in="SourceGraphic" in2="effect6_dropShadow_222_1840" result="shape"/>
</filter>
<filter id="filter1_ddddd_222_1840" x="145.832" y="192" width="109" height="52" filterUnits="userSpaceOnUse" color-interpolation-filters="sRGB">
<feFlood flood-opacity="0" result="BackgroundImageFix"/>
<feColorMatrix in="SourceAlpha" type="matrix" values="0 0 0 0 0 0 0 0 0 0 0 0 0 0 0 0 0 0 127 0" result="hardAlpha"/>
<feMorphology radius="8" operator="erode" in="SourceAlpha" result="effect1_dropShadow_222_1840"/>
<feOffset/>
<feGaussianBlur stdDeviation="8"/>
<feComposite in2="hardAlpha" operator="out"/>
<feColorMatrix type="matrix" values="0 0 0 0 0.164706 0 0 0 0 0.2 0 0 0 0 0.27451 0 0 0 0.04 0"/>
<feBlend mode="normal" in2="BackgroundImageFix" result="effect1_dropShadow_222_1840"/>
<feColorMatrix in="SourceAlpha" type="matrix" values="0 0 0 0 0 0 0 0 0 0 0 0 0 0 0 0 0 0 127 0" result="hardAlpha"/>
<feMorphology radius="2.5" operator="erode" in="SourceAlpha" result="effect2_dropShadow_222_1840"/>
<feOffset dy="2"/>
<feGaussianBlur stdDeviation="2.5"/>
<feComposite in2="hardAlpha" operator="out"/>
<feColorMatrix type="matrix" values="0 0 0 0 0.164706 0 0 0 0 0.2 0 0 0 0 0.27451 0 0 0 0.02 0"/>
<feBlend mode="normal" in2="effect1_dropShadow_222_1840" result="effect2_dropShadow_222_1840"/>
<feColorMatrix in="SourceAlpha" type="matrix" values="0 0 0 0 0 0 0 0 0 0 0 0 0 0 0 0 0 0 127 0" result="hardAlpha"/>
<feMorphology radius="1.5" operator="erode" in="SourceAlpha" result="effect3_dropShadow_222_1840"/>
<feOffset dy="3"/>
<feGaussianBlur stdDeviation="1.5"/>
<feComposite in2="hardAlpha" operator="out"/>
<feColorMatrix type="matrix" values="0 0 0 0 0.164706 0 0 0 0 0.2 0 0 0 0 0.27451 0 0 0 0.05 0"/>
<feBlend mode="normal" in2="effect2_dropShadow_222_1840" result="effect3_dropShadow_222_1840"/>
<feColorMatrix in="SourceAlpha" type="matrix" values="0 0 0 0 0 0 0 0 0 0 0 0 0 0 0 0 0 0 127 0" result="hardAlpha"/>
<feMorphology radius="0.5" operator="erode" in="SourceAlpha" result="effect4_dropShadow_222_1840"/>
<feOffset dy="1"/>
<feGaussianBlur stdDeviation="0.5"/>
<feComposite in2="hardAlpha" operator="out"/>
<feColorMatrix type="matrix" values="0 0 0 0 0.164706 0 0 0 0 0.2 0 0 0 0 0.27451 0 0 0 0.03 0"/>
<feBlend mode="normal" in2="effect3_dropShadow_222_1840" result="effect4_dropShadow_222_1840"/>
<feColorMatrix in="SourceAlpha" type="matrix" values="0 0 0 0 0 0 0 0 0 0 0 0 0 0 0 0 0 0 127 0" result="hardAlpha"/>
<feMorphology radius="1" operator="dilate" in="SourceAlpha" result="effect5_dropShadow_222_1840"/>
<feOffset/>
<feComposite in2="hardAlpha" operator="out"/>
<feColorMatrix type="matrix" values="0 0 0 0 0.054902 0 0 0 0 0.247059 0 0 0 0 0.494118 0 0 0 0.06 0"/>
<feBlend mode="normal" in2="effect4_dropShadow_222_1840" result="effect5_dropShadow_222_1840"/>
<feBlend mode="normal" in="SourceGraphic" in2="effect5_dropShadow_222_1840" result="shape"/>
</filter>
<clipPath id="clip0_222_1840">
<rect width="397.333" height="268" fill="white" transform="translate(0.666016)"/>
</clipPath>
</defs>
</svg>
