<svg width="217" height="46" viewBox="0 0 217 46" fill="none" xmlns="http://www.w3.org/2000/svg">
<path d="M7.668 37.5V13.92H0.396V10.68H18.396V13.92H11.232V37.5H7.668ZM18.1761 37.5V18.096H21.4521V21.66L21.0921 21.156C21.5481 20.052 22.2441 19.236 23.1801 18.708C24.1161 18.156 25.2561 17.88 26.6001 17.88H27.7881V21.048H26.0961C24.7281 21.048 23.6241 21.48 22.7841 22.344C21.9441 23.184 21.5241 24.384 21.5241 25.944V37.5H18.1761ZM35.37 37.932C34.098 37.932 32.97 37.704 31.986 37.248C31.026 36.768 30.27 36.12 29.718 35.304C29.166 34.464 28.89 33.504 28.89 32.424C28.89 31.392 29.106 30.468 29.538 29.652C29.994 28.812 30.69 28.104 31.626 27.528C32.586 26.952 33.786 26.544 35.226 26.304L42.426 25.116V27.924L35.982 29.004C34.734 29.22 33.822 29.616 33.246 30.192C32.694 30.768 32.418 31.476 32.418 32.316C32.418 33.108 32.73 33.768 33.354 34.296C34.002 34.824 34.806 35.088 35.766 35.088C36.99 35.088 38.046 34.836 38.934 34.332C39.846 33.804 40.554 33.096 41.058 32.208C41.586 31.32 41.85 30.336 41.85 29.256V24.324C41.85 23.268 41.454 22.416 40.662 21.768C39.894 21.096 38.874 20.76 37.602 20.76C36.498 20.76 35.514 21.048 34.65 21.624C33.81 22.176 33.186 22.92 32.778 23.856L29.862 22.344C30.222 21.456 30.798 20.664 31.59 19.968C32.382 19.248 33.306 18.684 34.362 18.276C35.418 17.868 36.522 17.664 37.674 17.664C39.162 17.664 40.47 17.952 41.598 18.528C42.726 19.08 43.602 19.86 44.226 20.868C44.874 21.852 45.198 23.004 45.198 24.324V37.5H41.922V33.828L42.534 34.044C42.126 34.812 41.574 35.484 40.878 36.06C40.182 36.636 39.366 37.092 38.43 37.428C37.494 37.764 36.474 37.932 35.37 37.932ZM58.129 37.932C56.305 37.932 54.661 37.488 53.197 36.6C51.757 35.712 50.617 34.5 49.777 32.964C48.937 31.428 48.517 29.712 48.517 27.816C48.517 25.872 48.937 24.144 49.777 22.632C50.617 21.096 51.757 19.884 53.197 18.996C54.661 18.108 56.305 17.664 58.129 17.664C59.737 17.664 61.165 18.012 62.413 18.708C63.661 19.38 64.645 20.292 65.365 21.444L64.825 22.272V10.248H68.209V37.5H64.933V33.36L65.365 33.936C64.693 35.208 63.709 36.192 62.413 36.888C61.141 37.584 59.713 37.932 58.129 37.932ZM58.417 34.692C59.641 34.692 60.733 34.392 61.693 33.792C62.653 33.192 63.409 32.376 63.961 31.344C64.537 30.288 64.825 29.112 64.825 27.816C64.825 26.496 64.537 25.32 63.961 24.288C63.409 23.232 62.653 22.404 61.693 21.804C60.733 21.204 59.641 20.904 58.417 20.904C57.217 20.904 56.125 21.216 55.141 21.84C54.181 22.44 53.425 23.256 52.873 24.288C52.321 25.296 52.045 26.472 52.045 27.816C52.045 29.112 52.321 30.288 52.873 31.344C53.425 32.376 54.181 33.192 55.141 33.792C56.101 34.392 57.193 34.692 58.417 34.692ZM81.2391 37.932C79.3671 37.932 77.6991 37.488 76.2351 36.6C74.7711 35.712 73.6191 34.5 72.7791 32.964C71.9391 31.404 71.5191 29.664 71.5191 27.744C71.5191 25.8 71.9271 24.072 72.7431 22.56C73.5831 21.048 74.7111 19.86 76.1271 18.996C77.5671 18.108 79.1751 17.664 80.9511 17.664C82.3911 17.664 83.6631 17.928 84.7671 18.456C85.8951 18.96 86.8431 19.656 87.6111 20.544C88.4031 21.408 89.0031 22.404 89.4111 23.532C89.8431 24.636 90.0591 25.788 90.0591 26.988C90.0591 27.252 90.0351 27.552 89.9871 27.888C89.9631 28.2 89.9271 28.5 89.8791 28.788H73.9671V25.908H87.9351L86.3511 27.204C86.5671 25.956 86.4471 24.84 85.9911 23.856C85.5351 22.872 84.8631 22.092 83.9751 21.516C83.0871 20.94 82.0791 20.652 80.9511 20.652C79.8231 20.652 78.7911 20.94 77.8551 21.516C76.9191 22.092 76.1871 22.92 75.6591 24C75.1551 25.056 74.9511 26.316 75.0471 27.78C74.9511 29.196 75.1671 30.444 75.6951 31.524C76.2471 32.58 77.0151 33.408 77.9991 34.008C79.0071 34.584 80.0991 34.872 81.2751 34.872C82.5711 34.872 83.6631 34.572 84.5511 33.972C85.4391 33.372 86.1591 32.604 86.7111 31.668L89.5191 33.108C89.1351 33.996 88.5351 34.812 87.7191 35.556C86.9271 36.276 85.9791 36.852 84.8751 37.284C83.7951 37.716 82.5831 37.932 81.2391 37.932ZM93.3443 37.5V18.096H96.6203V22.056L96.1523 21.444C96.6323 20.22 97.4003 19.284 98.4563 18.636C99.5123 17.988 100.7 17.664 102.02 17.664C103.532 17.664 104.888 18.084 106.088 18.924C107.312 19.764 108.152 20.868 108.608 22.236L107.672 22.272C108.176 20.76 109.028 19.62 110.228 18.852C111.428 18.06 112.76 17.664 114.224 17.664C115.568 17.664 116.78 17.976 117.86 18.6C118.964 19.224 119.84 20.088 120.488 21.192C121.136 22.296 121.46 23.544 121.46 24.936V37.5H118.076V26.016C118.076 24.936 117.884 24.024 117.5 23.28C117.116 22.536 116.588 21.96 115.916 21.552C115.268 21.12 114.5 20.904 113.612 20.904C112.748 20.904 111.968 21.12 111.272 21.552C110.6 21.96 110.06 22.548 109.652 23.316C109.268 24.06 109.076 24.96 109.076 26.016V37.5H105.692V26.016C105.692 24.936 105.5 24.024 105.116 23.28C104.732 22.536 104.204 21.96 103.532 21.552C102.884 21.12 102.116 20.904 101.228 20.904C100.364 20.904 99.5843 21.12 98.8883 21.552C98.2163 21.96 97.6763 22.548 97.2683 23.316C96.8843 24.06 96.6923 24.96 96.6923 26.016V37.5H93.3443ZM130.823 37.932C129.551 37.932 128.423 37.704 127.439 37.248C126.479 36.768 125.723 36.12 125.171 35.304C124.619 34.464 124.343 33.504 124.343 32.424C124.343 31.392 124.559 30.468 124.991 29.652C125.447 28.812 126.143 28.104 127.079 27.528C128.039 26.952 129.239 26.544 130.679 26.304L137.879 25.116V27.924L131.435 29.004C130.187 29.22 129.275 29.616 128.699 30.192C128.147 30.768 127.871 31.476 127.871 32.316C127.871 33.108 128.183 33.768 128.807 34.296C129.455 34.824 130.259 35.088 131.219 35.088C132.443 35.088 133.499 34.836 134.387 34.332C135.299 33.804 136.007 33.096 136.511 32.208C137.039 31.32 137.303 30.336 137.303 29.256V24.324C137.303 23.268 136.907 22.416 136.115 21.768C135.347 21.096 134.327 20.76 133.055 20.76C131.951 20.76 130.967 21.048 130.103 21.624C129.263 22.176 128.639 22.92 128.231 23.856L125.315 22.344C125.675 21.456 126.251 20.664 127.043 19.968C127.835 19.248 128.759 18.684 129.815 18.276C130.871 17.868 131.975 17.664 133.127 17.664C134.615 17.664 135.923 17.952 137.051 18.528C138.179 19.08 139.055 19.86 139.679 20.868C140.327 21.852 140.651 23.004 140.651 24.324V37.5H137.375V33.828L137.987 34.044C137.579 34.812 137.027 35.484 136.331 36.06C135.635 36.636 134.819 37.092 133.883 37.428C132.947 37.764 131.927 37.932 130.823 37.932ZM152.295 37.716C150.399 37.716 148.935 37.176 147.903 36.096C146.895 35.016 146.391 33.492 146.391 31.524V21.3H142.863V18.096H143.583C144.447 18.096 145.131 17.832 145.635 17.304C146.139 16.776 146.391 16.08 146.391 15.216V13.632H149.739V18.096H154.095V21.3H149.739V31.416C149.739 32.064 149.835 32.628 150.027 33.108C150.243 33.588 150.591 33.972 151.071 34.26C151.551 34.524 152.187 34.656 152.979 34.656C153.147 34.656 153.351 34.644 153.591 34.62C153.855 34.596 154.095 34.572 154.311 34.548V37.5C153.999 37.572 153.651 37.62 153.267 37.644C152.883 37.692 152.559 37.716 152.295 37.716ZM166.005 37.932C164.133 37.932 162.465 37.488 161.001 36.6C159.537 35.712 158.385 34.5 157.545 32.964C156.705 31.404 156.285 29.664 156.285 27.744C156.285 25.8 156.693 24.072 157.509 22.56C158.349 21.048 159.477 19.86 160.893 18.996C162.333 18.108 163.941 17.664 165.717 17.664C167.157 17.664 168.429 17.928 169.533 18.456C170.661 18.96 171.609 19.656 172.377 20.544C173.169 21.408 173.769 22.404 174.177 23.532C174.609 24.636 174.825 25.788 174.825 26.988C174.825 27.252 174.801 27.552 174.753 27.888C174.729 28.2 174.693 28.5 174.645 28.788H158.733V25.908H172.701L171.117 27.204C171.333 25.956 171.213 24.84 170.757 23.856C170.301 22.872 169.629 22.092 168.741 21.516C167.853 20.94 166.845 20.652 165.717 20.652C164.589 20.652 163.557 20.94 162.621 21.516C161.685 22.092 160.953 22.92 160.425 24C159.921 25.056 159.717 26.316 159.813 27.78C159.717 29.196 159.933 30.444 160.461 31.524C161.013 32.58 161.781 33.408 162.765 34.008C163.773 34.584 164.865 34.872 166.041 34.872C167.337 34.872 168.429 34.572 169.317 33.972C170.205 33.372 170.925 32.604 171.477 31.668L174.285 33.108C173.901 33.996 173.301 34.812 172.485 35.556C171.693 36.276 170.745 36.852 169.641 37.284C168.561 37.716 167.349 37.932 166.005 37.932Z" fill="#393939"/>
<path d="M185.5 30.5L194.5 21.5L200.5 27.5L212.5 15.5" stroke="#FFD643" stroke-width="3" stroke-linecap="round" stroke-linejoin="round"/>
<path d="M206.5 15.5H212.5V21.5" stroke="#FFD643" stroke-width="3" stroke-linecap="round" stroke-linejoin="round"/>
</svg>
