<svg width="218" height="46" viewBox="0 0 218 46" fill="none" xmlns="http://www.w3.org/2000/svg">
<path d="M8.168 37.6597V14.0797H0.896V10.8397H18.896V14.0797H11.732V37.6597H8.168ZM18.6761 37.6597V18.2557H21.9521V21.8197L21.5921 21.3157C22.0481 20.2117 22.7441 19.3957 23.6801 18.8677C24.6161 18.3157 25.7561 18.0397 27.1001 18.0397H28.2881V21.2077H26.5961C25.2281 21.2077 24.1241 21.6397 23.2841 22.5037C22.4441 23.3437 22.0241 24.5437 22.0241 26.1037V37.6597H18.6761ZM35.87 38.0917C34.598 38.0917 33.47 37.8637 32.486 37.4077C31.526 36.9277 30.77 36.2797 30.218 35.4637C29.666 34.6237 29.39 33.6637 29.39 32.5837C29.39 31.5517 29.606 30.6277 30.038 29.8117C30.494 28.9717 31.19 28.2637 32.126 27.6877C33.086 27.1117 34.286 26.7037 35.726 26.4637L42.926 25.2757V28.0837L36.482 29.1637C35.234 29.3797 34.322 29.7757 33.746 30.3517C33.194 30.9277 32.918 31.6357 32.918 32.4757C32.918 33.2677 33.23 33.9277 33.854 34.4557C34.502 34.9837 35.306 35.2477 36.266 35.2477C37.49 35.2477 38.546 34.9957 39.434 34.4917C40.346 33.9637 41.054 33.2557 41.558 32.3677C42.086 31.4797 42.35 30.4957 42.35 29.4157V24.4837C42.35 23.4277 41.954 22.5757 41.162 21.9277C40.394 21.2557 39.374 20.9197 38.102 20.9197C36.998 20.9197 36.014 21.2077 35.15 21.7837C34.31 22.3357 33.686 23.0797 33.278 24.0157L30.362 22.5037C30.722 21.6157 31.298 20.8237 32.09 20.1277C32.882 19.4077 33.806 18.8437 34.862 18.4357C35.918 18.0277 37.022 17.8237 38.174 17.8237C39.662 17.8237 40.97 18.1117 42.098 18.6877C43.226 19.2397 44.102 20.0197 44.726 21.0277C45.374 22.0117 45.698 23.1637 45.698 24.4837V37.6597H42.422V33.9877L43.034 34.2037C42.626 34.9717 42.074 35.6437 41.378 36.2197C40.682 36.7957 39.866 37.2517 38.93 37.5877C37.994 37.9237 36.974 38.0917 35.87 38.0917ZM58.629 38.0917C56.805 38.0917 55.161 37.6477 53.697 36.7597C52.257 35.8717 51.117 34.6597 50.277 33.1237C49.437 31.5877 49.017 29.8717 49.017 27.9757C49.017 26.0317 49.437 24.3037 50.277 22.7917C51.117 21.2557 52.257 20.0437 53.697 19.1557C55.161 18.2677 56.805 17.8237 58.629 17.8237C60.237 17.8237 61.665 18.1717 62.913 18.8677C64.161 19.5397 65.145 20.4517 65.865 21.6037L65.325 22.4317V10.4077H68.709V37.6597H65.433V33.5197L65.865 34.0957C65.193 35.3677 64.209 36.3517 62.913 37.0477C61.641 37.7437 60.213 38.0917 58.629 38.0917ZM58.917 34.8517C60.141 34.8517 61.233 34.5517 62.193 33.9517C63.153 33.3517 63.909 32.5357 64.461 31.5037C65.037 30.4477 65.325 29.2717 65.325 27.9757C65.325 26.6557 65.037 25.4797 64.461 24.4477C63.909 23.3917 63.153 22.5637 62.193 21.9637C61.233 21.3637 60.141 21.0637 58.917 21.0637C57.717 21.0637 56.625 21.3757 55.641 21.9997C54.681 22.5997 53.925 23.4157 53.373 24.4477C52.821 25.4557 52.545 26.6317 52.545 27.9757C52.545 29.2717 52.821 30.4477 53.373 31.5037C53.925 32.5357 54.681 33.3517 55.641 33.9517C56.601 34.5517 57.693 34.8517 58.917 34.8517ZM81.7391 38.0917C79.8671 38.0917 78.1991 37.6477 76.7351 36.7597C75.2711 35.8717 74.1191 34.6597 73.2791 33.1237C72.4391 31.5637 72.0191 29.8237 72.0191 27.9037C72.0191 25.9597 72.4271 24.2317 73.2431 22.7197C74.0831 21.2077 75.2111 20.0197 76.6271 19.1557C78.0671 18.2677 79.6751 17.8237 81.4511 17.8237C82.8911 17.8237 84.1631 18.0877 85.2671 18.6157C86.3951 19.1197 87.3431 19.8157 88.1111 20.7037C88.9031 21.5677 89.5031 22.5637 89.9111 23.6917C90.3431 24.7957 90.5591 25.9477 90.5591 27.1477C90.5591 27.4117 90.5351 27.7117 90.4871 28.0477C90.4631 28.3597 90.4271 28.6597 90.3791 28.9477H74.4671V26.0677H88.4351L86.8511 27.3637C87.0671 26.1157 86.9471 24.9997 86.4911 24.0157C86.0351 23.0317 85.3631 22.2517 84.4751 21.6757C83.5871 21.0997 82.5791 20.8117 81.4511 20.8117C80.3231 20.8117 79.2911 21.0997 78.3551 21.6757C77.4191 22.2517 76.6871 23.0797 76.1591 24.1597C75.6551 25.2157 75.4511 26.4757 75.5471 27.9397C75.4511 29.3557 75.6671 30.6037 76.1951 31.6837C76.7471 32.7397 77.5151 33.5677 78.4991 34.1677C79.5071 34.7437 80.5991 35.0317 81.7751 35.0317C83.0711 35.0317 84.1631 34.7317 85.0511 34.1317C85.9391 33.5317 86.6591 32.7637 87.2111 31.8277L90.0191 33.2677C89.6351 34.1557 89.0351 34.9717 88.2191 35.7157C87.4271 36.4357 86.4791 37.0117 85.3751 37.4437C84.2951 37.8757 83.0831 38.0917 81.7391 38.0917ZM93.8443 37.6597V18.2557H97.1203V22.2157L96.6523 21.6037C97.1323 20.3797 97.9003 19.4437 98.9563 18.7957C100.012 18.1477 101.2 17.8237 102.52 17.8237C104.032 17.8237 105.388 18.2437 106.588 19.0837C107.812 19.9237 108.652 21.0277 109.108 22.3957L108.172 22.4317C108.676 20.9197 109.528 19.7797 110.728 19.0117C111.928 18.2197 113.26 17.8237 114.724 17.8237C116.068 17.8237 117.28 18.1357 118.36 18.7597C119.464 19.3837 120.34 20.2477 120.988 21.3517C121.636 22.4557 121.96 23.7037 121.96 25.0957V37.6597H118.576V26.1757C118.576 25.0957 118.384 24.1837 118 23.4397C117.616 22.6957 117.088 22.1197 116.416 21.7117C115.768 21.2797 115 21.0637 114.112 21.0637C113.248 21.0637 112.468 21.2797 111.772 21.7117C111.1 22.1197 110.56 22.7077 110.152 23.4757C109.768 24.2197 109.576 25.1197 109.576 26.1757V37.6597H106.192V26.1757C106.192 25.0957 106 24.1837 105.616 23.4397C105.232 22.6957 104.704 22.1197 104.032 21.7117C103.384 21.2797 102.616 21.0637 101.728 21.0637C100.864 21.0637 100.084 21.2797 99.3883 21.7117C98.7163 22.1197 98.1763 22.7077 97.7683 23.4757C97.3843 24.2197 97.1923 25.1197 97.1923 26.1757V37.6597H93.8443ZM131.323 38.0917C130.051 38.0917 128.923 37.8637 127.939 37.4077C126.979 36.9277 126.223 36.2797 125.671 35.4637C125.119 34.6237 124.843 33.6637 124.843 32.5837C124.843 31.5517 125.059 30.6277 125.491 29.8117C125.947 28.9717 126.643 28.2637 127.579 27.6877C128.539 27.1117 129.739 26.7037 131.179 26.4637L138.379 25.2757V28.0837L131.935 29.1637C130.687 29.3797 129.775 29.7757 129.199 30.3517C128.647 30.9277 128.371 31.6357 128.371 32.4757C128.371 33.2677 128.683 33.9277 129.307 34.4557C129.955 34.9837 130.759 35.2477 131.719 35.2477C132.943 35.2477 133.999 34.9957 134.887 34.4917C135.799 33.9637 136.507 33.2557 137.011 32.3677C137.539 31.4797 137.803 30.4957 137.803 29.4157V24.4837C137.803 23.4277 137.407 22.5757 136.615 21.9277C135.847 21.2557 134.827 20.9197 133.555 20.9197C132.451 20.9197 131.467 21.2077 130.603 21.7837C129.763 22.3357 129.139 23.0797 128.731 24.0157L125.815 22.5037C126.175 21.6157 126.751 20.8237 127.543 20.1277C128.335 19.4077 129.259 18.8437 130.315 18.4357C131.371 18.0277 132.475 17.8237 133.627 17.8237C135.115 17.8237 136.423 18.1117 137.551 18.6877C138.679 19.2397 139.555 20.0197 140.179 21.0277C140.827 22.0117 141.151 23.1637 141.151 24.4837V37.6597H137.875V33.9877L138.487 34.2037C138.079 34.9717 137.527 35.6437 136.831 36.2197C136.135 36.7957 135.319 37.2517 134.383 37.5877C133.447 37.9237 132.427 38.0917 131.323 38.0917ZM152.795 37.8757C150.899 37.8757 149.435 37.3357 148.403 36.2557C147.395 35.1757 146.891 33.6517 146.891 31.6837V21.4597H143.363V18.2557H144.083C144.947 18.2557 145.631 17.9917 146.135 17.4637C146.639 16.9357 146.891 16.2397 146.891 15.3757V13.7917H150.239V18.2557H154.595V21.4597H150.239V31.5757C150.239 32.2237 150.335 32.7877 150.527 33.2677C150.743 33.7477 151.091 34.1317 151.571 34.4197C152.051 34.6837 152.687 34.8157 153.479 34.8157C153.647 34.8157 153.851 34.8037 154.091 34.7797C154.355 34.7557 154.595 34.7317 154.811 34.7077V37.6597C154.499 37.7317 154.151 37.7797 153.767 37.8037C153.383 37.8517 153.059 37.8757 152.795 37.8757ZM166.505 38.0917C164.633 38.0917 162.965 37.6477 161.501 36.7597C160.037 35.8717 158.885 34.6597 158.045 33.1237C157.205 31.5637 156.785 29.8237 156.785 27.9037C156.785 25.9597 157.193 24.2317 158.009 22.7197C158.849 21.2077 159.977 20.0197 161.393 19.1557C162.833 18.2677 164.441 17.8237 166.217 17.8237C167.657 17.8237 168.929 18.0877 170.033 18.6157C171.161 19.1197 172.109 19.8157 172.877 20.7037C173.669 21.5677 174.269 22.5637 174.677 23.6917C175.109 24.7957 175.325 25.9477 175.325 27.1477C175.325 27.4117 175.301 27.7117 175.253 28.0477C175.229 28.3597 175.193 28.6597 175.145 28.9477H159.233V26.0677H173.201L171.617 27.3637C171.833 26.1157 171.713 24.9997 171.257 24.0157C170.801 23.0317 170.129 22.2517 169.241 21.6757C168.353 21.0997 167.345 20.8117 166.217 20.8117C165.089 20.8117 164.057 21.0997 163.121 21.6757C162.185 22.2517 161.453 23.0797 160.925 24.1597C160.421 25.2157 160.217 26.4757 160.313 27.9397C160.217 29.3557 160.433 30.6037 160.961 31.6837C161.513 32.7397 162.281 33.5677 163.265 34.1677C164.273 34.7437 165.365 35.0317 166.541 35.0317C167.837 35.0317 168.929 34.7317 169.817 34.1317C170.705 33.5317 171.425 32.7637 171.977 31.8277L174.785 33.2677C174.401 34.1557 173.801 34.9717 172.985 35.7157C172.193 36.4357 171.245 37.0117 170.141 37.4437C169.061 37.8757 167.849 38.0917 166.505 38.0917Z" fill="white"/>
<path d="M186 30.6597L195 21.6597L201 27.6597L213 15.6597" stroke="#FFD643" stroke-width="3" stroke-linecap="round" stroke-linejoin="round"/>
<path d="M207 15.6597H213V21.6597" stroke="#FFD643" stroke-width="3" stroke-linecap="round" stroke-linejoin="round"/>
</svg>
